CascadiaCode-ExtraLightItalic.ufo
<glyph name="exclam" format="2">
  <advance width="1200"/>
  <unicode hex="0021"/>
  <outline>
    <contour>
      <point x="517" y="356" type="line"/>
      <point x="613" y="356" type="line"/>
      <point x="802" y="1430" type="line"/>
      <point x="706" y="1430" type="line"/>
    </contour>
    <component base="period"/>
  </outline>
</glyph>
<glyph name="numbersign" format="2">
  <advance width="1200"/>
  <unicode hex="0023"/>
  <outline>
    <contour>
      <point x="624" y="0" type="line"/>
      <point x="718" y="0" type="line"/>
      <point x="1084" y="1420" type="line"/>
      <point x="990" y="1420" type="line"/>
    </contour>
    <contour>
      <point x="104" y="419" type="line"/>
      <point x="1056" y="419" type="line"/>
      <point x="1072" y="509" type="line"/>
      <point x="120" y="509" type="line"/>
    </contour>
    <contour>
      <point x="178" y="0" type="line"/>
      <point x="272" y="0" type="line"/>
      <point x="638" y="1420" type="line"/>
      <point x="544" y="1420" type="line"/>
    </contour>
    <contour>
      <point x="191" y="911" type="line"/>
      <point x="1143" y="911" type="line"/>
      <point x="1159" y="1001" type="line"/>
      <point x="207" y="1001" type="line"/>
    </contour>
  </outline>
</glyph>
<glyph name="percent" format="2">
  <advance width="1200"/>
  <unicode hex="0025"/>
  <outline>
    <contour>
      <point x="147" y="306" type="line"/>
      <point x="1167" y="1030" type="line"/>
      <point x="1123" y="1106" type="line"/>
      <point x="103" y="382" type="line"/>
    </contour>
    <component base="zerosuperior" xOffset="-260"/>
    <component base="zeroinferior" xOffset="270"/>
  </outline>
</glyph>
<glyph name="ampersand" format="2">
  <advance width="1200"/>
  <unicode hex="0026"/>
  <outline>
    <contour>
      <point x="860" y="485" type="line"/>
      <point x="864" y="477"/>
      <point x="875" y="425"/>
      <point x="875" y="397" type="curve" smooth="yes"/>
      <point x="875" y="190"/>
      <point x="745" y="70"/>
      <point x="527" y="70" type="curve" smooth="yes"/>
      <point x="315" y="70"/>
      <point x="189" y="172"/>
      <point x="189" y="349" type="curve" smooth="yes"/>
      <point x="189" y="587"/>
      <point x="422" y="755"/>
      <point x="818" y="805" type="curve"/>
      <point x="820" y="895" type="line"/>
      <point x="689" y="851" type="line"/>
      <point x="314" y="804"/>
      <point x="93" y="614"/>
      <point x="93" y="343" type="curve" smooth="yes"/>
      <point x="93" y="114"/>
      <point x="245" y="-20"/>
      <point x="501" y="-20" type="curve" smooth="yes"/>
      <point x="796" y="-20"/>
      <point x="971" y="140"/>
      <point x="971" y="411" type="curve" smooth="yes"/>
      <point x="971" y="447"/>
      <point x="960" y="510"/>
      <point x="956" y="525" type="curve"/>
    </contour>
    <contour>
      <point x="1145" y="638" type="line"/>
      <point x="1002" y="582"/>
      <point x="806" y="540"/>
      <point x="603" y="526" type="curve"/>
      <point x="615" y="430" type="line"/>
      <point x="826" y="443"/>
      <point x="1025" y="489"/>
      <point x="1166" y="553" type="curve"/>
    </contour>
    <contour>
      <point x="1150" y="1303" type="line"/>
      <point x="1057" y="1392"/>
      <point x="923" y="1440"/>
      <point x="760" y="1440" type="curve" smooth="yes"/>
      <point x="498" y="1440"/>
      <point x="323" y="1305"/>
      <point x="323" y="1103" type="curve" smooth="yes"/>
      <point x="323" y="967"/>
      <point x="405" y="873"/>
      <point x="569" y="849" type="curve"/>
      <point x="569" y="780" type="line"/>
      <point x="820" y="895" type="line"/>
      <point x="584" y="895"/>
      <point x="419" y="959"/>
      <point x="419" y="1099" type="curve" smooth="yes"/>
      <point x="419" y="1249"/>
      <point x="551" y="1350"/>
      <point x="750" y="1350" type="curve" smooth="yes"/>
      <point x="863" y="1350"/>
      <point x="986" y="1321"/>
      <point x="1078" y="1233" type="curve"/>
    </contour>
  </outline>
</glyph>
<glyph name="quotesingle" format="2">
  <advance width="1200"/>
  <unicode hex="0027"/>
  <outline>
    <contour>
      <point x="597" y="780" type="line"/>
      <point x="693" y="780" type="line"/>
      <point x="809" y="1420" type="line"/>
      <point x="707" y="1420" type="line"/>
    </contour>
  </outline>
</glyph>
<glyph name="parenleft" format="2">
  <advance width="1200"/>
  <unicode hex="0028"/>
  <outline>
    <contour>
      <point x="1166" y="1621" type="line"/>
      <point x="1138" y="1621" type="line" smooth="yes"/>
      <point x="717" y="1621"/>
      <point x="413" y="1281"/>
      <point x="321" y="705" type="curve" smooth="yes"/>
      <point x="230" y="137"/>
      <point x="415" y="-199"/>
      <point x="818" y="-199" type="curve" smooth="yes"/>
      <point x="845" y="-199" type="line"/>
      <point x="861" y="-109" type="line"/>
      <point x="833" y="-109" type="line" smooth="yes"/>
      <point x="492" y="-109"/>
      <point x="337" y="193"/>
      <point x="417" y="705" type="curve" smooth="yes"/>
      <point x="498" y="1224"/>
      <point x="761" y="1531"/>
      <point x="1123" y="1531" type="curve" smooth="yes"/>
      <point x="1150" y="1531" type="line"/>
    </contour>
  </outline>
</glyph>
<glyph name="parenright" format="2">
  <advance width="1200"/>
  <unicode hex="0029"/>
  <outline>
    <contour>
      <point x="97" y="-200" type="line"/>
      <point x="125" y="-200" type="line" smooth="yes"/>
      <point x="547" y="-200"/>
      <point x="851" y="140"/>
      <point x="943" y="716" type="curve" smooth="yes"/>
      <point x="1034" y="1284"/>
      <point x="849" y="1620"/>
      <point x="445" y="1620" type="curve" smooth="yes"/>
      <point x="418" y="1620" type="line"/>
      <point x="402" y="1530" type="line"/>
      <point x="430" y="1530" type="line" smooth="yes"/>
      <point x="772" y="1530"/>
      <point x="927" y="1228"/>
      <point x="847" y="716" type="curve" smooth="yes"/>
      <point x="766" y="197"/>
      <point x="503" y="-110"/>
      <point x="140" y="-110" type="curve" smooth="yes"/>
      <point x="113" y="-110" type="line"/>
    </contour>
  </outline>
</glyph>
<glyph name="asterisk" format="2">
  <advance width="1200"/>
  <unicode hex="002A"/>
  <outline>
    <contour>
      <point x="308" y="280" type="line"/>
      <point x="658" y="668" type="line"/>
      <point x="600" y="724" type="line"/>
      <point x="240" y="347" type="line"/>
    </contour>
    <contour>
      <point x="610" y="660" type="line"/>
      <point x="649" y="732" type="line"/>
      <point x="231" y="904" type="line"/>
      <point x="185" y="810" type="line"/>
    </contour>
    <contour>
      <point x="809" y="280" type="line"/>
      <point x="891" y="337" type="line"/>
      <point x="662" y="720" type="line"/>
      <point x="596" y="672" type="line"/>
    </contour>
    <contour>
      <point x="586" y="696" type="line"/>
      <point x="672" y="696" type="line"/>
      <point x="761" y="1176" type="line"/>
      <point x="667" y="1176" type="line"/>
    </contour>
    <contour>
      <point x="643" y="658" type="line"/>
      <point x="1123" y="814" type="line"/>
      <point x="1101" y="904" type="line"/>
      <point x="623" y="732" type="line"/>
    </contour>
  </outline>
</glyph>
<glyph name="plus" format="2">
  <advance width="1200"/>
  <unicode hex="002B"/>
  <outline>
    <contour>
      <point x="492" y="190" type="line"/>
      <point x="588" y="190" type="line"/>
      <point x="772" y="1228" type="line"/>
      <point x="676" y="1228" type="line"/>
    </contour>
    <contour>
      <point x="148" y="665" type="line"/>
      <point x="1100" y="665" type="line"/>
      <point x="1116" y="755" type="line"/>
      <point x="164" y="755" type="line"/>
    </contour>
  </outline>
</glyph>
<glyph name="comma" format="2">
  <advance width="1200"/>
  <unicode hex="002C"/>
  <outline>
    <contour>
      <point x="312" y="-436" type="line"/>
      <point x="405" y="-436" type="line"/>
      <point x="610" y="254" type="line"/>
      <point x="512" y="254" type="line"/>
    </contour>
  </outline>
</glyph>
<glyph name="period" format="2">
  <advance width="1200"/>
  <unicode hex="002E"/>
  <outline>
    <contour>
      <point x="520" y="-20" type="curve" smooth="yes"/>
      <point x="575" y="-20"/>
      <point x="620" y="24"/>
      <point x="620" y="79" type="curve" smooth="yes"/>
      <point x="620" y="134"/>
      <point x="575" y="179"/>
      <point x="520" y="179" type="curve" smooth="yes"/>
      <point x="465" y="179"/>
      <point x="420" y="134"/>
      <point x="420" y="79" type="curve" smooth="yes"/>
      <point x="420" y="24"/>
      <point x="465" y="-20"/>
    </contour>
  </outline>
</glyph>
<glyph name="slash" format="2">
  <advance width="1200"/>
  <unicode hex="002F"/>
  <outline>
    <contour>
      <point x="41" y="-190" type="line"/>
      <point x="145" y="-190" type="line"/>
      <point x="1326" y="1610" type="line"/>
      <point x="1222" y="1610" type="line"/>
    </contour>
  </outline>
</glyph>
<glyph name="zero" format="2">
  <advance width="1200"/>
  <unicode hex="0030"/>
  <outline>
    <contour>
      <point x="506" y="-20" type="curve" smooth="yes"/>
      <point x="891" y="-20"/>
      <point x="1118" y="361"/>
      <point x="1118" y="1005" type="curve" smooth="yes"/>
      <point x="1118" y="1278"/>
      <point x="986" y="1440"/>
      <point x="762" y="1440" type="curve" smooth="yes"/>
      <point x="375" y="1440"/>
      <point x="147" y="1063"/>
      <point x="147" y="426" type="curve" smooth="yes"/>
      <point x="147" y="146"/>
      <point x="280" y="-20"/>
    </contour>
    <contour>
      <point x="630" y="600" type="curve" smooth="yes"/>
      <point x="685" y="600"/>
      <point x="730" y="644"/>
      <point x="730" y="699" type="curve" smooth="yes"/>
      <point x="730" y="754"/>
      <point x="685" y="799"/>
      <point x="630" y="799" type="curve" smooth="yes"/>
      <point x="575" y="799"/>
      <point x="530" y="754"/>
      <point x="530" y="699" type="curve" smooth="yes"/>
      <point x="530" y="644"/>
      <point x="575" y="600"/>
    </contour>
    <contour>
      <point x="523" y="70" type="curve" smooth="yes"/>
      <point x="347" y="70"/>
      <point x="243" y="204"/>
      <point x="243" y="431" type="curve" smooth="yes"/>
      <point x="243" y="1009"/>
      <point x="431" y="1350"/>
      <point x="748" y="1350" type="curve" smooth="yes"/>
      <point x="920" y="1350"/>
      <point x="1022" y="1218"/>
      <point x="1022" y="994" type="curve" smooth="yes"/>
      <point x="1022" y="413"/>
      <point x="837" y="70"/>
    </contour>
  </outline>
</glyph>
<glyph name="one" format="2">
  <advance width="1200"/>
  <unicode hex="0031"/>
  <outline>
    <contour>
      <point x="487" y="0" type="line"/>
      <point x="583" y="0" type="line"/>
      <point x="833" y="1420" type="line"/>
      <point x="737" y="1420" type="line"/>
    </contour>
    <contour>
      <point x="101" y="0" type="line"/>
      <point x="507" y="0" type="line"/>
      <point x="523" y="90" type="line"/>
      <point x="116" y="90" type="line"/>
    </contour>
    <contour>
      <point x="561" y="0" type="line"/>
      <point x="935" y="0" type="line"/>
      <point x="950" y="90" type="line"/>
      <point x="577" y="90" type="line"/>
    </contour>
    <contour>
      <point x="332" y="1198" type="line"/>
      <point x="727" y="1320" type="line"/>
      <point x="737" y="1420" type="line"/>
      <point x="350" y="1300" type="line"/>
    </contour>
  </outline>
</glyph>
<glyph name="two" format="2">
  <advance width="1200"/>
  <unicode hex="0032"/>
  <outline>
    <contour>
      <point x="113" y="0" type="line"/>
      <point x="213" y="0" type="line"/>
      <point x="214" y="99" type="line"/>
      <point x="776" y="389"/>
      <point x="1088" y="727"/>
      <point x="1088" y="1107" type="curve" smooth="yes"/>
      <point x="1088" y="1316"/>
      <point x="955" y="1440"/>
      <point x="729" y="1440" type="curve" smooth="yes"/>
      <point x="552" y="1440"/>
      <point x="373" y="1361"/>
      <point x="247" y="1228" type="curve"/>
      <point x="300" y="1166" type="line"/>
      <point x="430" y="1282"/>
      <point x="587" y="1350"/>
      <point x="722" y="1350" type="curve" smooth="yes"/>
      <point x="892" y="1350"/>
      <point x="992" y="1250"/>
      <point x="992" y="1081" type="curve" smooth="yes"/>
      <point x="992" y="756"/>
      <point x="672" y="417"/>
      <point x="100" y="127" type="curve"/>
    </contour>
    <contour>
      <point x="173" y="0" type="line"/>
      <point x="959" y="0" type="line"/>
      <point x="974" y="89" type="line"/>
      <point x="157" y="89" type="line"/>
    </contour>
  </outline>
</glyph>
<glyph name="three" format="2">
  <advance width="1200"/>
  <unicode hex="0033"/>
  <outline>
    <contour>
      <point x="426" y="-20" type="curve" smooth="yes"/>
      <point x="773" y="-20"/>
      <point x="999" y="155"/>
      <point x="999" y="426" type="curve" smooth="yes"/>
      <point x="999" y="604"/>
      <point x="882" y="706"/>
      <point x="700" y="726" type="curve" smooth="yes"/>
      <point x="394" y="765" type="line"/>
      <point x="399" y="685" type="line"/>
      <point x="432" y="685" type="line" smooth="yes"/>
      <point x="734" y="685"/>
      <point x="903" y="587"/>
      <point x="903" y="410" type="curve" smooth="yes"/>
      <point x="903" y="204"/>
      <point x="718" y="70"/>
      <point x="440" y="70" type="curve" smooth="yes"/>
      <point x="283" y="70"/>
      <point x="194" y="100"/>
      <point x="116" y="121" type="curve"/>
      <point x="85" y="26" type="line"/>
      <point x="171" y="-2"/>
      <point x="285" y="-20"/>
    </contour>
    <contour>
      <point x="399" y="685" type="line"/>
      <point x="639" y="685" type="line"/>
      <point x="639" y="750" type="line"/>
      <point x="936" y="805"/>
      <point x="1099" y="976"/>
      <point x="1099" y="1167" type="curve" smooth="yes"/>
      <point x="1099" y="1343"/>
      <point x="981" y="1440"/>
      <point x="767" y="1440" type="curve" smooth="yes"/>
      <point x="576" y="1440"/>
      <point x="410" y="1386"/>
      <point x="269" y="1261" type="curve"/>
      <point x="323" y="1194" type="line"/>
      <point x="472" y="1300"/>
      <point x="630" y="1350"/>
      <point x="753" y="1350" type="curve" smooth="yes"/>
      <point x="915" y="1350"/>
      <point x="1003" y="1277"/>
      <point x="1003" y="1152" type="curve" smooth="yes"/>
      <point x="1003" y="950"/>
      <point x="791" y="815"/>
      <point x="394" y="765" type="curve"/>
    </contour>
  </outline>
</glyph>
<glyph name="four" format="2">
  <advance width="1200"/>
  <unicode hex="0034"/>
  <outline>
    <contour>
      <point x="62" y="326" type="line"/>
      <point x="159" y="326" type="line"/>
      <point x="516" y="1340" type="line"/>
      <point x="417" y="1340" type="line"/>
    </contour>
    <contour>
      <point x="60" y="326" type="line"/>
      <point x="798" y="326" type="line"/>
      <point x="814" y="416" type="line"/>
      <point x="156" y="416" type="line"/>
    </contour>
    <contour>
      <point x="852" y="326" type="line"/>
      <point x="1060" y="326" type="line"/>
      <point x="1076" y="416" type="line"/>
      <point x="868" y="416" type="line"/>
    </contour>
    <contour>
      <point x="719" y="0" type="line"/>
      <point x="815" y="0" type="line"/>
      <point x="1065" y="1420" type="line"/>
      <point x="969" y="1420" type="line"/>
    </contour>
  </outline>
</glyph>
<glyph name="five" format="2">
  <advance width="1200"/>
  <unicode hex="0035"/>
  <outline>
    <contour>
      <point x="526" y="-20" type="curve" smooth="yes"/>
      <point x="868" y="-20"/>
      <point x="1070" y="185"/>
      <point x="1070" y="532" type="curve" smooth="yes"/>
      <point x="1070" y="761"/>
      <point x="940" y="896"/>
      <point x="721" y="896" type="curve" smooth="yes"/>
      <point x="605" y="896"/>
      <point x="483" y="871"/>
      <point x="354" y="776" type="curve"/>
      <point x="356" y="680" type="line"/>
      <point x="464" y="762"/>
      <point x="580" y="806"/>
      <point x="699" y="806" type="curve" smooth="yes"/>
      <point x="869" y="806"/>
      <point x="969" y="699"/>
      <point x="969" y="519" type="curve" smooth="yes"/>
      <point x="969" y="237"/>
      <point x="810" y="70"/>
      <point x="541" y="70" type="curve" smooth="yes"/>
      <point x="311" y="70"/>
      <point x="195" y="192"/>
      <point x="232" y="398" type="curve"/>
      <point x="134" y="398" type="line"/>
      <point x="90" y="135"/>
      <point x="234" y="-20"/>
    </contour>
    <contour>
      <point x="270" y="680" type="line"/>
      <point x="356" y="680" type="line"/>
      <point x="389" y="804" type="line"/>
      <point x="496" y="1420" type="line"/>
      <point x="400" y="1420" type="line"/>
    </contour>
    <contour>
      <point x="454" y="1330" type="line"/>
      <point x="1121" y="1330" type="line"/>
      <point x="1137" y="1420" type="line"/>
      <point x="452" y="1420" type="line"/>
    </contour>
  </outline>
</glyph>
<glyph name="six" format="2">
  <advance width="1200"/>
  <unicode hex="0036"/>
  <outline>
    <contour>
      <point x="539" y="-20" type="curve" smooth="yes"/>
      <point x="850" y="-20"/>
      <point x="1063" y="209"/>
      <point x="1063" y="541" type="curve" smooth="yes"/>
      <point x="1063" y="771"/>
      <point x="927" y="900"/>
      <point x="669" y="900" type="curve" smooth="yes"/>
      <point x="495" y="900"/>
      <point x="350" y="830"/>
      <point x="282" y="708" type="curve"/>
      <point x="262" y="708" type="line"/>
      <point x="367" y="1096"/>
      <point x="623" y="1311"/>
      <point x="1104" y="1337" type="curve"/>
      <point x="1110" y="1426" type="line"/>
      <point x="471" y="1401"/>
      <point x="130" y="1035"/>
      <point x="130" y="376" type="curve" smooth="yes"/>
      <point x="130" y="115"/>
      <point x="271" y="-20"/>
    </contour>
    <contour>
      <point x="548" y="70" type="curve" smooth="yes"/>
      <point x="333" y="70"/>
      <point x="226" y="178"/>
      <point x="226" y="395" type="curve" smooth="yes"/>
      <point x="226" y="643"/>
      <point x="407" y="810"/>
      <point x="677" y="810" type="curve" smooth="yes"/>
      <point x="859" y="810"/>
      <point x="966" y="696"/>
      <point x="966" y="503" type="curve" smooth="yes"/>
      <point x="966" y="257"/>
      <point x="785" y="70"/>
    </contour>
  </outline>
</glyph>
<glyph name="seven" format="2">
  <advance width="1200"/>
  <unicode hex="0037"/>
  <outline>
    <contour>
      <point x="503" y="0" type="line"/>
      <point x="602" y="0" type="line"/>
      <point x="1281" y="1420" type="line"/>
      <point x="1183" y="1420" type="line"/>
    </contour>
    <contour>
      <point x="201" y="983" type="line"/>
      <point x="297" y="983" type="line"/>
      <point x="375" y="1420" type="line"/>
      <point x="279" y="1420" type="line"/>
    </contour>
    <contour>
      <point x="272" y="1330" type="line"/>
      <point x="1192" y="1330" type="line"/>
      <point x="1281" y="1420" type="line"/>
      <point x="279" y="1420" type="line"/>
    </contour>
  </outline>
</glyph>
<glyph name="eight" format="2">
  <advance width="1200"/>
  <unicode hex="0038"/>
  <outline>
    <contour>
      <point x="500" y="-20" type="curve" smooth="yes"/>
      <point x="828" y="-20"/>
      <point x="1046" y="162"/>
      <point x="1046" y="434" type="curve" smooth="yes"/>
      <point x="1046" y="658"/>
      <point x="883" y="774"/>
      <point x="639" y="774" type="curve" smooth="yes"/>
      <point x="318" y="774"/>
      <point x="105" y="613"/>
      <point x="105" y="322" type="curve" smooth="yes"/>
      <point x="105" y="117"/>
      <point x="263" y="-20"/>
    </contour>
    <contour>
      <point x="515" y="70" type="curve" smooth="yes"/>
      <point x="326" y="70"/>
      <point x="201" y="186"/>
      <point x="201" y="358" type="curve" smooth="yes"/>
      <point x="201" y="570"/>
      <point x="372" y="711"/>
      <point x="628" y="711" type="curve" smooth="yes"/>
      <point x="821" y="711"/>
      <point x="950" y="606"/>
      <point x="950" y="449" type="curve" smooth="yes"/>
      <point x="950" y="222"/>
      <point x="776" y="70"/>
    </contour>
    <contour>
      <point x="464" y="716" type="line"/>
      <point x="798" y="716" type="line"/>
      <point x="812" y="798" type="line"/>
      <point x="478" y="798" type="line"/>
    </contour>
    <contour>
      <point x="645" y="807" type="curve" smooth="yes"/>
      <point x="476" y="807"/>
      <point x="363" y="892"/>
      <point x="363" y="1019" type="curve" smooth="yes"/>
      <point x="363" y="1217"/>
      <point x="515" y="1350"/>
      <point x="741" y="1350" type="curve" smooth="yes"/>
      <point x="915" y="1350"/>
      <point x="1032" y="1246"/>
      <point x="1032" y="1091" type="curve" smooth="yes"/>
      <point x="1032" y="921"/>
      <point x="878" y="807"/>
    </contour>
    <contour>
      <point x="632" y="736" type="curve" smooth="yes"/>
      <point x="930" y="736"/>
      <point x="1128" y="875"/>
      <point x="1128" y="1134" type="curve" smooth="yes"/>
      <point x="1128" y="1318"/>
      <point x="980" y="1440"/>
      <point x="757" y="1440" type="curve" smooth="yes"/>
      <point x="463" y="1440"/>
      <point x="267" y="1274"/>
      <point x="267" y="1026" type="curve" smooth="yes"/>
      <point x="267" y="832"/>
      <point x="413" y="736"/>
    </contour>
  </outline>
</glyph>
<glyph name="nine" format="2">
  <advance width="1200"/>
  <unicode hex="0039"/>
  <outline>
    <contour>
      <point x="163" y="-7" type="line"/>
      <point x="802" y="18"/>
      <point x="1143" y="384"/>
      <point x="1143" y="1043" type="curve" smooth="yes"/>
      <point x="1143" y="1304"/>
      <point x="1002" y="1439"/>
      <point x="734" y="1439" type="curve" smooth="yes"/>
      <point x="423" y="1439"/>
      <point x="210" y="1210"/>
      <point x="210" y="878" type="curve" smooth="yes"/>
      <point x="210" y="648"/>
      <point x="346" y="519"/>
      <point x="604" y="519" type="curve" smooth="yes"/>
      <point x="778" y="519"/>
      <point x="923" y="589"/>
      <point x="991" y="711" type="curve"/>
      <point x="1011" y="711" type="line"/>
      <point x="906" y="323"/>
      <point x="650" y="108"/>
      <point x="169" y="82" type="curve"/>
    </contour>
    <contour>
      <point x="596" y="609" type="curve" smooth="yes"/>
      <point x="414" y="609"/>
      <point x="307" y="723"/>
      <point x="307" y="916" type="curve" smooth="yes"/>
      <point x="307" y="1162"/>
      <point x="488" y="1349"/>
      <point x="725" y="1349" type="curve" smooth="yes"/>
      <point x="940" y="1349"/>
      <point x="1047" y="1241"/>
      <point x="1047" y="1024" type="curve" smooth="yes"/>
      <point x="1047" y="776"/>
      <point x="866" y="609"/>
    </contour>
  </outline>
</glyph>
<glyph name="colon" format="2">
  <advance width="1200"/>
  <unicode hex="003A"/>
  <outline>
    <contour>
      <point x="680" y="881" type="curve" smooth="yes"/>
      <point x="735" y="881"/>
      <point x="780" y="925"/>
      <point x="780" y="980" type="curve" smooth="yes"/>
      <point x="780" y="1035"/>
      <point x="735" y="1080"/>
      <point x="680" y="1080" type="curve" smooth="yes"/>
      <point x="625" y="1080"/>
      <point x="580" y="1035"/>
      <point x="580" y="980" type="curve" smooth="yes"/>
      <point x="580" y="925"/>
      <point x="625" y="881"/>
    </contour>
    <contour>
      <point x="520" y="-20" type="curve" smooth="yes"/>
      <point x="575" y="-20"/>
      <point x="620" y="24"/>
      <point x="620" y="79" type="curve" smooth="yes"/>
      <point x="620" y="134"/>
      <point x="575" y="179"/>
      <point x="520" y="179" type="curve" smooth="yes"/>
      <point x="465" y="179"/>
      <point x="420" y="134"/>
      <point x="420" y="79" type="curve" smooth="yes"/>
      <point x="420" y="24"/>
      <point x="465" y="-20"/>
    </contour>
  </outline>
</glyph>
<glyph name="semicolon" format="2">
  <advance width="1200"/>
  <unicode hex="003B"/>
  <outline>
    <contour>
      <point x="678" y="881" type="curve" smooth="yes"/>
      <point x="733" y="881"/>
      <point x="778" y="925"/>
      <point x="778" y="980" type="curve" smooth="yes"/>
      <point x="778" y="1035"/>
      <point x="733" y="1080"/>
      <point x="678" y="1080" type="curve" smooth="yes"/>
      <point x="623" y="1080"/>
      <point x="578" y="1035"/>
      <point x="578" y="980" type="curve" smooth="yes"/>
      <point x="578" y="925"/>
      <point x="623" y="881"/>
    </contour>
    <component base="comma"/>
  </outline>
</glyph>
<glyph name="less" format="2">
  <advance width="1200"/>
  <unicode hex="003C"/>
  <outline>
    <contour>
      <point x="974" y="214" type="line"/>
      <point x="992" y="313" type="line"/>
      <point x="238" y="700" type="line"/>
      <point x="240" y="708" type="line"/>
      <point x="1129" y="1093" type="line"/>
      <point x="1149" y="1204" type="line"/>
      <point x="162" y="765" type="line"/>
      <point x="142" y="653" type="line"/>
    </contour>
  </outline>
</glyph>
<glyph name="equal" format="2">
  <advance width="1200"/>
  <unicode hex="003D"/>
  <outline>
    <contour>
      <point x="192" y="914" type="line"/>
      <point x="1144" y="914" type="line"/>
      <point x="1160" y="1004" type="line"/>
      <point x="208" y="1004" type="line"/>
    </contour>
    <contour>
      <point x="104" y="414" type="line"/>
      <point x="1056" y="414" type="line"/>
      <point x="1071" y="504" type="line"/>
      <point x="120" y="504" type="line"/>
    </contour>
  </outline>
</glyph>
<glyph name="greater" format="2">
  <advance width="1200"/>
  <unicode hex="003E"/>
  <outline>
    <contour>
      <point x="114" y="214" type="line"/>
      <point x="1101" y="653" type="line"/>
      <point x="1121" y="765" type="line"/>
      <point x="289" y="1204" type="line"/>
      <point x="271" y="1105" type="line"/>
      <point x="1025" y="718" type="line"/>
      <point x="1023" y="710" type="line"/>
      <point x="134" y="325" type="line"/>
    </contour>
  </outline>
</glyph>
<glyph name="question" format="2">
  <advance width="1200"/>
  <unicode hex="003F"/>
  <outline>
    <contour>
      <point x="472" y="356" type="line"/>
      <point x="568" y="356" type="line"/>
      <point x="594" y="505" type="line" smooth="yes"/>
      <point x="609" y="592"/>
      <point x="677" y="673"/>
      <point x="815" y="778" type="curve" smooth="yes"/>
      <point x="989" y="910"/>
      <point x="1088" y="1000"/>
      <point x="1088" y="1152" type="curve" smooth="yes"/>
      <point x="1088" y="1333"/>
      <point x="955" y="1440"/>
      <point x="731" y="1440" type="curve"/>
      <point x="718" y="1350" type="line"/>
      <point x="891" y="1350"/>
      <point x="992" y="1274"/>
      <point x="992" y="1145" type="curve" smooth="yes"/>
      <point x="992" y="1025"/>
      <point x="910" y="962"/>
      <point x="766" y="846" type="curve" smooth="yes"/>
      <point x="613" y="723"/>
      <point x="524" y="649"/>
      <point x="499" y="509" type="curve" smooth="yes"/>
    </contour>
    <contour>
      <point x="304" y="1189" type="line"/>
      <point x="419" y="1286"/>
      <point x="579" y="1350"/>
      <point x="718" y="1350" type="curve"/>
      <point x="731" y="1440" type="line"/>
      <point x="546" y="1440"/>
      <point x="359" y="1365"/>
      <point x="252" y="1251" type="curve"/>
    </contour>
    <component base="period" xOffset="-38"/>
  </outline>
</glyph>
<glyph name="at" format="2">
  <advance width="1200"/>
  <unicode hex="0040"/>
  <outline>
    <contour>
      <point x="604" y="-243" type="curve" smooth="yes"/>
      <point x="674" y="-243"/>
      <point x="724" y="-236"/>
      <point x="776" y="-218" type="curve"/>
      <point x="792" y="-125" type="line"/>
      <point x="741" y="-142"/>
      <point x="685" y="-149"/>
      <point x="606" y="-149" type="curve" smooth="yes"/>
      <point x="332" y="-149"/>
      <point x="203" y="-5"/>
      <point x="203" y="323" type="curve" smooth="yes"/>
      <point x="203" y="884"/>
      <point x="461" y="1349"/>
      <point x="771" y="1349" type="curve" smooth="yes"/>
      <point x="946" y="1349"/>
      <point x="1037" y="1285"/>
      <point x="1037" y="1049" type="curve" smooth="yes"/>
      <point x="1037" y="994"/>
      <point x="1024" y="911"/>
      <point x="954" y="524" type="curve"/>
      <point x="1050" y="524" type="line"/>
      <point x="1107" y="846"/>
      <point x="1133" y="991"/>
      <point x="1133" y="1068" type="curve" smooth="yes"/>
      <point x="1133" y="1312"/>
      <point x="1019" y="1439"/>
      <point x="801" y="1439" type="curve" smooth="yes"/>
      <point x="404" y="1439"/>
      <point x="107" y="957"/>
      <point x="107" y="317" type="curve" smooth="yes"/>
      <point x="107" y="-72"/>
      <point x="266" y="-243"/>
    </contour>
    <contour>
      <point x="628" y="149" type="curve" smooth="yes"/>
      <point x="775" y="149"/>
      <point x="893" y="251"/>
      <point x="945" y="429" type="curve"/>
      <point x="890" y="361" type="line"/>
      <point x="1006" y="361" type="line"/>
      <point x="943" y="466" type="line"/>
      <point x="915" y="168" type="line"/>
      <point x="987" y="168" type="line"/>
      <point x="1082" y="710" type="line"/>
      <point x="986" y="710" type="line"/>
      <point x="938" y="432"/>
      <point x="790" y="243"/>
      <point x="638" y="243" type="curve" smooth="yes"/>
      <point x="537" y="243"/>
      <point x="479" y="323"/>
      <point x="479" y="462" type="curve" smooth="yes"/>
      <point x="479" y="759"/>
      <point x="710" y="963"/>
      <point x="1053" y="1000" type="curve"/>
      <point x="1062" y="1090" type="line"/>
      <point x="668" y="1050"/>
      <point x="383" y="802"/>
      <point x="383" y="437" type="curve" smooth="yes"/>
      <point x="383" y="256"/>
      <point x="471" y="149"/>
    </contour>
  </outline>
</glyph>
<glyph name="A" format="2">
  <advance width="1200"/>
  <unicode hex="0041"/>
  <anchor x="506" y="0" name="bottom"/>
  <anchor x="989" y="10" name="ogonek"/>
  <anchor x="757" y="1420" name="top"/>
  <outline>
    <contour>
      <point x="-24" y="0" type="line"/>
      <point x="86" y="0" type="line"/>
      <point x="732" y="1333" type="line"/>
      <point x="750" y="1333" type="line"/>
      <point x="822" y="1045"/>
      <point x="879" y="626"/>
      <point x="932" y="0" type="curve"/>
      <point x="1038" y="0" type="line"/>
      <point x="976" y="655"/>
      <point x="910" y="1102"/>
      <point x="829" y="1421" type="curve"/>
      <point x="681" y="1421" type="line"/>
    </contour>
    <contour>
      <point x="220" y="396" type="line"/>
      <point x="940" y="396" type="line"/>
      <point x="957" y="486" type="line"/>
      <point x="237" y="486" type="line"/>
    </contour>
  </outline>
</glyph>
<glyph name="B" format="2">
  <advance width="1200"/>
  <unicode hex="0042"/>
  <anchor x="506" y="0" name="bottom"/>
  <anchor x="757" y="1420" name="top"/>
  <outline>
    <contour>
      <point x="91" y="0" type="line"/>
      <point x="187" y="0" type="line"/>
      <point x="437" y="1420" type="line"/>
      <point x="341" y="1420" type="line"/>
    </contour>
    <contour>
      <point x="265" y="755" type="line"/>
      <point x="697" y="755" type="line" smooth="yes"/>
      <point x="964" y="755"/>
      <point x="1103" y="873"/>
      <point x="1103" y="1101" type="curve" smooth="yes"/>
      <point x="1103" y="1324"/>
      <point x="942" y="1440"/>
      <point x="635" y="1440" type="curve" smooth="yes"/>
      <point x="518" y="1440"/>
      <point x="416" y="1433"/>
      <point x="341" y="1420" type="curve"/>
      <point x="348" y="1330" type="line"/>
      <point x="419" y="1343"/>
      <point x="517" y="1350"/>
      <point x="632" y="1350" type="curve" smooth="yes"/>
      <point x="878" y="1350"/>
      <point x="1007" y="1263"/>
      <point x="1007" y="1098" type="curve" smooth="yes"/>
      <point x="1007" y="899"/>
      <point x="887" y="795"/>
      <point x="660" y="795" type="curve" smooth="yes"/>
      <point x="298" y="795" type="line"/>
    </contour>
    <contour>
      <point x="167" y="0" type="line"/>
      <point x="521" y="0" type="line" smooth="yes"/>
      <point x="891" y="0"/>
      <point x="1084" y="145"/>
      <point x="1084" y="422" type="curve" smooth="yes"/>
      <point x="1084" y="626"/>
      <point x="940" y="747"/>
      <point x="695" y="747" type="curve" smooth="yes"/>
      <point x="255" y="747" type="line"/>
      <point x="256" y="705" type="line"/>
      <point x="648" y="705" type="line" smooth="yes"/>
      <point x="862" y="705"/>
      <point x="988" y="599"/>
      <point x="988" y="418" type="curve" smooth="yes"/>
      <point x="988" y="202"/>
      <point x="835" y="90"/>
      <point x="541" y="90" type="curve" smooth="yes"/>
      <point x="201" y="90" type="line"/>
    </contour>
    <contour>
      <point x="293" y="708" type="line"/>
      <point x="734" y="708" type="line"/>
      <point x="746" y="786" type="line"/>
      <point x="305" y="786" type="line"/>
    </contour>
  </outline>
</glyph>
<glyph name="C" format="2">
  <advance width="1200"/>
  <unicode hex="0043"/>
  <anchor x="586" y="0" name="bottom"/>
  <anchor x="857" y="1420" name="top"/>
  <outline>
    <contour>
      <point x="666" y="-20" type="curve" smooth="yes"/>
      <point x="794" y="-20"/>
      <point x="923" y="0"/>
      <point x="1052" y="42" type="curve"/>
      <point x="1040" y="130" type="line"/>
      <point x="922" y="90"/>
      <point x="807" y="70"/>
      <point x="693" y="70" type="curve" smooth="yes"/>
      <point x="409" y="70"/>
      <point x="219" y="254"/>
      <point x="219" y="530" type="curve" smooth="yes"/>
      <point x="219" y="1022"/>
      <point x="483" y="1350"/>
      <point x="880" y="1350" type="curve" smooth="yes"/>
      <point x="999" y="1350"/>
      <point x="1093" y="1306"/>
      <point x="1180" y="1210" type="curve"/>
      <point x="1253" y="1281" type="line"/>
      <point x="1153" y="1391"/>
      <point x="1040" y="1440"/>
      <point x="889" y="1440" type="curve" smooth="yes"/>
      <point x="431" y="1440"/>
      <point x="125" y="1073"/>
      <point x="125" y="523" type="curve" smooth="yes"/>
      <point x="125" y="197"/>
      <point x="341" y="-20"/>
    </contour>
  </outline>
</glyph>
<glyph name="D" format="2">
  <advance width="1200"/>
  <unicode hex="0044"/>
  <anchor x="506" y="0" name="bottom"/>
  <anchor x="631" y="710" name="center"/>
  <anchor x="717" y="1420" name="top"/>
  <outline>
    <contour>
      <point x="129" y="0" type="line"/>
      <point x="299" y="0" type="line" smooth="yes"/>
      <point x="835" y="0"/>
      <point x="1151" y="316"/>
      <point x="1151" y="853" type="curve" smooth="yes"/>
      <point x="1151" y="1222"/>
      <point x="924" y="1440"/>
      <point x="539" y="1440" type="curve" smooth="yes"/>
      <point x="458" y="1440"/>
      <point x="381" y="1433"/>
      <point x="311" y="1420" type="curve"/>
      <point x="297" y="1330" type="line"/>
      <point x="366" y="1343"/>
      <point x="441" y="1350"/>
      <point x="514" y="1350" type="curve" smooth="yes"/>
      <point x="854" y="1350"/>
      <point x="1055" y="1174"/>
      <point x="1055" y="875" type="curve" smooth="yes"/>
      <point x="1055" y="381"/>
      <point x="777" y="90"/>
      <point x="309" y="90" type="curve" smooth="yes"/>
      <point x="131" y="90" type="line"/>
    </contour>
    <contour>
      <point x="61" y="0" type="line"/>
      <point x="156" y="0" type="line"/>
      <point x="406" y="1420" type="line"/>
      <point x="311" y="1420" type="line"/>
    </contour>
  </outline>
</glyph>
<glyph name="E" format="2">
  <advance width="1200"/>
  <unicode hex="0045"/>
  <guideline x="897" y="-480" angle="80"/>
  <guideline x="718" y="-480" angle="80"/>
  <anchor x="526" y="0" name="bottom"/>
  <anchor x="942" y="10" name="ogonek"/>
  <anchor x="777" y="1420" name="top"/>
  <anchor x="182" y="1420" name="topleft"/>
  <outline>
    <contour>
      <point x="91" y="0" type="line"/>
      <point x="187" y="0" type="line"/>
      <point x="437" y="1420" type="line"/>
      <point x="341" y="1420" type="line"/>
    </contour>
    <contour>
      <point x="91" y="0" type="line"/>
      <point x="982" y="0" type="line"/>
      <point x="997" y="90" type="line"/>
      <point x="107" y="90" type="line"/>
    </contour>
    <contour>
      <point x="216" y="666" type="line"/>
      <point x="920" y="666" type="line"/>
      <point x="936" y="756" type="line"/>
      <point x="233" y="756" type="line"/>
    </contour>
    <contour>
      <point x="325" y="1330" type="line"/>
      <point x="1216" y="1330" type="line"/>
      <point x="1232" y="1420" type="line"/>
      <point x="341" y="1420" type="line"/>
    </contour>
  </outline>
</glyph>
<glyph name="F" format="2">
  <advance width="1200"/>
  <unicode hex="0046"/>
  <guideline x="941" y="-480" angle="80"/>
  <guideline x="761" y="-480" angle="80"/>
  <anchor x="506" y="0" name="bottom"/>
  <anchor x="757" y="1420" name="top"/>
  <outline>
    <contour>
      <point x="111" y="0" type="line"/>
      <point x="207" y="0" type="line"/>
      <point x="457" y="1420" type="line"/>
      <point x="361" y="1420" type="line"/>
    </contour>
    <contour>
      <point x="253" y="606" type="line"/>
      <point x="952" y="606" type="line"/>
      <point x="968" y="696" type="line"/>
      <point x="270" y="696" type="line"/>
    </contour>
    <contour>
      <point x="345" y="1330" type="line"/>
      <point x="1260" y="1330" type="line"/>
      <point x="1276" y="1420" type="line"/>
      <point x="361" y="1420" type="line"/>
    </contour>
  </outline>
</glyph>
<glyph name="G" format="2">
  <advance width="1200"/>
  <unicode hex="0047"/>
  <guideline x="427" y="-460" angle="80"/>
  <anchor x="586" y="0" name="bottom"/>
  <anchor x="857" y="1420" name="top"/>
  <outline>
    <contour>
      <point x="611" y="-20" type="curve" smooth="yes"/>
      <point x="788" y="-20"/>
      <point x="945" y="22"/>
      <point x="1003" y="40" type="curve"/>
      <point x="976" y="130" type="line"/>
      <point x="905" y="108"/>
      <point x="793" y="70"/>
      <point x="657" y="70" type="curve" smooth="yes"/>
      <point x="351" y="70"/>
      <point x="195" y="226"/>
      <point x="195" y="539" type="curve" smooth="yes"/>
      <point x="195" y="1014"/>
      <point x="474" y="1350"/>
      <point x="840" y="1350" type="curve" smooth="yes"/>
      <point x="983" y="1350"/>
      <point x="1076" y="1309"/>
      <point x="1164" y="1207" type="curve"/>
      <point x="1239" y="1272" type="line"/>
      <point x="1158" y="1373"/>
      <point x="1019" y="1440"/>
      <point x="860" y="1440" type="curve" smooth="yes"/>
      <point x="393" y="1440"/>
      <point x="99" y="1050"/>
      <point x="99" y="523" type="curve" smooth="yes"/>
      <point x="99" y="182"/>
      <point x="289" y="-20"/>
    </contour>
    <contour>
      <point x="907" y="40" type="line"/>
      <point x="1003" y="40" type="line"/>
      <point x="1112" y="660" type="line"/>
      <point x="1016" y="660" type="line"/>
    </contour>
    <contour>
      <point x="620" y="570" type="line"/>
      <point x="1073" y="570" type="line"/>
      <point x="1106" y="660" type="line"/>
      <point x="635" y="660" type="line"/>
    </contour>
  </outline>
</glyph>
<glyph name="H" format="2">
  <advance width="1200"/>
  <unicode hex="0048"/>
  <anchor x="506" y="0" name="bottom"/>
  <anchor x="634" y="710" name="center"/>
  <anchor x="757" y="1420" name="top"/>
  <anchor x="177" y="1420" name="topleft"/>
  <outline>
    <contour>
      <point x="847" y="0" type="line"/>
      <point x="943" y="0" type="line"/>
      <point x="1193" y="1420" type="line"/>
      <point x="1097" y="1420" type="line"/>
    </contour>
    <contour>
      <point x="71" y="0" type="line"/>
      <point x="167" y="0" type="line"/>
      <point x="417" y="1420" type="line"/>
      <point x="321" y="1420" type="line"/>
    </contour>
    <contour>
      <point x="230" y="662" type="line"/>
      <point x="1013" y="662" type="line"/>
      <point x="1033" y="752" type="line"/>
      <point x="250" y="752" type="line"/>
    </contour>
  </outline>
</glyph>
<glyph name="I" format="2">
  <advance width="1200"/>
  <unicode hex="0049"/>
  <anchor x="506" y="1" name="bottom"/>
  <anchor x="508" y="10" name="ogonek"/>
  <anchor x="757" y="1421" name="top"/>
  <anchor x="182" y="1420" name="topleft"/>
  <outline>
    <contour>
      <point x="458" y="0" type="line"/>
      <point x="552" y="0" type="line"/>
      <point x="802" y="1420" type="line"/>
      <point x="708" y="1420" type="line"/>
    </contour>
    <contour>
      <point x="99" y="0" type="line"/>
      <point x="914" y="0" type="line"/>
      <point x="929" y="90" type="line"/>
      <point x="114" y="90" type="line"/>
    </contour>
    <contour>
      <point x="334" y="1330" type="line"/>
      <point x="1149" y="1330" type="line"/>
      <point x="1164" y="1420" type="line"/>
      <point x="349" y="1420" type="line"/>
    </contour>
  </outline>
</glyph>
<glyph name="J" format="2">
  <advance width="1200"/>
  <unicode hex="004A"/>
  <anchor x="506" y="0" name="bottom"/>
  <anchor x="957" y="1420" name="top"/>
  <outline>
    <contour>
      <point x="491" y="-20" type="curve" smooth="yes"/>
      <point x="793" y="-20"/>
      <point x="970" y="144"/>
      <point x="1028" y="476" type="curve" smooth="yes"/>
      <point x="1194" y="1420" type="line"/>
      <point x="1098" y="1420" type="line"/>
      <point x="932" y="476" type="line" smooth="yes"/>
      <point x="885" y="205"/>
      <point x="744" y="70"/>
      <point x="507" y="70" type="curve" smooth="yes"/>
      <point x="251" y="70"/>
      <point x="148" y="205"/>
      <point x="196" y="476" type="curve"/>
      <point x="100" y="476" type="line"/>
      <point x="44" y="143"/>
      <point x="170" y="-20"/>
    </contour>
    <contour>
      <point x="630" y="1330" type="line"/>
      <point x="1136" y="1330" type="line"/>
      <point x="1152" y="1420" type="line"/>
      <point x="646" y="1420" type="line"/>
    </contour>
  </outline>
</glyph>
<glyph name="K" format="2">
  <advance width="1200"/>
  <unicode hex="004B"/>
  <anchor x="506" y="0" name="bottom"/>
  <anchor x="757" y="1420" name="top"/>
  <outline>
    <contour>
      <point x="223" y="382" type="line"/>
      <point x="798" y="461"/>
      <point x="1136" y="878"/>
      <point x="1227" y="1420" type="curve"/>
      <point x="1131" y="1420" type="line"/>
      <point x="1046" y="943"/>
      <point x="774" y="557"/>
      <point x="236" y="480" type="curve"/>
    </contour>
    <contour>
      <point x="81" y="0" type="line"/>
      <point x="177" y="0" type="line"/>
      <point x="427" y="1420" type="line"/>
      <point x="331" y="1420" type="line"/>
    </contour>
    <contour>
      <point x="933" y="0" type="line"/>
      <point x="1045" y="0" type="line"/>
      <point x="799" y="677" type="line"/>
      <point x="720" y="612" type="line"/>
    </contour>
  </outline>
</glyph>
<glyph name="L" format="2">
  <advance width="1200"/>
  <unicode hex="004C"/>
  <anchor x="506" y="0" name="bottom"/>
  <anchor x="721" y="710" name="center"/>
  <anchor x="389" y="1420" name="top"/>
  <anchor x="1097" y="1420" name="topright"/>
  <outline>
    <contour>
      <point x="91" y="0" type="line"/>
      <point x="187" y="0" type="line"/>
      <point x="437" y="1420" type="line"/>
      <point x="341" y="1420" type="line"/>
    </contour>
    <contour>
      <point x="91" y="0" type="line"/>
      <point x="984" y="0" type="line"/>
      <point x="1000" y="90" type="line"/>
      <point x="107" y="90" type="line"/>
    </contour>
  </outline>
</glyph>
<glyph name="M" format="2">
  <advance width="1200"/>
  <unicode hex="004D"/>
  <anchor x="506" y="0" name="bottom"/>
  <anchor x="757" y="1420" name="top"/>
  <outline>
    <contour>
      <point x="615" y="660" type="line"/>
      <point x="688" y="660" type="line"/>
      <point x="1084" y="1332" type="line"/>
      <point x="1126" y="1332" type="line"/>
      <point x="1141" y="1420" type="line"/>
      <point x="1036" y="1420" type="line"/>
      <point x="641" y="748" type="line"/>
      <point x="639" y="748" type="line"/>
    </contour>
    <contour>
      <point x="59" y="0" type="line"/>
      <point x="155" y="0" type="line"/>
      <point x="405" y="1420" type="line"/>
      <point x="309" y="1420" type="line"/>
    </contour>
    <contour>
      <point x="568" y="660" type="line"/>
      <point x="642" y="660" type="line"/>
      <point x="640" y="748" type="line"/>
      <point x="637" y="748" type="line"/>
      <point x="468" y="1420" type="line"/>
      <point x="391" y="1420" type="line"/>
      <point x="376" y="1332" type="line"/>
      <point x="400" y="1332" type="line"/>
    </contour>
    <contour>
      <point x="859" y="0" type="line"/>
      <point x="955" y="0" type="line"/>
      <point x="1205" y="1420" type="line"/>
      <point x="1109" y="1420" type="line"/>
    </contour>
  </outline>
</glyph>
<glyph name="N" format="2">
  <advance width="1200"/>
  <unicode hex="004E"/>
  <anchor x="506" y="0" name="bottom"/>
  <anchor x="757" y="1420" name="top"/>
  <outline>
    <contour>
      <point x="778" y="0" type="line"/>
      <point x="874" y="0" type="line"/>
      <point x="889" y="88" type="line"/>
      <point x="847" y="88" type="line"/>
      <point x="487" y="1420" type="line"/>
      <point x="374" y="1420" type="line"/>
      <point x="359" y="1332" type="line"/>
      <point x="418" y="1332" type="line"/>
    </contour>
    <contour>
      <point x="79" y="0" type="line"/>
      <point x="175" y="0" type="line"/>
      <point x="425" y="1420" type="line"/>
      <point x="329" y="1420" type="line"/>
    </contour>
    <contour>
      <point x="839" y="0" type="line"/>
      <point x="935" y="0" type="line"/>
      <point x="1185" y="1420" type="line"/>
      <point x="1089" y="1420" type="line"/>
    </contour>
  </outline>
</glyph>
<glyph name="O" format="2">
  <advance width="1200"/>
  <unicode hex="004F"/>
  <guideline x="927" y="1269" angle="90"/>
  <anchor x="506" y="0" name="bottom"/>
  <anchor x="631" y="710" name="center"/>
  <anchor x="528" y="10" name="ogonek"/>
  <anchor x="757" y="1420" name="top"/>
  <anchor x="198" y="1420" name="topleft"/>
  <anchor x="1328" y="1420" name="topright"/>
  <outline>
    <contour>
      <point x="513" y="-20" type="curve" smooth="yes"/>
      <point x="918" y="-20"/>
      <point x="1157" y="361"/>
      <point x="1157" y="1005" type="curve" smooth="yes"/>
      <point x="1157" y="1278"/>
      <point x="1007" y="1440"/>
      <point x="752" y="1440" type="curve" smooth="yes"/>
      <point x="347" y="1440"/>
      <point x="107" y="1063"/>
      <point x="107" y="426" type="curve" smooth="yes"/>
      <point x="107" y="146"/>
      <point x="258" y="-20"/>
    </contour>
    <contour>
      <point x="522" y="70" type="curve" smooth="yes"/>
      <point x="320" y="70"/>
      <point x="201" y="208"/>
      <point x="201" y="441" type="curve" smooth="yes"/>
      <point x="201" y="1012"/>
      <point x="404" y="1350"/>
      <point x="748" y="1350" type="curve" smooth="yes"/>
      <point x="940" y="1350"/>
      <point x="1053" y="1216"/>
      <point x="1053" y="990" type="curve" smooth="yes"/>
      <point x="1053" y="412"/>
      <point x="856" y="70"/>
    </contour>
  </outline>
</glyph>
<glyph name="P" format="2">
  <advance width="1200"/>
  <unicode hex="0050"/>
  <anchor x="506" y="0" name="bottom"/>
  <anchor x="707" y="1420" name="top"/>
  <outline>
    <contour>
      <point x="91" y="0" type="line"/>
      <point x="187" y="0" type="line"/>
      <point x="437" y="1420" type="line"/>
      <point x="341" y="1420" type="line"/>
    </contour>
    <contour>
      <point x="201" y="410" type="line"/>
      <point x="243" y="410" type="line" smooth="yes"/>
      <point x="856" y="410"/>
      <point x="1175" y="619"/>
      <point x="1175" y="1021" type="curve" smooth="yes"/>
      <point x="1175" y="1296"/>
      <point x="990" y="1440"/>
      <point x="635" y="1440" type="curve" smooth="yes"/>
      <point x="517" y="1440"/>
      <point x="415" y="1433"/>
      <point x="341" y="1420" type="curve"/>
      <point x="348" y="1330" type="line"/>
      <point x="415" y="1343"/>
      <point x="506" y="1350"/>
      <point x="612" y="1350" type="curve" smooth="yes"/>
      <point x="919" y="1350"/>
      <point x="1079" y="1235"/>
      <point x="1079" y="1018" type="curve" smooth="yes"/>
      <point x="1079" y="678"/>
      <point x="804" y="500"/>
      <point x="276" y="500" type="curve" smooth="yes"/>
      <point x="214" y="500" type="line"/>
    </contour>
  </outline>
</glyph>
<glyph name="Q" format="2">
  <advance width="1200"/>
  <unicode hex="0051"/>
  <anchor x="438" y="-388" name="bottom"/>
  <anchor x="757" y="1420" name="top"/>
  <outline>
    <contour>
      <point x="816" y="-460" type="curve" smooth="yes"/>
      <point x="839" y="-460" type="line"/>
      <point x="856" y="-372" type="line"/>
      <point x="821" y="-372" type="line" smooth="yes"/>
      <point x="629" y="-372"/>
      <point x="537" y="-244"/>
      <point x="576" y="-22" type="curve" smooth="yes"/>
      <point x="587" y="42" type="line"/>
      <point x="497" y="42" type="line"/>
      <point x="486" y="-20" type="line" smooth="yes"/>
      <point x="437" y="-299"/>
      <point x="561" y="-460"/>
    </contour>
    <component base="O"/>
  </outline>
</glyph>
<glyph name="R" format="2">
  <advance width="1200"/>
  <unicode hex="0052"/>
  <anchor x="506" y="0" name="bottom"/>
  <anchor x="707" y="1420" name="top"/>
  <outline>
    <contour>
      <point x="211" y="500" type="line"/>
      <point x="253" y="500" type="line" smooth="yes"/>
      <point x="846" y="500"/>
      <point x="1155" y="686"/>
      <point x="1155" y="1041" type="curve" smooth="yes"/>
      <point x="1155" y="1304"/>
      <point x="970" y="1440"/>
      <point x="615" y="1440" type="curve" smooth="yes"/>
      <point x="497" y="1440"/>
      <point x="395" y="1433"/>
      <point x="321" y="1420" type="curve"/>
      <point x="328" y="1330" type="line"/>
      <point x="395" y="1343"/>
      <point x="486" y="1350"/>
      <point x="592" y="1350" type="curve" smooth="yes"/>
      <point x="899" y="1350"/>
      <point x="1059" y="1242"/>
      <point x="1059" y="1038" type="curve" smooth="yes"/>
      <point x="1059" y="744"/>
      <point x="794" y="590"/>
      <point x="286" y="590" type="curve" smooth="yes"/>
      <point x="224" y="590" type="line"/>
    </contour>
    <contour>
      <point x="71" y="0" type="line"/>
      <point x="167" y="0" type="line"/>
      <point x="417" y="1420" type="line"/>
      <point x="321" y="1420" type="line"/>
    </contour>
    <contour>
      <point x="920" y="0" type="line"/>
      <point x="1029" y="0" type="line"/>
      <point x="809" y="610" type="line"/>
      <point x="704" y="610" type="line"/>
    </contour>
  </outline>
</glyph>
<glyph name="S" format="2">
  <advance width="1200"/>
  <unicode hex="0053"/>
  <anchor x="506" y="0" name="bottom"/>
  <anchor x="757" y="1420" name="top"/>
  <outline>
    <contour>
      <point x="486" y="-20" type="curve" smooth="yes"/>
      <point x="813" y="-20"/>
      <point x="1007" y="114"/>
      <point x="1007" y="342" type="curve" smooth="yes"/>
      <point x="1007" y="459"/>
      <point x="923" y="543"/>
      <point x="823" y="630" type="curve" smooth="yes"/>
      <point x="549" y="864" type="line" smooth="yes"/>
      <point x="466" y="936"/>
      <point x="400" y="1013"/>
      <point x="400" y="1114" type="curve" smooth="yes"/>
      <point x="400" y="1262"/>
      <point x="521" y="1350"/>
      <point x="727" y="1350" type="curve" smooth="yes"/>
      <point x="859" y="1350"/>
      <point x="982" y="1309"/>
      <point x="1086" y="1201" type="curve"/>
      <point x="1157" y="1271" type="line"/>
      <point x="1056" y="1382"/>
      <point x="913" y="1440"/>
      <point x="739" y="1440" type="curve" smooth="yes"/>
      <point x="466" y="1440"/>
      <point x="304" y="1313"/>
      <point x="304" y="1097" type="curve" smooth="yes"/>
      <point x="304" y="981"/>
      <point x="373" y="891"/>
      <point x="462" y="814" type="curve" smooth="yes"/>
      <point x="776" y="546" type="line" smooth="yes"/>
      <point x="850" y="482"/>
      <point x="911" y="412"/>
      <point x="911" y="319" type="curve" smooth="yes"/>
      <point x="911" y="162"/>
      <point x="760" y="70"/>
      <point x="505" y="70" type="curve" smooth="yes"/>
      <point x="377" y="70"/>
      <point x="242" y="101"/>
      <point x="108" y="160" type="curve"/>
      <point x="71" y="64" type="line"/>
      <point x="183" y="9"/>
      <point x="325" y="-20"/>
    </contour>
  </outline>
</glyph>
<glyph name="T" format="2">
  <advance width="1200"/>
  <unicode hex="0054"/>
  <anchor x="506" y="0" name="bottom"/>
  <anchor x="631" y="710" name="center"/>
  <anchor x="757" y="1420" name="top"/>
  <outline>
    <contour>
      <point x="458" y="0" type="line"/>
      <point x="554" y="0" type="line"/>
      <point x="805" y="1420" type="line"/>
      <point x="709" y="1420" type="line"/>
    </contour>
    <contour>
      <point x="246" y="1330" type="line"/>
      <point x="1237" y="1330" type="line"/>
      <point x="1253" y="1420" type="line"/>
      <point x="261" y="1420" type="line"/>
    </contour>
  </outline>
</glyph>
<glyph name="U" format="2">
  <advance width="1200"/>
  <unicode hex="0055"/>
  <anchor x="506" y="0" name="bottom"/>
  <anchor x="973" y="10" name="ogonek"/>
  <anchor x="757" y="1420" name="top"/>
  <anchor x="1372" y="1420" name="topright"/>
  <outline>
    <contour>
      <point x="524" y="-20" type="curve" smooth="yes"/>
      <point x="796" y="-20"/>
      <point x="968" y="143"/>
      <point x="1023" y="456" type="curve" smooth="yes"/>
      <point x="1193" y="1420" type="line"/>
      <point x="1097" y="1420" type="line"/>
      <point x="927" y="456" type="line" smooth="yes"/>
      <point x="882" y="202"/>
      <point x="746" y="70"/>
      <point x="536" y="70" type="curve" smooth="yes"/>
      <point x="302" y="70"/>
      <point x="202" y="203"/>
      <point x="247" y="456" type="curve" smooth="yes"/>
      <point x="417" y="1420" type="line"/>
      <point x="321" y="1420" type="line"/>
      <point x="151" y="456" type="line" smooth="yes"/>
      <point x="96" y="143"/>
      <point x="225" y="-20"/>
    </contour>
  </outline>
</glyph>
<glyph name="V" format="2">
  <advance width="1200"/>
  <unicode hex="0056"/>
  <anchor x="506" y="0" name="bottom"/>
  <anchor x="757" y="1420" name="top"/>
  <outline>
    <contour>
      <point x="397" y="0" type="line"/>
      <point x="549" y="0" type="line"/>
      <point x="887" y="388"/>
      <point x="1127" y="866"/>
      <point x="1288" y="1420" type="curve"/>
      <point x="1192" y="1420" type="line"/>
      <point x="1020" y="876"/>
      <point x="795" y="433"/>
      <point x="502" y="77" type="curve"/>
      <point x="484" y="77" type="line"/>
      <point x="328" y="1432" type="line"/>
      <point x="226" y="1420" type="line"/>
    </contour>
  </outline>
</glyph>
<glyph name="W" format="2">
  <advance width="1200"/>
  <unicode hex="0057"/>
  <anchor x="506" y="0" name="bottom"/>
  <anchor x="717" y="1420" name="top"/>
  <outline>
    <contour>
      <point x="579" y="0" type="line"/>
      <point x="754" y="0" type="line"/>
      <point x="991" y="383"/>
      <point x="1233" y="871"/>
      <point x="1311" y="1420" type="curve"/>
      <point x="1215" y="1420" type="line"/>
      <point x="1134" y="886"/>
      <point x="890" y="433"/>
      <point x="694" y="77" type="curve"/>
      <point x="676" y="77" type="line"/>
      <point x="715" y="1067" type="line"/>
      <point x="613" y="1060" type="line"/>
      <point x="601" y="505" type="line"/>
      <point x="602" y="505" type="line"/>
    </contour>
    <contour>
      <point x="177" y="0" type="line"/>
      <point x="359" y="0" type="line"/>
      <point x="652" y="596" type="line"/>
      <point x="516" y="466" type="line"/>
      <point x="669" y="466" type="line"/>
      <point x="624" y="737" type="line"/>
      <point x="292" y="77" type="line"/>
      <point x="274" y="77" type="line"/>
      <point x="303" y="1429" type="line"/>
      <point x="201" y="1420" type="line"/>
    </contour>
  </outline>
</glyph>
<glyph name="X" format="2">
  <advance width="1200"/>
  <unicode hex="0058"/>
  <anchor x="506" y="0" name="bottom"/>
  <anchor x="757" y="1420" name="top"/>
  <outline>
    <contour>
      <point x="115" y="-20" type="line"/>
      <point x="639" y="643" type="line"/>
      <point x="1174" y="1370" type="line"/>
      <point x="1103" y="1430" type="line"/>
      <point x="604" y="746" type="line"/>
      <point x="44" y="50" type="line"/>
    </contour>
    <contour>
      <point x="810" y="-20" type="curve" smooth="yes"/>
      <point x="881" y="-20"/>
      <point x="954" y="-4"/>
      <point x="1025" y="44" type="curve"/>
      <point x="988" y="128" type="line"/>
      <point x="935" y="91"/>
      <point x="880" y="72"/>
      <point x="829" y="72" type="curve" smooth="yes"/>
      <point x="734" y="72"/>
      <point x="684" y="139"/>
      <point x="682" y="268" type="curve" smooth="yes"/>
      <point x="664" y="1191" type="line" smooth="yes"/>
      <point x="661" y="1354"/>
      <point x="589" y="1440"/>
      <point x="455" y="1440" type="curve" smooth="yes"/>
      <point x="397" y="1440"/>
      <point x="323" y="1427"/>
      <point x="240" y="1386" type="curve"/>
      <point x="272" y="1304" type="line"/>
      <point x="325" y="1333"/>
      <point x="381" y="1348"/>
      <point x="436" y="1348" type="curve" smooth="yes"/>
      <point x="521" y="1348"/>
      <point x="566" y="1288"/>
      <point x="568" y="1172" type="curve" smooth="yes"/>
      <point x="586" y="249" type="line" smooth="yes"/>
      <point x="589" y="72"/>
      <point x="666" y="-20"/>
    </contour>
  </outline>
</glyph>
<glyph name="Y" format="2">
  <advance width="1200"/>
  <unicode hex="0059"/>
  <anchor x="506" y="0" name="bottom"/>
  <anchor x="757" y="1420" name="top"/>
  <anchor x="158" y="1420" name="topleft"/>
  <outline>
    <contour>
      <point x="458" y="0" type="line"/>
      <point x="554" y="0" type="line"/>
      <point x="659" y="594" type="line"/>
      <point x="563" y="594" type="line"/>
    </contour>
    <contour>
      <point x="563" y="475" type="line"/>
      <point x="596" y="458" type="line"/>
      <point x="906" y="771"/>
      <point x="1137" y="1036"/>
      <point x="1308" y="1420" type="curve"/>
      <point x="1212" y="1420" type="line"/>
      <point x="1049" y="1091"/>
      <point x="871" y="873"/>
      <point x="626" y="606" type="curve"/>
      <point x="608" y="606" type="line"/>
      <point x="306" y="1435" type="line"/>
      <point x="206" y="1418" type="line"/>
    </contour>
  </outline>
</glyph>
<glyph name="Z" format="2">
  <advance width="1200"/>
  <unicode hex="005A"/>
  <anchor x="506" y="0" name="bottom"/>
  <anchor x="632" y="710" name="center"/>
  <anchor x="737" y="1420" name="top"/>
  <outline>
    <contour>
      <point x="190" y="58" type="line"/>
      <point x="1187" y="1330" type="line"/>
      <point x="1093" y="1362" type="line"/>
      <point x="96" y="90" type="line"/>
    </contour>
    <contour>
      <point x="138" y="0" type="line"/>
      <point x="942" y="0" type="line"/>
      <point x="958" y="90" type="line"/>
      <point x="191" y="90" type="line"/>
      <point x="96" y="90" type="line"/>
    </contour>
    <contour>
      <point x="347" y="1330" type="line"/>
      <point x="1120" y="1330" type="line"/>
      <point x="1187" y="1330" type="line"/>
      <point x="1144" y="1420" type="line"/>
      <point x="362" y="1420" type="line"/>
    </contour>
  </outline>
</glyph>
<glyph name="bracketleft" format="2">
  <advance width="1200"/>
  <unicode hex="005B"/>
  <outline>
    <contour>
      <point x="265" y="-214" type="line"/>
      <point x="361" y="-214" type="line"/>
      <point x="687" y="1634" type="line"/>
      <point x="591" y="1634" type="line"/>
    </contour>
    <contour>
      <point x="339" y="-214" type="line"/>
      <point x="843" y="-214" type="line"/>
      <point x="859" y="-124" type="line"/>
      <point x="355" y="-124" type="line"/>
    </contour>
    <contour>
      <point x="649" y="1544" type="line"/>
      <point x="1153" y="1544" type="line"/>
      <point x="1169" y="1634" type="line"/>
      <point x="665" y="1634" type="line"/>
    </contour>
  </outline>
</glyph>
<glyph name="backslash" format="2">
  <advance width="1200"/>
  <unicode hex="005C"/>
  <outline>
    <contour>
      <point x="809" y="-190" type="line"/>
      <point x="905" y="-190" type="line"/>
      <point x="351" y="1610" type="line"/>
      <point x="255" y="1610" type="line"/>
    </contour>
  </outline>
</glyph>
<glyph name="bracketright" format="2">
  <advance width="1200"/>
  <unicode hex="005D"/>
  <outline>
    <contour>
      <point x="577" y="-214" type="line"/>
      <point x="673" y="-214" type="line"/>
      <point x="999" y="1634" type="line"/>
      <point x="903" y="1634" type="line"/>
    </contour>
    <contour>
      <point x="95" y="-214" type="line"/>
      <point x="599" y="-214" type="line"/>
      <point x="615" y="-124" type="line"/>
      <point x="111" y="-124" type="line"/>
    </contour>
    <contour>
      <point x="405" y="1544" type="line"/>
      <point x="909" y="1544" type="line"/>
      <point x="925" y="1634" type="line"/>
      <point x="421" y="1634" type="line"/>
    </contour>
  </outline>
</glyph>
<glyph name="asciicircum" format="2">
  <advance width="1200"/>
  <unicode hex="005E"/>
  <outline>
    <contour>
      <point x="280" y="820" type="line"/>
      <point x="386" y="820" type="line"/>
      <point x="744" y="1340" type="line"/>
      <point x="752" y="1340" type="line"/>
      <point x="926" y="820" type="line"/>
      <point x="1022" y="820" type="line"/>
      <point x="818" y="1420" type="line"/>
      <point x="696" y="1420" type="line"/>
    </contour>
  </outline>
</glyph>
<glyph name="underscore" format="2">
  <advance width="1200"/>
  <unicode hex="005F"/>
  <outline>
    <contour>
      <point x="-9" y="-90" type="line"/>
      <point x="991" y="-90" type="line"/>
      <point x="1007" y="0" type="line"/>
      <point x="7" y="0" type="line"/>
    </contour>
  </outline>
</glyph>
<glyph name="grave" format="2">
  <advance width="1200"/>
  <unicode hex="0060"/>
  <outline>
    <contour>
      <point x="770" y="1068" type="line"/>
      <point x="876" y="1068" type="line"/>
      <point x="609" y="1628" type="line"/>
      <point x="505" y="1628" type="line"/>
    </contour>
  </outline>
</glyph>
<glyph name="a" format="2">
  <advance width="1200"/>
  <unicode hex="0061"/>
  <anchor x="506" y="0" name="bottom"/>
  <anchor x="982" y="10" name="ogonek"/>
  <anchor x="723" y="1060" name="top"/>
  <outline>
    <contour>
      <point x="1031" y="1070" type="line" smooth="yes"/>
      <point x="478" y="1070"/>
      <point x="68" y="758"/>
      <point x="68" y="277" type="curve" smooth="yes"/>
      <point x="68" y="88"/>
      <point x="178" y="-21"/>
      <point x="372" y="-21" type="curve" smooth="yes"/>
      <point x="595" y="-21"/>
      <point x="771" y="125"/>
      <point x="852" y="382" type="curve"/>
      <point x="799" y="284" type="line"/>
      <point x="895" y="284" type="line"/>
      <point x="843" y="406" type="line"/>
      <point x="782" y="-10" type="line"/>
      <point x="1042" y="0" type="line"/>
      <point x="1055" y="82" type="line"/>
      <point x="858" y="82" type="line"/>
      <point x="866" y="32" type="line"/>
      <point x="1049" y="1070" type="line"/>
    </contour>
    <contour>
      <point x="387" y="71" type="curve" smooth="yes"/>
      <point x="247" y="71"/>
      <point x="164" y="148"/>
      <point x="164" y="282" type="curve" smooth="yes"/>
      <point x="164" y="677"/>
      <point x="502" y="958"/>
      <point x="1023" y="978" type="curve"/>
      <point x="940" y="997" type="line"/>
      <point x="875" y="627" type="line" smooth="yes"/>
      <point x="813" y="272"/>
      <point x="622" y="71"/>
    </contour>
  </outline>
</glyph>
<glyph name="b" format="2">
  <advance width="1200"/>
  <unicode hex="0062"/>
  <anchor x="506" y="0" name="bottom"/>
  <anchor x="425" y="1420" name="top"/>
  <outline>
    <contour>
      <point x="460" y="1514" type="line"/>
      <point x="146" y="1500" type="line"/>
      <point x="132" y="1418" type="line"/>
      <point x="424" y="1418" type="line"/>
      <point x="353" y="1456" type="line"/>
      <point x="96" y="1" type="line"/>
      <point x="192" y="0" type="line"/>
    </contour>
    <contour>
      <point x="312" y="-20" type="curve" smooth="yes"/>
      <point x="761" y="-20"/>
      <point x="1099" y="307"/>
      <point x="1099" y="740" type="curve" smooth="yes"/>
      <point x="1099" y="957"/>
      <point x="984" y="1080"/>
      <point x="785" y="1080" type="curve" smooth="yes"/>
      <point x="555" y="1080"/>
      <point x="379" y="931"/>
      <point x="317" y="673" type="curve"/>
      <point x="369" y="749" type="line"/>
      <point x="287" y="749" type="line"/>
      <point x="248" y="318" type="line"/>
      <point x="326" y="788"/>
      <point x="553" y="988"/>
      <point x="755" y="988" type="curve" smooth="yes"/>
      <point x="912" y="988"/>
      <point x="1003" y="894"/>
      <point x="1003" y="730" type="curve" smooth="yes"/>
      <point x="1003" y="355"/>
      <point x="715" y="72"/>
      <point x="334" y="72" type="curve" smooth="yes"/>
      <point x="264" y="72"/>
      <point x="204" y="82"/>
      <point x="175" y="97" type="curve"/>
      <point x="96" y="1" type="line"/>
      <point x="168" y="-12"/>
      <point x="240" y="-20"/>
    </contour>
  </outline>
</glyph>
<glyph name="c" format="2">
  <advance width="1200"/>
  <unicode hex="0063"/>
  <anchor x="576" y="0" name="bottom"/>
  <anchor x="693" y="1060" name="top"/>
  <outline>
    <contour>
      <point x="549" y="72" type="curve" smooth="yes"/>
      <point x="352" y="72"/>
      <point x="235" y="194"/>
      <point x="233" y="401" type="curve" smooth="yes"/>
      <point x="234" y="755"/>
      <point x="428" y="988"/>
      <point x="722" y="988" type="curve" smooth="yes"/>
      <point x="877" y="988"/>
      <point x="984" y="935"/>
      <point x="1037" y="802" type="curve"/>
      <point x="1114" y="860" type="line"/>
      <point x="1054" y="1005"/>
      <point x="923" y="1080"/>
      <point x="730" y="1080" type="curve" smooth="yes"/>
      <point x="372" y="1080"/>
      <point x="137" y="806"/>
      <point x="137" y="389" type="curve" smooth="yes"/>
      <point x="137" y="132"/>
      <point x="283" y="-20"/>
      <point x="530" y="-20" type="curve" smooth="yes"/>
      <point x="702" y="-20"/>
      <point x="872" y="39"/>
      <point x="1001" y="129" type="curve"/>
      <point x="963" y="209" type="line"/>
      <point x="840" y="126"/>
      <point x="689" y="72"/>
    </contour>
  </outline>
</glyph>
<glyph name="d" format="2">
  <advance width="1200"/>
  <unicode hex="0064"/>
  <anchor x="506" y="0" name="bottom"/>
  <anchor x="568" y="532" name="center"/>
  <anchor x="1045" y="1500" name="top"/>
  <anchor x="1219" y="1062" name="topright"/>
  <outline>
    <contour>
      <point x="384" y="-21" type="curve" smooth="yes"/>
      <point x="608" y="-21"/>
      <point x="783" y="114"/>
      <point x="864" y="352" type="curve"/>
      <point x="803" y="284" type="line"/>
      <point x="897" y="284" type="line"/>
      <point x="916" y="709" type="line"/>
      <point x="835" y="287"/>
      <point x="674" y="71"/>
      <point x="399" y="71" type="curve" smooth="yes"/>
      <point x="252" y="71"/>
      <point x="166" y="148"/>
      <point x="166" y="282" type="curve" smooth="yes"/>
      <point x="166" y="677"/>
      <point x="519" y="958"/>
      <point x="1051" y="978" type="curve"/>
      <point x="1067" y="1070" type="line"/>
      <point x="1059" y="1070" type="line" smooth="yes"/>
      <point x="496" y="1070"/>
      <point x="70" y="758"/>
      <point x="70" y="277" type="curve" smooth="yes"/>
      <point x="70" y="88"/>
      <point x="184" y="-21"/>
    </contour>
    <contour>
      <point x="1054" y="-10" type="curve" smooth="yes"/>
      <point x="1105" y="-10" type="line"/>
      <point x="1121" y="82" type="line"/>
      <point x="1059" y="82" type="line" smooth="yes"/>
      <point x="949" y="82"/>
      <point x="912" y="145"/>
      <point x="934" y="269" type="curve" smooth="yes"/>
      <point x="1106" y="1247" type="line" smooth="yes"/>
      <point x="1138" y="1431"/>
      <point x="1082" y="1521"/>
      <point x="909" y="1521" type="curve" smooth="yes"/>
      <point x="868" y="1521"/>
      <point x="827" y="1517"/>
      <point x="787" y="1505" type="curve"/>
      <point x="798" y="1418" type="line"/>
      <point x="834" y="1426"/>
      <point x="871" y="1429"/>
      <point x="907" y="1429" type="curve" smooth="yes"/>
      <point x="1006" y="1429"/>
      <point x="1030" y="1367"/>
      <point x="1007" y="1237" type="curve" smooth="yes"/>
      <point x="912" y="689" type="line"/>
      <point x="853" y="290" type="line"/>
      <point x="819" y="111"/>
      <point x="849" y="-10"/>
    </contour>
  </outline>
</glyph>
<glyph name="e" format="2">
  <advance width="1200"/>
  <unicode hex="0065"/>
  <anchor x="511" y="0" name="bottom"/>
  <anchor x="980" y="10" name="ogonek"/>
  <anchor x="698" y="1060" name="top"/>
  <outline>
    <contour>
      <point x="604" y="72" type="curve" smooth="yes"/>
      <point x="394" y="72"/>
      <point x="269" y="202"/>
      <point x="268" y="421" type="curve" smooth="yes"/>
      <point x="269" y="777"/>
      <point x="444" y="988"/>
      <point x="737" y="988" type="curve" smooth="yes"/>
      <point x="893" y="988"/>
      <point x="982" y="916"/>
      <point x="982" y="797" type="curve" smooth="yes"/>
      <point x="982" y="596"/>
      <point x="719" y="498"/>
      <point x="240" y="491" type="curve"/>
      <point x="261" y="401" type="line"/>
      <point x="775" y="410"/>
      <point x="1078" y="538"/>
      <point x="1078" y="800" type="curve" smooth="yes"/>
      <point x="1078" y="976"/>
      <point x="954" y="1080"/>
      <point x="745" y="1080" type="curve" smooth="yes"/>
      <point x="385" y="1080"/>
      <point x="172" y="834"/>
      <point x="172" y="419" type="curve" smooth="yes"/>
      <point x="172" y="143"/>
      <point x="329" y="-20"/>
      <point x="595" y="-20" type="curve" smooth="yes"/>
      <point x="725" y="-20"/>
      <point x="874" y="24"/>
      <point x="999" y="98" type="curve"/>
      <point x="964" y="175" type="line"/>
      <point x="846" y="110"/>
      <point x="714" y="72"/>
    </contour>
  </outline>
</glyph>
<glyph name="g" format="2">
  <advance width="1200"/>
  <unicode hex="0067"/>
  <anchor x="438" y="-388" name="bottom"/>
  <anchor x="693" y="1060" name="top"/>
  <outline>
    <contour>
      <point x="41" y="-480" type="line"/>
      <point x="221" y="-472" type="line" smooth="yes"/>
      <point x="712" y="-450"/>
      <point x="873" y="-174"/>
      <point x="939" y="201" type="curve" smooth="yes"/>
      <point x="1093" y="1070" type="line"/>
      <point x="1085" y="1070" type="line"/>
      <point x="988" y="1021" type="line"/>
      <point x="838" y="169" type="line" smooth="yes"/>
      <point x="791" y="-96"/>
      <point x="646" y="-361"/>
      <point x="241" y="-379" type="curve" smooth="yes"/>
      <point x="37" y="-388" type="line"/>
    </contour>
    <contour>
      <point x="1061" y="978" type="curve"/>
      <point x="1093" y="1070" type="line"/>
      <point x="1074" y="1070" type="line" smooth="yes"/>
      <point x="514" y="1070"/>
      <point x="91" y="758"/>
      <point x="91" y="277" type="curve" smooth="yes"/>
      <point x="91" y="81"/>
      <point x="190" y="-21"/>
      <point x="380" y="-21" type="curve" smooth="yes"/>
      <point x="623" y="-21"/>
      <point x="786" y="113"/>
      <point x="861" y="349" type="curve"/>
      <point x="813" y="301" type="line"/>
      <point x="899" y="301" type="line"/>
      <point x="956" y="693" type="line"/>
      <point x="945" y="777" type="line"/>
      <point x="937" y="737" type="line" smooth="yes"/>
      <point x="860" y="350"/>
      <point x="667" y="71"/>
      <point x="395" y="71" type="curve" smooth="yes"/>
      <point x="258" y="71"/>
      <point x="187" y="147"/>
      <point x="187" y="292" type="curve" smooth="yes"/>
      <point x="187" y="670"/>
      <point x="570" y="959"/>
    </contour>
  </outline>
</glyph>
<glyph name="h" format="2">
  <advance width="1200"/>
  <unicode hex="0068"/>
  <anchor x="506" y="0" name="bottom"/>
  <anchor x="689" y="784" name="center"/>
  <anchor x="435" y="1500" name="top"/>
  <outline>
    <contour>
      <point x="818" y="0" type="line"/>
      <point x="914" y="0" type="line"/>
      <point x="1037" y="697" type="line" smooth="yes"/>
      <point x="1081" y="948"/>
      <point x="984" y="1080"/>
      <point x="747" y="1080" type="curve" smooth="yes"/>
      <point x="538" y="1080"/>
      <point x="400" y="960"/>
      <point x="341" y="749" type="curve"/>
      <point x="302" y="749" type="line"/>
      <point x="251" y="320" type="line"/>
      <point x="332" y="819"/>
      <point x="513" y="988"/>
      <point x="727" y="988" type="curve" smooth="yes"/>
      <point x="910" y="988"/>
      <point x="975" y="893"/>
      <point x="942" y="705" type="curve" smooth="yes"/>
    </contour>
    <contour>
      <point x="99" y="0" type="line"/>
      <point x="195" y="0" type="line"/>
      <point x="462" y="1514" type="line"/>
      <point x="148" y="1500" type="line"/>
      <point x="133" y="1418" type="line"/>
      <point x="408" y="1418" type="line"/>
      <point x="359" y="1474" type="line"/>
    </contour>
  </outline>
</glyph>
<glyph name="i" format="2">
  <advance width="1200"/>
  <unicode hex="0069"/>
  <anchor x="488" y="0" name="bottom"/>
  <anchor x="693" y="1060" name="top"/>
  <outline>
    <contour>
      <point x="773" y="1323" type="curve" smooth="yes"/>
      <point x="828" y="1323"/>
      <point x="873" y="1367"/>
      <point x="873" y="1422" type="curve" smooth="yes"/>
      <point x="873" y="1477"/>
      <point x="828" y="1522"/>
      <point x="773" y="1522" type="curve" smooth="yes"/>
      <point x="718" y="1522"/>
      <point x="673" y="1477"/>
      <point x="673" y="1422" type="curve" smooth="yes"/>
      <point x="673" y="1367"/>
      <point x="718" y="1323"/>
    </contour>
    <contour>
      <point x="1014" y="137" type="line"/>
      <point x="926" y="90"/>
      <point x="873" y="72"/>
      <point x="789" y="72" type="curve" smooth="yes"/>
      <point x="630" y="72"/>
      <point x="550" y="158"/>
      <point x="561" y="323" type="curve" smooth="yes"/>
      <point x="570" y="462"/>
      <point x="646" y="564"/>
      <point x="680" y="707" type="curve" smooth="yes"/>
      <point x="740" y="950"/>
      <point x="636" y="1081"/>
      <point x="410" y="1081" type="curve" smooth="yes"/>
      <point x="331" y="1081"/>
      <point x="252" y="1075"/>
      <point x="174" y="1053" type="curve"/>
      <point x="195" y="966" type="line"/>
      <point x="256" y="982"/>
      <point x="317" y="989"/>
      <point x="378" y="989" type="curve" smooth="yes"/>
      <point x="555" y="989"/>
      <point x="633" y="899"/>
      <point x="589" y="727" type="curve" smooth="yes"/>
      <point x="558" y="601"/>
      <point x="474" y="463"/>
      <point x="465" y="314" type="curve" smooth="yes"/>
      <point x="451" y="95"/>
      <point x="565" y="-20"/>
      <point x="790" y="-20" type="curve" smooth="yes"/>
      <point x="895" y="-20"/>
      <point x="972" y="17"/>
      <point x="1045" y="64" type="curve"/>
    </contour>
  </outline>
</glyph>
<glyph name="j" format="2">
  <advance width="1200"/>
  <unicode hex="006A"/>
  <anchor x="438" y="-388" name="bottom"/>
  <anchor x="984" y="1480" name="top"/>
  <outline>
    <contour>
      <point x="30" y="-480" type="line"/>
      <point x="240" y="-469" type="line" smooth="yes"/>
      <point x="549" y="-453"/>
      <point x="722" y="-267"/>
      <point x="788" y="104" type="curve" smooth="yes"/>
      <point x="957" y="1060" type="line"/>
      <point x="861" y="1060" type="line"/>
      <point x="691" y="102" type="line" smooth="yes"/>
      <point x="637" y="-202"/>
      <point x="498" y="-356"/>
      <point x="246" y="-373" type="curve" smooth="yes"/>
      <point x="26" y="-388" type="line"/>
    </contour>
    <contour>
      <point x="284" y="970" type="line"/>
      <point x="869" y="970" type="line"/>
      <point x="869" y="1060" type="line"/>
      <point x="300" y="1060" type="line"/>
    </contour>
    <contour>
      <point x="958" y="1323" type="curve" smooth="yes"/>
      <point x="1013" y="1323"/>
      <point x="1058" y="1367"/>
      <point x="1058" y="1422" type="curve" smooth="yes"/>
      <point x="1058" y="1477"/>
      <point x="1013" y="1522"/>
      <point x="958" y="1522" type="curve" smooth="yes"/>
      <point x="903" y="1522"/>
      <point x="858" y="1477"/>
      <point x="858" y="1422" type="curve" smooth="yes"/>
      <point x="858" y="1367"/>
      <point x="903" y="1323"/>
    </contour>
  </outline>
</glyph>
<glyph name="k" format="2">
  <advance width="1200"/>
  <unicode hex="006B"/>
  <anchor x="600" y="0" name="bottom"/>
  <anchor x="455" y="1500" name="top"/>
  <outline>
    <contour>
      <point x="976" y="-20" type="curve" smooth="yes"/>
      <point x="1019" y="-20"/>
      <point x="1049" y="-17"/>
      <point x="1080" y="-12" type="curve"/>
      <point x="1072" y="75" type="line"/>
      <point x="1050" y="73"/>
      <point x="1034" y="72"/>
      <point x="1000" y="72" type="curve" smooth="yes"/>
      <point x="783" y="72"/>
      <point x="680" y="160"/>
      <point x="621" y="409" type="curve"/>
      <point x="596" y="366" type="line"/>
      <point x="891" y="493"/>
      <point x="1077" y="665"/>
      <point x="1077" y="867" type="curve" smooth="yes"/>
      <point x="1077" y="1007"/>
      <point x="997" y="1080"/>
      <point x="844" y="1080" type="curve" smooth="yes"/>
      <point x="593" y="1080"/>
      <point x="423" y="924"/>
      <point x="332" y="739" type="curve"/>
      <point x="303" y="739" type="line"/>
      <point x="260" y="420" type="line"/>
      <point x="330" y="740"/>
      <point x="589" y="988"/>
      <point x="834" y="988" type="curve" smooth="yes"/>
      <point x="930" y="988"/>
      <point x="981" y="943"/>
      <point x="981" y="855" type="curve" smooth="yes"/>
      <point x="981" y="701"/>
      <point x="823" y="554"/>
      <point x="522" y="425" type="curve"/>
      <point x="564" y="138"/>
      <point x="720" y="-20"/>
    </contour>
    <contour>
      <point x="91" y="0" type="line"/>
      <point x="187" y="0" type="line"/>
      <point x="408" y="1247" type="line" smooth="yes"/>
      <point x="441" y="1431"/>
      <point x="384" y="1521"/>
      <point x="211" y="1521" type="curve" smooth="yes"/>
      <point x="170" y="1521"/>
      <point x="129" y="1517"/>
      <point x="89" y="1505" type="curve"/>
      <point x="100" y="1418" type="line"/>
      <point x="136" y="1426"/>
      <point x="173" y="1429"/>
      <point x="209" y="1429" type="curve" smooth="yes"/>
      <point x="308" y="1429"/>
      <point x="332" y="1367"/>
      <point x="309" y="1237" type="curve" smooth="yes"/>
    </contour>
  </outline>
</glyph>
<glyph name="l" format="2">
  <advance width="1200"/>
  <unicode hex="006C"/>
  <anchor x="600" y="0" name="bottom"/>
  <anchor x="559" y="784" name="center"/>
  <anchor x="687" y="1500" name="top"/>
  <anchor x="991" y="1500" name="topright"/>
  <outline>
    <contour>
      <point x="742" y="-20" type="curve" smooth="yes"/>
      <point x="828" y="-20"/>
      <point x="919" y="9"/>
      <point x="1007" y="64" type="curve"/>
      <point x="971" y="148" type="line"/>
      <point x="893" y="98"/>
      <point x="818" y="72"/>
      <point x="751" y="72" type="curve" smooth="yes"/>
      <point x="605" y="72"/>
      <point x="530" y="144"/>
      <point x="532" y="283" type="curve" smooth="yes"/>
      <point x="532" y="327"/>
      <point x="545" y="422"/>
      <point x="579" y="615" type="curve" smooth="yes"/>
      <point x="736" y="1500" type="line"/>
      <point x="293" y="1500" type="line"/>
      <point x="278" y="1410" type="line"/>
      <point x="650" y="1410" type="line"/>
      <point x="630" y="1443" type="line"/>
      <point x="483" y="615" type="line" smooth="yes"/>
      <point x="450" y="427"/>
      <point x="436" y="328"/>
      <point x="436" y="268" type="curve" smooth="yes"/>
      <point x="436" y="79"/>
      <point x="541" y="-20"/>
    </contour>
  </outline>
</glyph>
<glyph name="m" format="2">
  <advance width="1200"/>
  <unicode hex="006D"/>
  <anchor x="506" y="0" name="bottom"/>
  <anchor x="693" y="1060" name="top"/>
  <outline>
    <contour>
      <point x="309" y="1060" type="line"/>
      <point x="230" y="1060" type="line"/>
      <point x="43" y="0" type="line"/>
      <point x="139" y="0" type="line"/>
      <point x="278" y="787" type="line"/>
    </contour>
    <contour>
      <point x="459" y="0" type="line"/>
      <point x="555" y="0" type="line"/>
      <point x="696" y="800" type="line" smooth="yes"/>
      <point x="729" y="984"/>
      <point x="674" y="1080"/>
      <point x="533" y="1080" type="curve" smooth="yes"/>
      <point x="413" y="1080"/>
      <point x="342" y="1001"/>
      <point x="298" y="849" type="curve"/>
      <point x="268" y="849" type="line"/>
      <point x="227" y="497" type="line"/>
      <point x="289" y="820"/>
      <point x="385" y="988"/>
      <point x="511" y="988" type="curve" smooth="yes"/>
      <point x="590" y="988"/>
      <point x="623" y="923"/>
      <point x="600" y="798" type="curve" smooth="yes"/>
    </contour>
    <contour>
      <point x="1112" y="800" type="line" smooth="yes"/>
      <point x="1144" y="984"/>
      <point x="1088" y="1080"/>
      <point x="952" y="1080" type="curve" smooth="yes"/>
      <point x="832" y="1080"/>
      <point x="764" y="1011"/>
      <point x="718" y="879" type="curve"/>
      <point x="698" y="879" type="line"/>
      <point x="649" y="537" type="line"/>
      <point x="707" y="834"/>
      <point x="802" y="988"/>
      <point x="927" y="988" type="curve" smooth="yes"/>
      <point x="1004" y="988"/>
      <point x="1038" y="923"/>
      <point x="1016" y="798" type="curve" smooth="yes"/>
      <point x="876" y="0" type="line"/>
      <point x="971" y="0" type="line"/>
    </contour>
  </outline>
</glyph>
<glyph name="o" format="2">
  <advance width="1200"/>
  <unicode hex="006F"/>
  <anchor x="506" y="0" name="bottom"/>
  <anchor x="604" y="530" name="center"/>
  <anchor x="508" y="10" name="ogonek"/>
  <anchor x="693" y="1060" name="top"/>
  <anchor x="1029" y="1060" name="topright"/>
  <outline>
    <contour>
      <point x="502" y="-20" type="curve" smooth="yes"/>
      <point x="850" y="-20"/>
      <point x="1056" y="235"/>
      <point x="1056" y="666" type="curve" smooth="yes"/>
      <point x="1056" y="927"/>
      <point x="922" y="1080"/>
      <point x="696" y="1080" type="curve" smooth="yes"/>
      <point x="349" y="1080"/>
      <point x="143" y="821"/>
      <point x="143" y="384" type="curve" smooth="yes"/>
      <point x="143" y="130"/>
      <point x="277" y="-20"/>
    </contour>
    <contour>
      <point x="522" y="72" type="curve" smooth="yes"/>
      <point x="344" y="72"/>
      <point x="239" y="193"/>
      <point x="239" y="397" type="curve" smooth="yes"/>
      <point x="239" y="768"/>
      <point x="405" y="988"/>
      <point x="684" y="988" type="curve" smooth="yes"/>
      <point x="859" y="988"/>
      <point x="960" y="867"/>
      <point x="960" y="663" type="curve" smooth="yes"/>
      <point x="960" y="291"/>
      <point x="797" y="72"/>
    </contour>
  </outline>
</glyph>
<glyph name="p" format="2">
  <advance width="1200"/>
  <unicode hex="0070"/>
  <anchor x="438" y="-388" name="bottom"/>
  <anchor x="693" y="1060" name="top"/>
  <outline>
    <contour>
      <point x="115" y="-460" type="line"/>
      <point x="332" y="769" type="line"/>
      <point x="370" y="1060" type="line"/>
      <point x="288" y="1060" type="line"/>
      <point x="19" y="-460" type="line"/>
    </contour>
    <contour>
      <point x="368" y="-20" type="curve" smooth="yes"/>
      <point x="783" y="-20"/>
      <point x="1096" y="307"/>
      <point x="1096" y="740" type="curve" smooth="yes"/>
      <point x="1096" y="957"/>
      <point x="984" y="1080"/>
      <point x="790" y="1080" type="curve" smooth="yes"/>
      <point x="552" y="1080"/>
      <point x="407" y="937"/>
      <point x="337" y="733" type="curve"/>
      <point x="368" y="749" type="line"/>
      <point x="281" y="749" type="line"/>
      <point x="256" y="348" type="line"/>
      <point x="333" y="797"/>
      <point x="559" y="988"/>
      <point x="760" y="988" type="curve" smooth="yes"/>
      <point x="912" y="988"/>
      <point x="1000" y="894"/>
      <point x="1000" y="730" type="curve" smooth="yes"/>
      <point x="1000" y="355"/>
      <point x="737" y="72"/>
      <point x="390" y="72" type="curve" smooth="yes"/>
      <point x="296" y="72"/>
      <point x="217" y="82"/>
      <point x="178" y="97" type="curve"/>
      <point x="99" y="1" type="line"/>
      <point x="189" y="-12"/>
      <point x="278" y="-20"/>
    </contour>
  </outline>
</glyph>
<glyph name="q" format="2">
  <advance width="1200"/>
  <unicode hex="0071"/>
  <anchor x="438" y="-388" name="bottom"/>
  <anchor x="693" y="1060" name="top"/>
  <outline>
    <contour>
      <point x="397" y="-21" type="curve" smooth="yes"/>
      <point x="624" y="-21"/>
      <point x="803" y="107"/>
      <point x="886" y="332" type="curve"/>
      <point x="838" y="245" type="line"/>
      <point x="934" y="245" type="line"/>
      <point x="933" y="639" type="line"/>
      <point x="853" y="263"/>
      <point x="693" y="71"/>
      <point x="422" y="71" type="curve" smooth="yes"/>
      <point x="281" y="71"/>
      <point x="199" y="148"/>
      <point x="199" y="282" type="curve" smooth="yes"/>
      <point x="199" y="677"/>
      <point x="546" y="958"/>
      <point x="1069" y="978" type="curve"/>
      <point x="1095" y="1070" type="line"/>
      <point x="1077" y="1070" type="line" smooth="yes"/>
      <point x="523" y="1070"/>
      <point x="103" y="758"/>
      <point x="103" y="277" type="curve" smooth="yes"/>
      <point x="103" y="88"/>
      <point x="209" y="-21"/>
    </contour>
    <contour>
      <point x="991" y="-480" type="curve" smooth="yes"/>
      <point x="1040" y="-480" type="line"/>
      <point x="1056" y="-388" type="line"/>
      <point x="1000" y="-388" type="line" smooth="yes"/>
      <point x="897" y="-388"/>
      <point x="857" y="-322"/>
      <point x="880" y="-190" type="curve" smooth="yes"/>
      <point x="1104" y="1070" type="line"/>
      <point x="1084" y="1070" type="line"/>
      <point x="995" y="1006" type="line"/>
      <point x="787" y="-174" type="line" smooth="yes"/>
      <point x="751" y="-379"/>
      <point x="818" y="-480"/>
    </contour>
  </outline>
</glyph>
<glyph name="r" format="2">
  <advance width="1200"/>
  <unicode hex="0072"/>
  <anchor x="328" y="0" name="bottom"/>
  <anchor x="693" y="1060" name="top"/>
  <outline>
    <contour>
      <point x="280" y="0" type="line"/>
      <point x="376" y="0" type="line"/>
      <point x="506" y="737" type="line"/>
      <point x="545" y="1060" type="line"/>
      <point x="467" y="1060" type="line"/>
    </contour>
    <contour>
      <point x="1063" y="682" type="curve"/>
      <point x="1158" y="682" type="line"/>
      <point x="1193" y="943"/>
      <point x="1110" y="1080"/>
      <point x="908" y="1080" type="curve" smooth="yes"/>
      <point x="709" y="1080"/>
      <point x="578" y="960"/>
      <point x="522" y="749" type="curve"/>
      <point x="483" y="749" type="line"/>
      <point x="432" y="320" type="line"/>
      <point x="510" y="819"/>
      <point x="682" y="988"/>
      <point x="888" y="988" type="curve" smooth="yes"/>
      <point x="1035" y="988"/>
      <point x="1087" y="888"/>
    </contour>
    <contour>
      <point x="11" y="0" type="line"/>
      <point x="695" y="0" type="line"/>
      <point x="711" y="90" type="line"/>
      <point x="27" y="90" type="line"/>
    </contour>
    <contour>
      <point x="222" y="970" type="line"/>
      <point x="493" y="970" type="line"/>
      <point x="509" y="1060" type="line"/>
      <point x="238" y="1060" type="line"/>
    </contour>
  </outline>
</glyph>
<glyph name="s" format="2">
  <advance width="1200"/>
  <unicode hex="0073"/>
  <anchor x="506" y="0" name="bottom"/>
  <anchor x="696" y="1060" name="top"/>
  <outline>
    <contour>
      <point x="421" y="-20" type="curve" smooth="yes"/>
      <point x="772" y="-20"/>
      <point x="973" y="95"/>
      <point x="973" y="296" type="curve" smooth="yes"/>
      <point x="973" y="424"/>
      <point x="896" y="517"/>
      <point x="762" y="551" type="curve" smooth="yes"/>
      <point x="473" y="626" type="line" smooth="yes"/>
      <point x="387" y="648"/>
      <point x="338" y="701"/>
      <point x="338" y="770" type="curve" smooth="yes"/>
      <point x="338" y="909"/>
      <point x="510" y="988"/>
      <point x="811" y="988" type="curve" smooth="yes"/>
      <point x="865" y="988"/>
      <point x="956" y="983"/>
      <point x="1059" y="974" type="curve"/>
      <point x="1085" y="1060" type="line"/>
      <point x="999" y="1073"/>
      <point x="907" y="1080"/>
      <point x="833" y="1080" type="curve" smooth="yes"/>
      <point x="457" y="1080"/>
      <point x="242" y="964"/>
      <point x="242" y="761" type="curve" smooth="yes"/>
      <point x="242" y="658"/>
      <point x="308" y="580"/>
      <point x="422" y="549" type="curve" smooth="yes"/>
      <point x="717" y="470" type="line" smooth="yes"/>
      <point x="819" y="442"/>
      <point x="877" y="379"/>
      <point x="877" y="296" type="curve" smooth="yes"/>
      <point x="877" y="154"/>
      <point x="717" y="72"/>
      <point x="437" y="72" type="curve" smooth="yes"/>
      <point x="353" y="72"/>
      <point x="237" y="84"/>
      <point x="117" y="105" type="curve"/>
      <point x="88" y="10" type="line"/>
      <point x="162" y="-9"/>
      <point x="283" y="-20"/>
    </contour>
  </outline>
</glyph>
<glyph name="t" format="2">
  <advance width="1200"/>
  <unicode hex="0074"/>
  <anchor x="646" y="0" name="bottom"/>
  <anchor x="468" y="570" name="center"/>
  <anchor x="607" y="1350" name="top"/>
  <anchor x="1153" y="1060" name="topright"/>
  <outline>
    <contour>
      <point x="693" y="-20" type="curve" smooth="yes"/>
      <point x="823" y="-20"/>
      <point x="919" y="13"/>
      <point x="1008" y="54" type="curve"/>
      <point x="989" y="140" type="line"/>
      <point x="877" y="89"/>
      <point x="809" y="72"/>
      <point x="702" y="72" type="curve" smooth="yes"/>
      <point x="561" y="72"/>
      <point x="487" y="148"/>
      <point x="487" y="293" type="curve" smooth="yes"/>
      <point x="487" y="378"/>
      <point x="497" y="440"/>
      <point x="523" y="588" type="curve" smooth="yes"/>
      <point x="662" y="1381" type="line"/>
      <point x="567" y="1381" type="line"/>
      <point x="428" y="588" type="line" smooth="yes"/>
      <point x="402" y="439"/>
      <point x="391" y="372"/>
      <point x="391" y="283" type="curve" smooth="yes"/>
      <point x="391" y="84"/>
      <point x="494" y="-20"/>
    </contour>
    <contour>
      <point x="171" y="970" type="line"/>
      <point x="1081" y="970" type="line"/>
      <point x="1097" y="1060" type="line"/>
      <point x="187" y="1060" type="line"/>
    </contour>
  </outline>
</glyph>
<glyph name="u" format="2">
  <advance width="1200"/>
  <unicode hex="0075"/>
  <anchor x="466" y="0" name="bottom"/>
  <anchor x="997" y="10" name="ogonek"/>
  <anchor x="693" y="1060" name="top"/>
  <anchor x="1187" y="1060" name="topright"/>
  <outline>
    <contour>
      <point x="808" y="-10" type="line"/>
      <point x="1066" y="0" type="line"/>
      <point x="1080" y="82" type="line"/>
      <point x="839" y="82" type="line"/>
      <point x="889" y="21" type="line"/>
      <point x="1072" y="1059" type="line"/>
      <point x="977" y="1060" type="line"/>
      <point x="873" y="481" type="line"/>
      <point x="863" y="376" type="line"/>
    </contour>
    <contour>
      <point x="405" y="1061" type="curve"/>
      <point x="314" y="1080" type="line"/>
      <point x="186" y="755"/>
      <point x="104" y="521"/>
      <point x="104" y="297" type="curve" smooth="yes"/>
      <point x="104" y="88"/>
      <point x="210" y="-21"/>
      <point x="413" y="-21" type="curve" smooth="yes"/>
      <point x="685" y="-21"/>
      <point x="787" y="177"/>
      <point x="869" y="399" type="curve"/>
      <point x="822" y="301" type="line"/>
      <point x="888" y="301" type="line"/>
      <point x="919" y="737" type="line"/>
      <point x="834" y="277"/>
      <point x="671" y="71"/>
      <point x="423" y="71" type="curve" smooth="yes"/>
      <point x="277" y="71"/>
      <point x="200" y="150"/>
      <point x="200" y="302" type="curve" smooth="yes"/>
      <point x="200" y="480"/>
      <point x="271" y="707"/>
    </contour>
  </outline>
</glyph>
<glyph name="v" format="2">
  <advance width="1200"/>
  <unicode hex="0076"/>
  <guideline x="120" y="70" angle="0"/>
  <anchor x="446" y="0" name="bottom"/>
  <anchor x="693" y="1060" name="top"/>
  <outline>
    <contour>
      <point x="320" y="0" type="line"/>
      <point x="454" y="0" type="line"/>
      <point x="860" y="242"/>
      <point x="1083" y="604"/>
      <point x="1103" y="1060" type="curve"/>
      <point x="1007" y="1060" type="line"/>
      <point x="990" y="652"/>
      <point x="794" y="332"/>
      <point x="427" y="90" type="curve"/>
      <point x="409" y="90" type="line"/>
      <point x="269" y="1070" type="line"/>
      <point x="172" y="1060" type="line"/>
    </contour>
  </outline>
</glyph>
<glyph name="w" format="2">
  <advance width="1200"/>
  <unicode hex="0077"/>
  <guideline x="110" y="80" angle="0"/>
  <anchor x="506" y="0" name="bottom"/>
  <anchor x="613" y="1060" name="top"/>
  <outline>
    <contour>
      <point x="642" y="0" type="line"/>
      <point x="756" y="0" type="line"/>
      <point x="994" y="272"/>
      <point x="1120" y="624"/>
      <point x="1130" y="1060" type="curve"/>
      <point x="1034" y="1060" type="line"/>
      <point x="1025" y="652"/>
      <point x="918" y="332"/>
      <point x="734" y="90" type="curve"/>
      <point x="716" y="90" type="line"/>
      <point x="659" y="1070" type="line"/>
      <point x="562" y="1060" type="line"/>
      <point x="603" y="495" type="line"/>
      <point x="601" y="547" type="line"/>
    </contour>
    <contour>
      <point x="602" y="728" type="line"/>
      <point x="314" y="90" type="line"/>
      <point x="296" y="90" type="line"/>
      <point x="224" y="1070" type="line"/>
      <point x="127" y="1060" type="line"/>
      <point x="207" y="0" type="line"/>
      <point x="368" y="0" type="line"/>
      <point x="603" y="521" type="line"/>
      <point x="556" y="492" type="line"/>
      <point x="652" y="492" type="line"/>
    </contour>
  </outline>
</glyph>
<glyph name="x" format="2">
  <advance width="1200"/>
  <unicode hex="0078"/>
  <anchor x="506" y="0" name="bottom"/>
  <anchor x="693" y="1060" name="top"/>
  <outline>
    <contour>
      <point x="158" y="-18" type="line"/>
      <point x="621" y="483" type="line"/>
      <point x="1101" y="987" type="line"/>
      <point x="1028" y="1062" type="line"/>
      <point x="586" y="565" type="line"/>
      <point x="88" y="59" type="line"/>
    </contour>
    <contour>
      <point x="829" y="-20" type="curve" smooth="yes"/>
      <point x="898" y="-20"/>
      <point x="957" y="-5"/>
      <point x="1026" y="29" type="curve"/>
      <point x="996" y="116" type="line"/>
      <point x="940" y="87"/>
      <point x="892" y="72"/>
      <point x="838" y="72" type="curve" smooth="yes"/>
      <point x="752" y="72"/>
      <point x="710" y="125"/>
      <point x="688" y="250" type="curve" smooth="yes"/>
      <point x="588" y="831" type="line" smooth="yes"/>
      <point x="558" y="1007"/>
      <point x="488" y="1080"/>
      <point x="360" y="1080" type="curve" smooth="yes"/>
      <point x="305" y="1080"/>
      <point x="250" y="1068"/>
      <point x="173" y="1039" type="curve"/>
      <point x="200" y="952" type="line"/>
      <point x="253" y="975"/>
      <point x="298" y="988"/>
      <point x="351" y="988" type="curve" smooth="yes"/>
      <point x="428" y="988"/>
      <point x="473" y="935"/>
      <point x="495" y="810" type="curve" smooth="yes"/>
      <point x="595" y="229" type="line" smooth="yes"/>
      <point x="625" y="53"/>
      <point x="693" y="-20"/>
    </contour>
  </outline>
</glyph>
<glyph name="y" format="2">
  <advance width="1200"/>
  <unicode hex="0079"/>
  <anchor x="811" y="0" name="bottom"/>
  <anchor x="653" y="1060" name="top"/>
  <outline>
    <contour>
      <point x="48" y="-472" type="line"/>
      <point x="711" y="-182"/>
      <point x="1040" y="266"/>
      <point x="1188" y="1060" type="curve"/>
      <point x="1092" y="1060" type="line"/>
      <point x="968" y="311"/>
      <point x="656" y="-93"/>
      <point x="9" y="-397" type="curve"/>
    </contour>
    <contour>
      <point x="262" y="1070" type="curve"/>
      <point x="167" y="1060" type="line"/>
      <point x="300" y="620"/>
      <point x="457" y="243"/>
      <point x="647" y="11" type="curve"/>
      <point x="705" y="101" type="line"/>
      <point x="533" y="319"/>
      <point x="386" y="640"/>
    </contour>
  </outline>
</glyph>
<glyph name="z" format="2">
  <advance width="1200"/>
  <unicode hex="007A"/>
  <anchor x="526" y="0" name="bottom"/>
  <anchor x="601" y="530" name="center"/>
  <anchor x="663" y="1060" name="top"/>
  <outline>
    <contour>
      <point x="1086" y="964" type="line"/>
      <point x="1024" y="1028" type="line"/>
      <point x="110" y="97" type="line"/>
      <point x="186" y="54" type="line"/>
    </contour>
    <contour>
      <point x="957" y="90" type="line"/>
      <point x="165" y="90" type="line"/>
      <point x="110" y="97" type="line"/>
      <point x="133" y="0" type="line"/>
      <point x="941" y="0" type="line"/>
    </contour>
    <contour>
      <point x="1086" y="964" type="line"/>
      <point x="1062" y="1060" type="line"/>
      <point x="256" y="1060" type="line"/>
      <point x="240" y="970" type="line"/>
    </contour>
  </outline>
</glyph>
<glyph name="braceleft" format="2">
  <advance width="1200"/>
  <unicode hex="007B"/>
  <outline>
    <contour>
      <point x="701" y="-214" type="curve" smooth="yes"/>
      <point x="773" y="-214"/>
      <point x="815" y="-205"/>
      <point x="853" y="-194" type="curve"/>
      <point x="854" y="-110" type="line"/>
      <point x="805" y="-118"/>
      <point x="757" y="-124"/>
      <point x="721" y="-124" type="curve" smooth="yes"/>
      <point x="590" y="-124"/>
      <point x="513" y="-53"/>
      <point x="513" y="68" type="curve" smooth="yes"/>
      <point x="513" y="211"/>
      <point x="628" y="313"/>
      <point x="628" y="492" type="curve" smooth="yes"/>
      <point x="628" y="619"/>
      <point x="550" y="696"/>
      <point x="417" y="700" type="curve"/>
      <point x="418" y="708" type="line"/>
      <point x="615" y="712"/>
      <point x="710" y="817"/>
      <point x="710" y="1031" type="curve" smooth="yes"/>
      <point x="710" y="1072"/>
      <point x="707" y="1111"/>
      <point x="707" y="1152" type="curve" smooth="yes"/>
      <point x="707" y="1392"/>
      <point x="824" y="1536"/>
      <point x="1012" y="1536" type="curve" smooth="yes"/>
      <point x="1048" y="1536"/>
      <point x="1094" y="1530"/>
      <point x="1141" y="1521" type="curve"/>
      <point x="1170" y="1606" type="line"/>
      <point x="1129" y="1618"/>
      <point x="1082" y="1626"/>
      <point x="1006" y="1626" type="curve" smooth="yes"/>
      <point x="764" y="1626"/>
      <point x="611" y="1442"/>
      <point x="611" y="1152" type="curve" smooth="yes"/>
      <point x="611" y="1126"/>
      <point x="614" y="1067"/>
      <point x="614" y="1031" type="curve" smooth="yes"/>
      <point x="614" y="834"/>
      <point x="538" y="763"/>
      <point x="330" y="763" type="curve"/>
      <point x="309" y="645" type="line"/>
      <point x="450" y="645"/>
      <point x="532" y="582"/>
      <point x="532" y="476" type="curve" smooth="yes"/>
      <point x="532" y="337"/>
      <point x="417" y="240"/>
      <point x="417" y="49" type="curve" smooth="yes"/>
      <point x="417" y="-116"/>
      <point x="522" y="-214"/>
    </contour>
  </outline>
</glyph>
<glyph name="bar" format="2">
  <advance width="1200"/>
  <unicode hex="007C"/>
  <outline>
    <contour>
      <point x="406" y="-310" type="line"/>
      <point x="501" y="-310" type="line"/>
      <point x="858" y="1730" type="line"/>
      <point x="763" y="1730" type="line"/>
    </contour>
  </outline>
</glyph>
<glyph name="braceright" format="2">
  <advance width="1200"/>
  <unicode hex="007D"/>
  <guideline x="920" y="589" angle="80"/>
  <outline>
    <contour>
      <point x="256" y="-214" type="curve" smooth="yes"/>
      <point x="498" y="-214"/>
      <point x="651" y="-30"/>
      <point x="651" y="260" type="curve" smooth="yes"/>
      <point x="651" y="286"/>
      <point x="648" y="345"/>
      <point x="648" y="381" type="curve" smooth="yes"/>
      <point x="648" y="578"/>
      <point x="724" y="649"/>
      <point x="932" y="649" type="curve"/>
      <point x="953" y="767" type="line"/>
      <point x="812" y="767"/>
      <point x="730" y="830"/>
      <point x="730" y="936" type="curve" smooth="yes"/>
      <point x="730" y="1075"/>
      <point x="845" y="1172"/>
      <point x="845" y="1363" type="curve" smooth="yes"/>
      <point x="845" y="1528"/>
      <point x="740" y="1626"/>
      <point x="561" y="1626" type="curve" smooth="yes"/>
      <point x="489" y="1626"/>
      <point x="447" y="1617"/>
      <point x="409" y="1606" type="curve"/>
      <point x="408" y="1522" type="line"/>
      <point x="457" y="1530"/>
      <point x="505" y="1536"/>
      <point x="541" y="1536" type="curve" smooth="yes"/>
      <point x="672" y="1536"/>
      <point x="749" y="1465"/>
      <point x="749" y="1344" type="curve" smooth="yes"/>
      <point x="749" y="1201"/>
      <point x="634" y="1099"/>
      <point x="634" y="920" type="curve" smooth="yes"/>
      <point x="634" y="793"/>
      <point x="712" y="716"/>
      <point x="845" y="712" type="curve"/>
      <point x="844" y="704" type="line"/>
      <point x="647" y="700"/>
      <point x="552" y="595"/>
      <point x="552" y="381" type="curve" smooth="yes"/>
      <point x="552" y="340"/>
      <point x="555" y="301"/>
      <point x="555" y="260" type="curve" smooth="yes"/>
      <point x="555" y="20"/>
      <point x="438" y="-124"/>
      <point x="250" y="-124" type="curve" smooth="yes"/>
      <point x="214" y="-124"/>
      <point x="168" y="-118"/>
      <point x="121" y="-109" type="curve"/>
      <point x="92" y="-194" type="line"/>
      <point x="133" y="-206"/>
      <point x="180" y="-214"/>
    </contour>
  </outline>
</glyph>
<glyph name="asciitilde" format="2">
  <advance width="1200"/>
  <unicode hex="007E"/>
  <outline>
    <contour>
      <point x="113" y="486" type="line"/>
      <point x="209" y="486" type="line"/>
      <point x="215" y="520" type="line" smooth="yes"/>
      <point x="251" y="724"/>
      <point x="300" y="806"/>
      <point x="409" y="806" type="curve" smooth="yes"/>
      <point x="462" y="806"/>
      <point x="528" y="770"/>
      <point x="619" y="663" type="curve" smooth="yes"/>
      <point x="712" y="554"/>
      <point x="785" y="520"/>
      <point x="866" y="520" type="curve" smooth="yes"/>
      <point x="1018" y="520"/>
      <point x="1092" y="613"/>
      <point x="1134" y="846" type="curve" smooth="yes"/>
      <point x="1149" y="930" type="line"/>
      <point x="1053" y="930" type="line"/>
      <point x="1047" y="896" type="line" smooth="yes"/>
      <point x="1011" y="692"/>
      <point x="961" y="610"/>
      <point x="874" y="610" type="curve" smooth="yes"/>
      <point x="817" y="610"/>
      <point x="759" y="645"/>
      <point x="671" y="750" type="curve" smooth="yes"/>
      <point x="580" y="859"/>
      <point x="502" y="896"/>
      <point x="415" y="896" type="curve" smooth="yes"/>
      <point x="250" y="896"/>
      <point x="171" y="805"/>
      <point x="130" y="580" type="curve" smooth="yes"/>
    </contour>
  </outline>
</glyph>
<glyph name="exclamdown" format="2">
  <advance width="1200"/>
  <unicode hex="00A1"/>
  <outline>
    <contour>
      <point x="398" y="-368" type="line"/>
      <point x="494" y="-368" type="line"/>
      <point x="683" y="706" type="line"/>
      <point x="587" y="706" type="line"/>
    </contour>
    <component base="period" xOffset="160" yOffset="904"/>
  </outline>
</glyph>
<glyph name="cent" format="2">
  <advance width="1200"/>
  <unicode hex="00A2"/>
  <outline>
    <contour>
      <point x="451" y="-334" type="line"/>
      <point x="547" y="-334" type="line"/>
      <point x="851" y="1394" type="line"/>
      <point x="755" y="1394" type="line"/>
    </contour>
    <component base="c"/>
  </outline>
</glyph>
<glyph name="currency" format="2">
  <advance width="1200"/>
  <unicode hex="00A4"/>
  <outline>
    <contour>
      <point x="562" y="300" type="curve" smooth="yes"/>
      <point x="804" y="300"/>
      <point x="990" y="459"/>
      <point x="1033" y="700" type="curve" smooth="yes"/>
      <point x="1075" y="941"/>
      <point x="945" y="1100"/>
      <point x="703" y="1100" type="curve" smooth="yes"/>
      <point x="461" y="1100"/>
      <point x="275" y="941"/>
      <point x="233" y="700" type="curve" smooth="yes"/>
      <point x="190" y="459"/>
      <point x="320" y="300"/>
    </contour>
    <contour>
      <point x="115" y="186" type="line"/>
      <point x="353" y="401" type="line"/>
      <point x="265" y="450" type="line"/>
      <point x="49" y="263" type="line"/>
    </contour>
    <contour>
      <point x="974" y="195" type="line"/>
      <point x="1057" y="263" type="line"/>
      <point x="892" y="471" type="line"/>
      <point x="809" y="416" type="line"/>
    </contour>
    <contour>
      <point x="578" y="390" type="curve" smooth="yes"/>
      <point x="395" y="390"/>
      <point x="296" y="513"/>
      <point x="329" y="700" type="curve" smooth="yes"/>
      <point x="362" y="887"/>
      <point x="504" y="1010"/>
      <point x="688" y="1010" type="curve" smooth="yes"/>
      <point x="871" y="1010"/>
      <point x="970" y="887"/>
      <point x="937" y="700" type="curve" smooth="yes"/>
      <point x="904" y="513"/>
      <point x="762" y="390"/>
    </contour>
    <contour>
      <point x="355" y="946" type="line"/>
      <point x="453" y="983" type="line"/>
      <point x="283" y="1196" type="line"/>
      <point x="203" y="1135" type="line"/>
    </contour>
    <contour>
      <point x="992" y="946" type="line"/>
      <point x="1211" y="1135" type="line"/>
      <point x="1148" y="1207" type="line"/>
      <point x="904" y="996" type="line"/>
    </contour>
  </outline>
</glyph>
<glyph name="yen" format="2">
  <advance width="1200"/>
  <unicode hex="00A5"/>
  <outline>
    <contour>
      <point x="157" y="509" type="line"/>
      <point x="1035" y="509" type="line"/>
      <point x="1051" y="599" type="line"/>
      <point x="676" y="599" type="line"/>
      <point x="608" y="553" type="line"/>
      <point x="561" y="599" type="line"/>
      <point x="173" y="599" type="line"/>
    </contour>
    <contour>
      <point x="105" y="215" type="line"/>
      <point x="983" y="215" type="line"/>
      <point x="999" y="305" type="line"/>
      <point x="121" y="305" type="line"/>
    </contour>
    <component base="Y"/>
  </outline>
</glyph>
<glyph name="brokenbar" format="2">
  <advance width="1200"/>
  <unicode hex="00A6"/>
  <outline>
    <contour>
      <point x="406" y="-310" type="line"/>
      <point x="501" y="-310" type="line"/>
      <point x="652" y="551" type="line"/>
      <point x="557" y="551" type="line"/>
    </contour>
    <contour>
      <point x="613" y="871" type="line"/>
      <point x="708" y="871" type="line"/>
      <point x="858" y="1730" type="line"/>
      <point x="763" y="1730" type="line"/>
    </contour>
  </outline>
</glyph>
<glyph name="section" format="2">
  <advance width="1200"/>
  <unicode hex="00A7"/>
  <outline>
    <contour>
      <point x="465" y="-219" type="curve" smooth="yes"/>
      <point x="774" y="-219"/>
      <point x="956" y="-112"/>
      <point x="956" y="67" type="curve" smooth="yes"/>
      <point x="956" y="187"/>
      <point x="842" y="297"/>
      <point x="649" y="365" type="curve"/>
      <point x="676" y="265" type="line"/>
      <point x="723" y="391" type="line"/>
      <point x="644" y="354" type="line"/>
      <point x="945" y="345"/>
      <point x="1123" y="459"/>
      <point x="1123" y="661" type="curve" smooth="yes"/>
      <point x="1123" y="749"/>
      <point x="1069" y="855"/>
      <point x="958" y="912" type="curve" smooth="yes"/>
      <point x="637" y="1078" type="line" smooth="yes"/>
      <point x="512" y="1143"/>
      <point x="460" y="1223"/>
      <point x="460" y="1282" type="curve" smooth="yes"/>
      <point x="460" y="1405"/>
      <point x="577" y="1478"/>
      <point x="775" y="1478" type="curve" smooth="yes"/>
      <point x="875" y="1478"/>
      <point x="991" y="1440"/>
      <point x="1086" y="1377" type="curve"/>
      <point x="1151" y="1472" type="line"/>
      <point x="1066" y="1532"/>
      <point x="931" y="1568"/>
      <point x="787" y="1568" type="curve" smooth="yes"/>
      <point x="521" y="1568"/>
      <point x="364" y="1460"/>
      <point x="364" y="1276" type="curve" smooth="yes"/>
      <point x="364" y="1183"/>
      <point x="415" y="1097"/>
      <point x="560" y="1008" type="curve" smooth="yes"/>
      <point x="646" y="955" type="line"/>
      <point x="552" y="1079" type="line"/>
      <point x="511" y="949" type="line"/>
      <point x="605" y="1013" type="line"/>
      <point x="314" y="1019"/>
      <point x="142" y="910"/>
      <point x="142" y="718" type="curve" smooth="yes"/>
      <point x="142" y="607"/>
      <point x="202" y="505"/>
      <point x="305" y="451" type="curve" smooth="yes"/>
      <point x="745" y="219" type="line" smooth="yes"/>
      <point x="815" y="182"/>
      <point x="859" y="129"/>
      <point x="859" y="66" type="curve" smooth="yes"/>
      <point x="859" y="-56"/>
      <point x="720" y="-128"/>
      <point x="484" y="-128" type="curve" smooth="yes"/>
      <point x="368" y="-128"/>
      <point x="225" y="-100"/>
      <point x="99" y="-52" type="curve"/>
      <point x="75" y="-153" type="line"/>
      <point x="174" y="-194"/>
      <point x="319" y="-219"/>
    </contour>
    <contour>
      <point x="683" y="439" type="curve" smooth="yes"/>
      <point x="578" y="439"/>
      <point x="469" y="465"/>
      <point x="391" y="507" type="curve" smooth="yes"/>
      <point x="378" y="514" type="line" smooth="yes"/>
      <point x="292" y="560"/>
      <point x="239" y="636"/>
      <point x="239" y="724" type="curve" smooth="yes"/>
      <point x="239" y="851"/>
      <point x="349" y="926"/>
      <point x="535" y="926" type="curve" smooth="yes"/>
      <point x="698" y="926"/>
      <point x="841" y="884"/>
      <point x="928" y="822" type="curve" smooth="yes"/>
      <point x="949" y="807" type="line" smooth="yes"/>
      <point x="1001" y="770"/>
      <point x="1028" y="708"/>
      <point x="1028" y="647" type="curve" smooth="yes"/>
      <point x="1028" y="517"/>
      <point x="899" y="439"/>
    </contour>
  </outline>
</glyph>
<glyph name="copyright" format="2">
  <advance width="1200"/>
  <unicode hex="00A9"/>
  <outline>
    <contour>
      <point x="509" y="15" type="curve" smooth="yes"/>
      <point x="940" y="15"/>
      <point x="1195" y="345"/>
      <point x="1195" y="903" type="curve" smooth="yes"/>
      <point x="1195" y="1219"/>
      <point x="1031" y="1405"/>
      <point x="754" y="1405" type="curve" smooth="yes"/>
      <point x="321" y="1405"/>
      <point x="65" y="1070"/>
      <point x="65" y="502" type="curve" smooth="yes"/>
      <point x="65" y="196"/>
      <point x="230" y="15"/>
    </contour>
    <contour>
      <point x="647" y="415" type="curve" smooth="yes"/>
      <point x="728" y="415"/>
      <point x="808" y="426"/>
      <point x="862" y="445" type="curve"/>
      <point x="855" y="531" type="line"/>
      <point x="792" y="515"/>
      <point x="719" y="505"/>
      <point x="659" y="505" type="curve" smooth="yes"/>
      <point x="532" y="505"/>
      <point x="457" y="566"/>
      <point x="457" y="669" type="curve" smooth="yes"/>
      <point x="457" y="823"/>
      <point x="547" y="914"/>
      <point x="699" y="914" type="curve" smooth="yes"/>
      <point x="767" y="914"/>
      <point x="827" y="881"/>
      <point x="859" y="826" type="curve"/>
      <point x="944" y="894" type="line"/>
      <point x="901" y="964"/>
      <point x="816" y="1006"/>
      <point x="715" y="1006" type="curve" smooth="yes"/>
      <point x="490" y="1006"/>
      <point x="357" y="876"/>
      <point x="357" y="655" type="curve" smooth="yes"/>
      <point x="357" y="504"/>
      <point x="465" y="415"/>
    </contour>
    <contour>
      <point x="524" y="105" type="curve" smooth="yes"/>
      <point x="296" y="105"/>
      <point x="161" y="264"/>
      <point x="161" y="534" type="curve" smooth="yes"/>
      <point x="161" y="1025"/>
      <point x="375" y="1315"/>
      <point x="738" y="1315" type="curve" smooth="yes"/>
      <point x="965" y="1315"/>
      <point x="1099" y="1151"/>
      <point x="1099" y="873" type="curve" smooth="yes"/>
      <point x="1099" y="390"/>
      <point x="885" y="105"/>
    </contour>
  </outline>
</glyph>
<glyph name="ordfeminine" format="2">
  <advance width="1200"/>
  <unicode hex="00AA"/>
  <outline>
    <contour>
      <point x="963" y="1441" type="line" smooth="yes"/>
      <point x="601" y="1441"/>
      <point x="333" y="1250"/>
      <point x="333" y="956" type="curve" smooth="yes"/>
      <point x="333" y="841"/>
      <point x="405" y="773"/>
      <point x="528" y="773" type="curve" smooth="yes"/>
      <point x="661" y="773"/>
      <point x="766" y="852"/>
      <point x="814" y="990" type="curve"/>
      <point x="781" y="930" type="line"/>
      <point x="840" y="930" type="line"/>
      <point x="812" y="1035" type="line"/>
      <point x="789" y="779" type="line"/>
      <point x="966" y="786" type="line"/>
      <point x="979" y="860" type="line"/>
      <point x="850" y="860" type="line"/>
      <point x="862" y="806" type="line"/>
      <point x="974" y="1441" type="line"/>
    </contour>
    <contour>
      <point x="539" y="865" type="curve" smooth="yes"/>
      <point x="471" y="865"/>
      <point x="431" y="904"/>
      <point x="431" y="969" type="curve" smooth="yes"/>
      <point x="431" y="1189"/>
      <point x="631" y="1346"/>
      <point x="940" y="1357" type="curve"/>
      <point x="871" y="1396" type="line"/>
      <point x="832" y="1170" type="line" smooth="yes"/>
      <point x="798" y="975"/>
      <point x="680" y="865"/>
    </contour>
  </outline>
</glyph>
<glyph name="logicalnot" format="2">
  <advance width="1200"/>
  <unicode hex="00AC"/>
  <outline>
    <contour>
      <point x="173" y="813" type="line"/>
      <point x="1125" y="813" type="line"/>
      <point x="1142" y="903" type="line"/>
      <point x="190" y="903" type="line"/>
    </contour>
    <contour>
      <point x="944" y="350" type="line"/>
      <point x="1044" y="350" type="line"/>
      <point x="1131" y="847" type="line"/>
      <point x="1031" y="847" type="line"/>
    </contour>
  </outline>
</glyph>
<glyph name="registered" format="2">
  <advance width="1200"/>
  <unicode hex="00AE"/>
  <outline>
    <contour>
      <point x="509" y="15" type="curve" smooth="yes"/>
      <point x="940" y="15"/>
      <point x="1195" y="345"/>
      <point x="1195" y="903" type="curve" smooth="yes"/>
      <point x="1195" y="1219"/>
      <point x="1031" y="1405"/>
      <point x="754" y="1405" type="curve" smooth="yes"/>
      <point x="321" y="1405"/>
      <point x="65" y="1070"/>
      <point x="65" y="502" type="curve" smooth="yes"/>
      <point x="65" y="196"/>
      <point x="230" y="15"/>
    </contour>
    <contour>
      <point x="358" y="396" type="line"/>
      <point x="452" y="396" type="line"/>
      <point x="560" y="1010" type="line"/>
      <point x="466" y="1010" type="line"/>
    </contour>
    <contour>
      <point x="759" y="396" type="line"/>
      <point x="857" y="396" type="line"/>
      <point x="779" y="655" type="line"/>
      <point x="691" y="628" type="line"/>
    </contour>
    <contour>
      <point x="524" y="105" type="curve" smooth="yes"/>
      <point x="296" y="105"/>
      <point x="161" y="264"/>
      <point x="161" y="534" type="curve" smooth="yes"/>
      <point x="161" y="1025"/>
      <point x="375" y="1315"/>
      <point x="738" y="1315" type="curve" smooth="yes"/>
      <point x="965" y="1315"/>
      <point x="1099" y="1151"/>
      <point x="1099" y="873" type="curve" smooth="yes"/>
      <point x="1099" y="390"/>
      <point x="885" y="105"/>
    </contour>
    <contour>
      <point x="486" y="620" type="line"/>
      <point x="640" y="620" type="line" smooth="yes"/>
      <point x="809" y="620"/>
      <point x="922" y="706"/>
      <point x="922" y="834" type="curve" smooth="yes"/>
      <point x="922" y="940"/>
      <point x="846" y="1010"/>
      <point x="731" y="1010" type="curve" smooth="yes"/>
      <point x="557" y="1010" type="line"/>
      <point x="539" y="920" type="line"/>
      <point x="713" y="920" type="line" smooth="yes"/>
      <point x="781" y="920"/>
      <point x="826" y="884"/>
      <point x="826" y="829" type="curve" smooth="yes"/>
      <point x="826" y="758"/>
      <point x="757" y="710"/>
      <point x="653" y="710" type="curve" smooth="yes"/>
      <point x="499" y="710" type="line"/>
    </contour>
  </outline>
</glyph>
<glyph name="degree" format="2">
  <advance width="1200"/>
  <unicode hex="00B0"/>
  <outline>
    <contour>
      <point x="628" y="690" type="curve" smooth="yes"/>
      <point x="868" y="690"/>
      <point x="1034" y="829"/>
      <point x="1076" y="1065" type="curve" smooth="yes"/>
      <point x="1118" y="1301"/>
      <point x="1000" y="1440"/>
      <point x="760" y="1440" type="curve" smooth="yes"/>
      <point x="520" y="1440"/>
      <point x="354" y="1301"/>
      <point x="312" y="1065" type="curve" smooth="yes"/>
      <point x="270" y="829"/>
      <point x="388" y="690"/>
    </contour>
    <contour>
      <point x="644" y="782" type="curve" smooth="yes"/>
      <point x="464" y="782"/>
      <point x="377" y="887"/>
      <point x="408" y="1065" type="curve" smooth="yes"/>
      <point x="439" y="1243"/>
      <point x="564" y="1348"/>
      <point x="744" y="1348" type="curve" smooth="yes"/>
      <point x="924" y="1348"/>
      <point x="1011" y="1243"/>
      <point x="980" y="1065" type="curve" smooth="yes"/>
      <point x="949" y="887"/>
      <point x="824" y="782"/>
    </contour>
  </outline>
</glyph>
<glyph name="plusminus" format="2">
  <advance width="1200"/>
  <unicode hex="00B1"/>
  <outline>
    <contour>
      <point x="507" y="270" type="line"/>
      <point x="603" y="270" type="line"/>
      <point x="772" y="1228" type="line"/>
      <point x="676" y="1228" type="line"/>
    </contour>
    <contour>
      <point x="159" y="730" type="line"/>
      <point x="1111" y="730" type="line"/>
      <point x="1127" y="820" type="line"/>
      <point x="175" y="820" type="line"/>
    </contour>
    <component base="minus" xOffset="-76" yOffset="-430"/>
  </outline>
</glyph>
<glyph name="twosuperior" format="2">
  <advance width="1200"/>
  <unicode hex="00B2"/>
  <outline>
    <contour>
      <point x="457" y="802" type="line"/>
      <point x="577" y="802" type="line"/>
      <point x="577" y="898" type="line"/>
      <point x="785" y="973"/>
      <point x="951" y="1093"/>
      <point x="951" y="1271" type="curve" smooth="yes"/>
      <point x="951" y="1384"/>
      <point x="882" y="1440"/>
      <point x="747" y="1440" type="curve" smooth="yes"/>
      <point x="652" y="1440"/>
      <point x="574" y="1420"/>
      <point x="504" y="1382" type="curve"/>
      <point x="524" y="1298" type="line"/>
      <point x="597" y="1331"/>
      <point x="671" y="1348"/>
      <point x="731" y="1348" type="curve" smooth="yes"/>
      <point x="812" y="1348"/>
      <point x="852" y="1317"/>
      <point x="852" y="1255" type="curve" smooth="yes"/>
      <point x="852" y="1110"/>
      <point x="642" y="994"/>
      <point x="446" y="909" type="curve"/>
    </contour>
    <contour>
      <point x="483" y="802" type="line"/>
      <point x="895" y="802" type="line"/>
      <point x="911" y="892" type="line"/>
      <point x="469" y="892" type="line"/>
    </contour>
  </outline>
</glyph>
<glyph name="threesuperior" format="2">
  <advance width="1200"/>
  <unicode hex="00B3"/>
  <outline>
    <contour>
      <point x="597" y="793" type="curve" smooth="yes"/>
      <point x="762" y="793"/>
      <point x="910" y="853"/>
      <point x="910" y="988" type="curve" smooth="yes"/>
      <point x="910" y="1069"/>
      <point x="840" y="1117"/>
      <point x="729" y="1126" type="curve"/>
      <point x="599" y="1115" type="line"/>
      <point x="582" y="1072" type="line"/>
      <point x="650" y="1072" type="line" smooth="yes"/>
      <point x="757" y="1072"/>
      <point x="817" y="1045"/>
      <point x="817" y="998" type="curve" smooth="yes"/>
      <point x="817" y="919"/>
      <point x="716" y="885"/>
      <point x="610" y="885" type="curve" smooth="yes"/>
      <point x="547" y="885"/>
      <point x="498" y="898"/>
      <point x="462" y="906" type="curve"/>
      <point x="419" y="819" type="line"/>
      <point x="465" y="803"/>
      <point x="525" y="793"/>
    </contour>
    <contour>
      <point x="582" y="1072" type="line"/>
      <point x="737" y="1087" type="line"/>
      <point x="745" y="1134" type="line"/>
      <point x="849" y="1152"/>
      <point x="949" y="1208"/>
      <point x="949" y="1307" type="curve" smooth="yes"/>
      <point x="949" y="1393"/>
      <point x="876" y="1440"/>
      <point x="742" y="1440" type="curve" smooth="yes"/>
      <point x="667" y="1440"/>
      <point x="597" y="1431"/>
      <point x="535" y="1410" type="curve"/>
      <point x="532" y="1319" type="line"/>
      <point x="587" y="1338"/>
      <point x="647" y="1348"/>
      <point x="716" y="1348" type="curve" smooth="yes"/>
      <point x="806" y="1348"/>
      <point x="851" y="1329"/>
      <point x="851" y="1291" type="curve" smooth="yes"/>
      <point x="851" y="1211"/>
      <point x="722" y="1174"/>
      <point x="592" y="1162" type="curve"/>
    </contour>
  </outline>
</glyph>
<glyph name="paragraph" format="2">
  <advance width="1200"/>
  <unicode hex="00B6"/>
  <outline>
    <contour>
      <point x="752" y="0" type="line"/>
      <point x="846" y="0" type="line"/>
      <point x="1096" y="1420" type="line"/>
      <point x="1002" y="1420" type="line"/>
    </contour>
    <contour>
      <point x="384" y="0" type="line"/>
      <point x="478" y="0" type="line"/>
      <point x="722" y="1386" type="line"/>
      <point x="628" y="1386" type="line"/>
    </contour>
    <contour>
      <point x="541" y="700" type="curve"/>
      <point x="711" y="1420" type="line"/>
      <point x="346" y="1420"/>
      <point x="156" y="1287"/>
      <point x="156" y="1032" type="curve" smooth="yes"/>
      <point x="156" y="865"/>
      <point x="288" y="741"/>
    </contour>
    <contour>
      <point x="675" y="1330" type="line"/>
      <point x="1277" y="1330" type="line"/>
      <point x="1293" y="1420" type="line"/>
      <point x="711" y="1420" type="line"/>
    </contour>
  </outline>
</glyph>
<glyph name="onesuperior" format="2">
  <advance width="1200"/>
  <unicode hex="00B9"/>
  <outline>
    <contour>
      <point x="618" y="802" type="line"/>
      <point x="714" y="802" type="line"/>
      <point x="822" y="1420" type="line"/>
      <point x="726" y="1420" type="line"/>
    </contour>
    <contour>
      <point x="413" y="802" type="line"/>
      <point x="627" y="802" type="line"/>
      <point x="642" y="892" type="line"/>
      <point x="428" y="892" type="line"/>
    </contour>
    <contour>
      <point x="704" y="802" type="line"/>
      <point x="883" y="802" type="line"/>
      <point x="898" y="892" type="line"/>
      <point x="719" y="892" type="line"/>
    </contour>
    <contour>
      <point x="505" y="1274" type="line"/>
      <point x="710" y="1325" type="line"/>
      <point x="726" y="1420" type="line"/>
      <point x="521" y="1367" type="line"/>
    </contour>
  </outline>
</glyph>
<glyph name="ordmasculine" format="2">
  <advance width="1200"/>
  <unicode hex="00BA"/>
  <outline>
    <contour>
      <point x="642" y="770" type="curve" smooth="yes"/>
      <point x="866" y="770"/>
      <point x="1026" y="951"/>
      <point x="1026" y="1172" type="curve" smooth="yes"/>
      <point x="1026" y="1336"/>
      <point x="927" y="1440"/>
      <point x="760" y="1440" type="curve" smooth="yes"/>
      <point x="536" y="1440"/>
      <point x="376" y="1259"/>
      <point x="376" y="1038" type="curve" smooth="yes"/>
      <point x="376" y="874"/>
      <point x="475" y="770"/>
    </contour>
    <contour>
      <point x="658" y="862" type="curve" smooth="yes"/>
      <point x="542" y="862"/>
      <point x="474" y="934"/>
      <point x="474" y="1048" type="curve" smooth="yes"/>
      <point x="474" y="1207"/>
      <point x="582" y="1348"/>
      <point x="744" y="1348" type="curve" smooth="yes"/>
      <point x="860" y="1348"/>
      <point x="928" y="1277"/>
      <point x="928" y="1163" type="curve" smooth="yes"/>
      <point x="928" y="1004"/>
      <point x="820" y="862"/>
    </contour>
  </outline>
</glyph>
<glyph name="onequarter" format="2">
  <advance width="1200"/>
  <unicode hex="00BC"/>
  <outline>
    <contour>
      <point x="187" y="306" type="line"/>
      <point x="1207" y="1030" type="line"/>
      <point x="1163" y="1106" type="line"/>
      <point x="143" y="382" type="line"/>
    </contour>
    <component base="onesuperior" xOffset="-260"/>
    <component base="fourinferior" xOffset="270"/>
  </outline>
</glyph>
<glyph name="onehalf" format="2">
  <advance width="1200"/>
  <unicode hex="00BD"/>
  <outline>
    <contour>
      <point x="157" y="306" type="line"/>
      <point x="1177" y="1030" type="line"/>
      <point x="1133" y="1106" type="line"/>
      <point x="113" y="382" type="line"/>
    </contour>
    <component base="onesuperior" xOffset="-260"/>
    <component base="twoinferior" xOffset="270"/>
  </outline>
</glyph>
<glyph name="threequarters" format="2">
  <advance width="1200"/>
  <unicode hex="00BE"/>
  <outline>
    <contour>
      <point x="157" y="306" type="line"/>
      <point x="1177" y="1030" type="line"/>
      <point x="1133" y="1106" type="line"/>
      <point x="113" y="382" type="line"/>
    </contour>
    <component base="threesuperior" xOffset="-260"/>
    <component base="fourinferior" xOffset="270"/>
  </outline>
</glyph>
<glyph name="questiondown" format="2">
  <advance width="1200"/>
  <unicode hex="00BF"/>
  <outline>
    <contour>
      <point x="470" y="-380" type="curve"/>
      <point x="483" y="-290" type="line"/>
      <point x="310" y="-290"/>
      <point x="209" y="-214"/>
      <point x="209" y="-85" type="curve" smooth="yes"/>
      <point x="209" y="35"/>
      <point x="291" y="98"/>
      <point x="435" y="214" type="curve" smooth="yes"/>
      <point x="588" y="337"/>
      <point x="677" y="411"/>
      <point x="702" y="551" type="curve" smooth="yes"/>
      <point x="729" y="704" type="line"/>
      <point x="633" y="704" type="line"/>
      <point x="607" y="555" type="line" smooth="yes"/>
      <point x="592" y="468"/>
      <point x="524" y="387"/>
      <point x="386" y="282" type="curve" smooth="yes"/>
      <point x="212" y="150"/>
      <point x="113" y="60"/>
      <point x="113" y="-92" type="curve" smooth="yes"/>
      <point x="113" y="-273"/>
      <point x="246" y="-380"/>
    </contour>
    <contour>
      <point x="470" y="-380" type="line"/>
      <point x="655" y="-380"/>
      <point x="842" y="-305"/>
      <point x="949" y="-191" type="curve"/>
      <point x="897" y="-129" type="line"/>
      <point x="782" y="-226"/>
      <point x="622" y="-290"/>
      <point x="483" y="-290" type="curve"/>
    </contour>
    <component base="period" xOffset="199" yOffset="901"/>
  </outline>
</glyph>
<glyph name="AE" format="2">
  <advance width="1200"/>
  <unicode hex="00C6"/>
  <anchor x="506" y="0" name="bottom"/>
  <anchor x="990" y="10" name="ogonek"/>
  <anchor x="867" y="1420" name="top"/>
  <outline>
    <contour>
      <point x="544" y="0" type="line"/>
      <point x="638" y="0" type="line"/>
      <point x="888" y="1420" type="line"/>
      <point x="794" y="1420" type="line"/>
    </contour>
    <contour>
      <point x="554" y="0" type="line"/>
      <point x="980" y="0" type="line"/>
      <point x="996" y="90" type="line"/>
      <point x="571" y="90" type="line"/>
    </contour>
    <contour>
      <point x="699" y="666" type="line"/>
      <point x="1037" y="666" type="line"/>
      <point x="1053" y="756" type="line"/>
      <point x="715" y="756" type="line"/>
    </contour>
    <contour>
      <point x="789" y="1330" type="line"/>
      <point x="1215" y="1330" type="line"/>
      <point x="1230" y="1420" type="line"/>
      <point x="804" y="1420" type="line"/>
    </contour>
    <contour>
      <point x="-31" y="0" type="line"/>
      <point x="70" y="0" type="line"/>
      <point x="761" y="1331" type="line"/>
      <point x="799" y="1331" type="line"/>
      <point x="867" y="1420" type="line"/>
      <point x="708" y="1420" type="line"/>
    </contour>
    <contour>
      <point x="198" y="283" type="line"/>
      <point x="658" y="283" type="line"/>
      <point x="670" y="373" type="line"/>
      <point x="210" y="373" type="line"/>
    </contour>
  </outline>
</glyph>
<glyph name="Eth" format="2">
  <advance width="1200"/>
  <unicode hex="00D0"/>
  <outline>
    <contour>
      <point x="35" y="662" type="line"/>
      <point x="674" y="662" type="line"/>
      <point x="690" y="752" type="line"/>
      <point x="51" y="752" type="line"/>
    </contour>
    <component base="D"/>
  </outline>
</glyph>
<glyph name="multiply" format="2">
  <advance width="1200"/>
  <unicode hex="00D7"/>
  <guideline x="314" y="114" angle="0"/>
  <guideline x="314" y="574" angle="0"/>
  <outline>
    <contour>
      <point x="159" y="243" type="line"/>
      <point x="106" y="309" type="line"/>
      <point x="1097" y="1133" type="line"/>
      <point x="1149" y="1065" type="line"/>
    </contour>
    <contour>
      <point x="937" y="243" type="line"/>
      <point x="244" y="1074" type="line"/>
      <point x="318" y="1131" type="line"/>
      <point x="1011" y="300" type="line"/>
    </contour>
  </outline>
</glyph>
<glyph name="Oslash" format="2">
  <advance width="1200"/>
  <unicode hex="00D8"/>
  <outline>
    <contour>
      <point x="74" y="-134" type="line"/>
      <point x="1241" y="1477" type="line"/>
      <point x="1166" y="1532" type="line"/>
      <point x="-1" y="-79" type="line"/>
    </contour>
    <component base="O"/>
  </outline>
</glyph>
<glyph name="Thorn" format="2">
  <advance width="1200"/>
  <unicode hex="00DE"/>
  <anchor x="506" y="0" name="bottom"/>
  <anchor x="757" y="1420" name="top"/>
  <outline>
    <contour>
      <point x="91" y="0" type="line"/>
      <point x="187" y="0" type="line"/>
      <point x="437" y="1420" type="line"/>
      <point x="341" y="1420" type="line"/>
    </contour>
    <contour>
      <point x="155" y="187" type="line"/>
      <point x="197" y="187" type="line" smooth="yes"/>
      <point x="810" y="187"/>
      <point x="1129" y="396"/>
      <point x="1129" y="798" type="curve" smooth="yes"/>
      <point x="1129" y="1073"/>
      <point x="944" y="1217"/>
      <point x="589" y="1217" type="curve" smooth="yes"/>
      <point x="479" y="1217"/>
      <point x="384" y="1210"/>
      <point x="315" y="1197" type="curve"/>
      <point x="302" y="1107" type="line"/>
      <point x="369" y="1120"/>
      <point x="460" y="1127"/>
      <point x="566" y="1127" type="curve" smooth="yes"/>
      <point x="873" y="1127"/>
      <point x="1033" y="1012"/>
      <point x="1033" y="795" type="curve" smooth="yes"/>
      <point x="1033" y="455"/>
      <point x="758" y="277"/>
      <point x="230" y="277" type="curve" smooth="yes"/>
      <point x="168" y="277" type="line"/>
    </contour>
  </outline>
</glyph>
<glyph name="germandbls" format="2">
  <advance width="1200"/>
  <unicode hex="00DF"/>
  <anchor x="438" y="-388" name="bottom"/>
  <anchor x="805" y="1500" name="top"/>
  <outline>
    <contour>
      <point x="720" y="-20" type="curve" smooth="yes"/>
      <point x="945" y="-20"/>
      <point x="1102" y="115"/>
      <point x="1102" y="307" type="curve" smooth="yes"/>
      <point x="1102" y="387"/>
      <point x="1087" y="451"/>
      <point x="974" y="584" type="curve" smooth="yes"/>
      <point x="906" y="668"/>
      <point x="887" y="712"/>
      <point x="887" y="748" type="curve" smooth="yes"/>
      <point x="887" y="810"/>
      <point x="908" y="863"/>
      <point x="979" y="946" type="curve" smooth="yes"/>
      <point x="1095" y="1082"/>
      <point x="1124" y="1140"/>
      <point x="1124" y="1238" type="curve" smooth="yes"/>
      <point x="1124" y="1419"/>
      <point x="1019" y="1520"/>
      <point x="827" y="1520" type="curve" smooth="yes"/>
      <point x="551" y="1520"/>
      <point x="397" y="1374"/>
      <point x="339" y="1054" type="curve" smooth="yes"/>
      <point x="72" y="-460" type="line"/>
      <point x="166" y="-460" type="line"/>
      <point x="435" y="1064" type="line" smooth="yes"/>
      <point x="479" y="1315"/>
      <point x="597" y="1429"/>
      <point x="811" y="1428" type="curve" smooth="yes"/>
      <point x="953" y="1426"/>
      <point x="1028" y="1355"/>
      <point x="1028" y="1245" type="curve" smooth="yes"/>
      <point x="1028" y="1172"/>
      <point x="1009" y="1120"/>
      <point x="905" y="1005" type="curve" smooth="yes"/>
      <point x="818" y="909"/>
      <point x="791" y="837"/>
      <point x="791" y="736" type="curve" smooth="yes"/>
      <point x="791" y="678"/>
      <point x="819" y="616"/>
      <point x="913" y="504" type="curve" smooth="yes"/>
      <point x="997" y="406"/>
      <point x="1006" y="354"/>
      <point x="1006" y="291" type="curve" smooth="yes"/>
      <point x="1006" y="155"/>
      <point x="903" y="72"/>
      <point x="733" y="72" type="curve" smooth="yes"/>
      <point x="667" y="72"/>
      <point x="586" y="82"/>
      <point x="480" y="115" type="curve"/>
      <point x="453" y="27" type="line"/>
      <point x="530" y="-3"/>
      <point x="614" y="-20"/>
    </contour>
  </outline>
</glyph>
<glyph name="ae" format="2">
  <advance width="1200"/>
  <unicode hex="00E6"/>
  <anchor x="506" y="0" name="bottom"/>
  <anchor x="693" y="1060" name="top"/>
  <outline>
    <contour>
      <point x="878" y="70" type="curve" smooth="yes"/>
      <point x="718" y="70"/>
      <point x="624" y="193"/>
      <point x="623" y="401" type="curve" smooth="yes"/>
      <point x="624" y="754"/>
      <point x="751" y="990"/>
      <point x="938" y="990" type="curve" smooth="yes"/>
      <point x="1030" y="990"/>
      <point x="1082" y="924"/>
      <point x="1082" y="818" type="curve" smooth="yes"/>
      <point x="1082" y="620"/>
      <point x="908" y="502"/>
      <point x="612" y="496" type="curve"/>
      <point x="613" y="406" type="line"/>
      <point x="968" y="414"/>
      <point x="1178" y="569"/>
      <point x="1178" y="820" type="curve" smooth="yes"/>
      <point x="1178" y="983"/>
      <point x="1095" y="1080"/>
      <point x="954" y="1080" type="curve" smooth="yes"/>
      <point x="713" y="1080"/>
      <point x="552" y="804"/>
      <point x="552" y="389" type="curve" smooth="yes"/>
      <point x="552" y="132"/>
      <point x="670" y="-20"/>
      <point x="870" y="-20" type="curve" smooth="yes"/>
      <point x="924" y="-20"/>
      <point x="987" y="-7"/>
      <point x="1039" y="14" type="curve"/>
      <point x="1018" y="100" type="line"/>
      <point x="972" y="81"/>
      <point x="921" y="70"/>
    </contour>
    <contour>
      <point x="217" y="-20" type="curve" smooth="yes"/>
      <point x="411" y="-20"/>
      <point x="529" y="93"/>
      <point x="573" y="356" type="curve"/>
      <point x="533" y="264" type="line"/>
      <point x="614" y="264" type="line"/>
      <point x="546" y="556" type="line"/>
      <point x="513" y="380" type="line"/>
      <point x="481" y="182"/>
      <point x="366" y="70"/>
      <point x="232" y="70" type="curve" smooth="yes"/>
      <point x="133" y="70"/>
      <point x="81" y="127"/>
      <point x="81" y="228" type="curve" smooth="yes"/>
      <point x="81" y="399"/>
      <point x="209" y="511"/>
      <point x="408" y="511" type="curve" smooth="yes"/>
      <point x="487" y="511"/>
      <point x="553" y="501"/>
      <point x="585" y="481" type="curve"/>
      <point x="610" y="565" type="line"/>
      <point x="569" y="588"/>
      <point x="491" y="601"/>
      <point x="419" y="601" type="curve" smooth="yes"/>
      <point x="160" y="601"/>
      <point x="-15" y="448"/>
      <point x="-15" y="222" type="curve" smooth="yes"/>
      <point x="-15" y="67"/>
      <point x="67" y="-20"/>
    </contour>
    <contour>
      <point x="500" y="310" type="line"/>
      <point x="570" y="310" type="line"/>
      <point x="618" y="584" type="line" smooth="yes"/>
      <point x="670" y="881"/>
      <point x="536" y="1070"/>
      <point x="283" y="1070" type="curve" smooth="yes"/>
      <point x="241" y="1070" type="line"/>
      <point x="227" y="980" type="line"/>
      <point x="246" y="980" type="line" smooth="yes"/>
      <point x="463" y="980"/>
      <point x="591" y="830"/>
      <point x="554" y="616" type="curve" smooth="yes"/>
      <point x="515" y="392" type="line"/>
    </contour>
  </outline>
</glyph>
<glyph name="eth" format="2">
  <advance width="1200"/>
  <unicode hex="00F0"/>
  <anchor x="506" y="0" name="bottom"/>
  <anchor x="771" y="1500" name="top"/>
  <outline>
    <contour>
      <point x="516" y="1435" type="line"/>
      <point x="954" y="1284"/>
      <point x="1022" y="1043"/>
      <point x="988" y="656" type="curve" smooth="yes"/>
      <point x="953" y="265"/>
      <point x="785" y="72"/>
      <point x="491" y="72" type="curve" smooth="yes"/>
      <point x="315" y="72"/>
      <point x="210" y="168"/>
      <point x="210" y="329" type="curve" smooth="yes"/>
      <point x="210" y="651"/>
      <point x="522" y="840"/>
      <point x="1039" y="840" type="curve"/>
      <point x="1000" y="932" type="line"/>
      <point x="472" y="932"/>
      <point x="111" y="686"/>
      <point x="111" y="329" type="curve" smooth="yes"/>
      <point x="111" y="110"/>
      <point x="247" y="-20"/>
      <point x="475" y="-20" type="curve" smooth="yes"/>
      <point x="823" y="-20"/>
      <point x="1018" y="177"/>
      <point x="1068" y="574" type="curve" smooth="yes"/>
      <point x="1133" y="1087"/>
      <point x="993" y="1366"/>
      <point x="550" y="1516" type="curve"/>
    </contour>
    <contour>
      <point x="335" y="1027" type="line"/>
      <point x="1230" y="1327" type="line"/>
      <point x="1208" y="1409" type="line"/>
      <point x="311" y="1109" type="line"/>
    </contour>
  </outline>
</glyph>
<glyph name="divide" format="2">
  <advance width="1200"/>
  <unicode hex="00F7"/>
  <outline>
    <contour>
      <point x="147" y="664" type="line"/>
      <point x="1099" y="664" type="line"/>
      <point x="1115" y="754" type="line"/>
      <point x="163" y="754" type="line"/>
    </contour>
    <contour>
      <point x="555" y="187" type="curve" smooth="yes"/>
      <point x="613" y="187"/>
      <point x="660" y="234"/>
      <point x="660" y="291" type="curve" smooth="yes"/>
      <point x="660" y="349"/>
      <point x="613" y="396"/>
      <point x="555" y="396" type="curve" smooth="yes"/>
      <point x="497" y="396"/>
      <point x="450" y="349"/>
      <point x="450" y="291" type="curve" smooth="yes"/>
      <point x="450" y="234"/>
      <point x="497" y="187"/>
    </contour>
    <contour>
      <point x="705" y="1020" type="curve" smooth="yes"/>
      <point x="762" y="1020"/>
      <point x="810" y="1067"/>
      <point x="810" y="1125" type="curve" smooth="yes"/>
      <point x="810" y="1182"/>
      <point x="763" y="1229"/>
      <point x="705" y="1229" type="curve" smooth="yes"/>
      <point x="647" y="1229"/>
      <point x="600" y="1182"/>
      <point x="600" y="1125" type="curve" smooth="yes"/>
      <point x="600" y="1067"/>
      <point x="647" y="1020"/>
    </contour>
  </outline>
</glyph>
<glyph name="oslash" format="2">
  <advance width="1200"/>
  <unicode hex="00F8"/>
  <outline>
    <contour>
      <point x="137" y="-123" type="line"/>
      <point x="1100" y="1137" type="line"/>
      <point x="1023" y="1194" type="line"/>
      <point x="60" y="-66" type="line"/>
    </contour>
    <component base="o"/>
  </outline>
</glyph>
<glyph name="thorn" format="2">
  <advance width="1200"/>
  <unicode hex="00FE"/>
  <anchor x="438" y="-388" name="bottom"/>
  <anchor x="485" y="1500" name="top"/>
  <outline>
    <contour>
      <point x="115" y="-460" type="line"/>
      <point x="462" y="1514" type="line"/>
      <point x="148" y="1500" type="line"/>
      <point x="133" y="1418" type="line"/>
      <point x="349" y="1418" type="line"/>
      <point x="19" y="-459" type="line"/>
    </contour>
    <contour>
      <point x="368" y="-20" type="curve" smooth="yes"/>
      <point x="783" y="-20"/>
      <point x="1096" y="307"/>
      <point x="1096" y="740" type="curve" smooth="yes"/>
      <point x="1096" y="957"/>
      <point x="984" y="1080"/>
      <point x="790" y="1080" type="curve" smooth="yes"/>
      <point x="552" y="1080"/>
      <point x="407" y="937"/>
      <point x="337" y="733" type="curve"/>
      <point x="368" y="749" type="line"/>
      <point x="281" y="749" type="line"/>
      <point x="256" y="348" type="line"/>
      <point x="333" y="797"/>
      <point x="559" y="988"/>
      <point x="760" y="988" type="curve" smooth="yes"/>
      <point x="912" y="988"/>
      <point x="1000" y="894"/>
      <point x="1000" y="730" type="curve" smooth="yes"/>
      <point x="1000" y="355"/>
      <point x="737" y="72"/>
      <point x="390" y="72" type="curve" smooth="yes"/>
      <point x="296" y="72"/>
      <point x="217" y="82"/>
      <point x="178" y="97" type="curve"/>
      <point x="119" y="1" type="line"/>
      <point x="202" y="-12"/>
      <point x="285" y="-20"/>
    </contour>
  </outline>
</glyph>
<glyph name="Aogonek" format="2">
  <advance width="1200"/>
  <unicode hex="0104"/>
  <anchor x="438" y="-388" name="bottom"/>
  <outline>
    <contour>
      <point x="846" y="-423" type="curve" smooth="yes"/>
      <point x="889" y="-423"/>
      <point x="931" y="-417"/>
      <point x="960" y="-405" type="curve"/>
      <point x="947" y="-322" type="line"/>
      <point x="927" y="-329"/>
      <point x="896" y="-336"/>
      <point x="862" y="-336" type="curve" smooth="yes"/>
      <point x="817" y="-336"/>
      <point x="793" y="-311"/>
      <point x="793" y="-264" type="curve" smooth="yes"/>
      <point x="793" y="-189"/>
      <point x="870" y="-106"/>
      <point x="1038" y="0" type="curve"/>
      <point x="1013" y="34" type="line"/>
      <point x="948" y="58" type="line"/>
      <point x="948" y="0" type="line"/>
      <point x="777" y="-97"/>
      <point x="699" y="-186"/>
      <point x="699" y="-284" type="curve" smooth="yes"/>
      <point x="699" y="-374"/>
      <point x="750" y="-423"/>
    </contour>
    <component base="A"/>
  </outline>
</glyph>
<glyph name="aogonek" format="2">
  <advance width="1200"/>
  <unicode hex="0105"/>
  <anchor x="438" y="-388" name="bottom"/>
  <outline>
    <contour>
      <point x="857" y="-423" type="curve" smooth="yes"/>
      <point x="900" y="-423"/>
      <point x="941" y="-417"/>
      <point x="970" y="-405" type="curve"/>
      <point x="957" y="-322" type="line"/>
      <point x="937" y="-329"/>
      <point x="907" y="-336"/>
      <point x="873" y="-336" type="curve" smooth="yes"/>
      <point x="796" y="-336"/>
      <point x="754" y="-301"/>
      <point x="754" y="-234" type="curve" smooth="yes"/>
      <point x="754" y="-94"/>
      <point x="907" y="0"/>
      <point x="1042" y="0" type="curve"/>
      <point x="957" y="34" type="line"/>
      <point x="837" y="52" type="line"/>
      <point x="837" y="-17" type="line"/>
      <point x="727" y="-71"/>
      <point x="660" y="-159"/>
      <point x="660" y="-254" type="curve" smooth="yes"/>
      <point x="660" y="-364"/>
      <point x="728" y="-423"/>
    </contour>
    <component base="a"/>
  </outline>
</glyph>
<glyph name="dcroat" format="2">
  <advance width="1200"/>
  <unicode hex="0111"/>
  <anchor x="506" y="0" name="bottom"/>
  <anchor x="568" y="532" name="center"/>
  <anchor x="1103" y="1500" name="top"/>
  <anchor x="1219" y="1062" name="topright"/>
  <outline>
    <contour>
      <point x="1055" y="1500" type="line"/>
      <point x="911" y="689" type="line"/>
      <point x="860" y="339" type="line"/>
      <point x="808" y="-10" type="line"/>
      <point x="1068" y="0" type="line"/>
      <point x="1082" y="82" type="line"/>
      <point x="857" y="82" type="line"/>
      <point x="890" y="23" type="line"/>
      <point x="1150" y="1500" type="line"/>
    </contour>
    <contour>
      <point x="897" y="284" type="line"/>
      <point x="916" y="709" type="line"/>
      <point x="835" y="287"/>
      <point x="674" y="71"/>
      <point x="399" y="71" type="curve" smooth="yes"/>
      <point x="252" y="71"/>
      <point x="166" y="148"/>
      <point x="166" y="282" type="curve" smooth="yes"/>
      <point x="166" y="677"/>
      <point x="519" y="958"/>
      <point x="1051" y="978" type="curve"/>
      <point x="1067" y="1070" type="line"/>
      <point x="1059" y="1070" type="line" smooth="yes"/>
      <point x="496" y="1070"/>
      <point x="70" y="758"/>
      <point x="70" y="277" type="curve" smooth="yes"/>
      <point x="70" y="88"/>
      <point x="184" y="-21"/>
      <point x="384" y="-21" type="curve" smooth="yes"/>
      <point x="608" y="-21"/>
      <point x="783" y="114"/>
      <point x="864" y="352" type="curve"/>
      <point x="803" y="284" type="line"/>
    </contour>
    <contour>
      <point x="562" y="1260" type="line"/>
      <point x="1238" y="1260" type="line"/>
      <point x="1254" y="1350" type="line"/>
      <point x="578" y="1350" type="line"/>
    </contour>
  </outline>
</glyph>
<glyph name="Eogonek" format="2">
  <advance width="1200"/>
  <unicode hex="0118"/>
  <anchor x="438" y="-388" name="bottom"/>
  <outline>
    <contour>
      <point x="796" y="-423" type="curve" smooth="yes"/>
      <point x="839" y="-423"/>
      <point x="881" y="-417"/>
      <point x="910" y="-405" type="curve"/>
      <point x="897" y="-322" type="line"/>
      <point x="877" y="-329"/>
      <point x="846" y="-336"/>
      <point x="812" y="-336" type="curve" smooth="yes"/>
      <point x="735" y="-336"/>
      <point x="693" y="-301"/>
      <point x="693" y="-234" type="curve" smooth="yes"/>
      <point x="693" y="-94"/>
      <point x="846" y="0"/>
      <point x="981" y="0" type="curve"/>
      <point x="896" y="34" type="line"/>
      <point x="776" y="52" type="line"/>
      <point x="776" y="-6" type="line"/>
      <point x="666" y="-63"/>
      <point x="599" y="-155"/>
      <point x="599" y="-254" type="curve" smooth="yes"/>
      <point x="599" y="-364"/>
      <point x="667" y="-423"/>
    </contour>
    <component base="E"/>
  </outline>
</glyph>
<glyph name="eogonek" format="2">
  <advance width="1200"/>
  <unicode hex="0119"/>
  <anchor x="438" y="-388" name="bottom"/>
  <outline>
    <contour>
      <point x="650" y="-423" type="curve" smooth="yes"/>
      <point x="693" y="-423"/>
      <point x="734" y="-417"/>
      <point x="763" y="-405" type="curve"/>
      <point x="750" y="-322" type="line"/>
      <point x="730" y="-329"/>
      <point x="700" y="-336"/>
      <point x="666" y="-336" type="curve" smooth="yes"/>
      <point x="589" y="-336"/>
      <point x="547" y="-301"/>
      <point x="547" y="-234" type="curve" smooth="yes"/>
      <point x="547" y="-83"/>
      <point x="675" y="-21"/>
      <point x="807" y="19" type="curve"/>
      <point x="750" y="34" type="line"/>
      <point x="610" y="52" type="line"/>
      <point x="610" y="-24" type="line"/>
      <point x="507" y="-79"/>
      <point x="453" y="-158"/>
      <point x="453" y="-254" type="curve" smooth="yes"/>
      <point x="453" y="-364"/>
      <point x="521" y="-423"/>
    </contour>
    <component base="e"/>
  </outline>
</glyph>
<glyph name="Hbar" format="2">
  <advance width="1200"/>
  <unicode hex="0126"/>
  <outline>
    <contour>
      <point x="134" y="1052" type="line"/>
      <point x="1250" y="1052" type="line"/>
      <point x="1266" y="1142" type="line"/>
      <point x="150" y="1142" type="line"/>
    </contour>
    <component base="H"/>
  </outline>
</glyph>
<glyph name="hbar" format="2">
  <advance width="1200"/>
  <unicode hex="0127"/>
  <anchor x="506" y="0" name="bottom"/>
  <anchor x="689" y="784" name="center"/>
  <anchor x="412" y="1500" name="top"/>
  <outline>
    <contour>
      <point x="818" y="0" type="line"/>
      <point x="914" y="0" type="line"/>
      <point x="1037" y="697" type="line" smooth="yes"/>
      <point x="1081" y="948"/>
      <point x="984" y="1080"/>
      <point x="747" y="1080" type="curve" smooth="yes"/>
      <point x="538" y="1080"/>
      <point x="400" y="960"/>
      <point x="341" y="749" type="curve"/>
      <point x="302" y="749" type="line"/>
      <point x="251" y="320" type="line"/>
      <point x="332" y="819"/>
      <point x="513" y="988"/>
      <point x="727" y="988" type="curve" smooth="yes"/>
      <point x="910" y="988"/>
      <point x="975" y="893"/>
      <point x="942" y="705" type="curve" smooth="yes"/>
    </contour>
    <contour>
      <point x="99" y="0" type="line"/>
      <point x="195" y="0" type="line"/>
      <point x="460" y="1500" type="line"/>
      <point x="364" y="1500" type="line"/>
    </contour>
    <contour>
      <point x="151" y="1260" type="line"/>
      <point x="867" y="1260" type="line"/>
      <point x="883" y="1350" type="line"/>
      <point x="167" y="1350" type="line"/>
    </contour>
  </outline>
</glyph>
<glyph name="Iogonek" format="2">
  <advance width="1200"/>
  <unicode hex="012E"/>
  <anchor x="438" y="-388" name="bottom"/>
  <outline>
    <contour>
      <point x="476" y="-423" type="curve" smooth="yes"/>
      <point x="519" y="-423"/>
      <point x="561" y="-417"/>
      <point x="590" y="-405" type="curve"/>
      <point x="577" y="-322" type="line"/>
      <point x="557" y="-329"/>
      <point x="526" y="-336"/>
      <point x="492" y="-336" type="curve" smooth="yes"/>
      <point x="415" y="-336"/>
      <point x="373" y="-301"/>
      <point x="373" y="-234" type="curve" smooth="yes"/>
      <point x="373" y="-94"/>
      <point x="526" y="0"/>
      <point x="661" y="0" type="curve"/>
      <point x="576" y="34" type="line"/>
      <point x="456" y="52" type="line"/>
      <point x="456" y="-6" type="line"/>
      <point x="346" y="-63"/>
      <point x="279" y="-155"/>
      <point x="279" y="-254" type="curve" smooth="yes"/>
      <point x="279" y="-364"/>
      <point x="347" y="-423"/>
    </contour>
    <component base="I"/>
  </outline>
</glyph>
<glyph name="iogonek" format="2">
  <advance width="1200"/>
  <unicode hex="012F"/>
  <anchor x="438" y="-388" name="bottom"/>
  <outline>
    <contour>
      <point x="617" y="-423" type="curve" smooth="yes"/>
      <point x="660" y="-423"/>
      <point x="701" y="-417"/>
      <point x="730" y="-405" type="curve"/>
      <point x="717" y="-322" type="line"/>
      <point x="697" y="-329"/>
      <point x="667" y="-336"/>
      <point x="633" y="-336" type="curve" smooth="yes"/>
      <point x="556" y="-336"/>
      <point x="514" y="-301"/>
      <point x="514" y="-234" type="curve" smooth="yes"/>
      <point x="514" y="-103"/>
      <point x="682" y="-40"/>
      <point x="855" y="-15" type="curve"/>
      <point x="810" y="3" type="line"/>
      <point x="657" y="72" type="line"/>
      <point x="657" y="-8" type="line"/>
      <point x="502" y="-67"/>
      <point x="420" y="-152"/>
      <point x="420" y="-254" type="curve" smooth="yes"/>
      <point x="420" y="-364"/>
      <point x="488" y="-423"/>
    </contour>
    <component base="i"/>
  </outline>
</glyph>
<glyph name="idotless" format="2">
  <advance width="1200"/>
  <unicode hex="0131"/>
  <anchor x="508" y="0" name="bottom"/>
  <anchor x="731" y="10" name="ogonek"/>
  <anchor x="693" y="1060" name="top"/>
  <outline>
    <contour>
      <point x="800" y="-20" type="curve" smooth="yes"/>
      <point x="886" y="-20"/>
      <point x="977" y="9"/>
      <point x="1065" y="64" type="curve"/>
      <point x="1029" y="148" type="line"/>
      <point x="951" y="98"/>
      <point x="876" y="72"/>
      <point x="809" y="72" type="curve" smooth="yes"/>
      <point x="663" y="72"/>
      <point x="588" y="144"/>
      <point x="590" y="283" type="curve" smooth="yes"/>
      <point x="590" y="327"/>
      <point x="603" y="422"/>
      <point x="637" y="615" type="curve" smooth="yes"/>
      <point x="716" y="1060" type="line"/>
      <point x="238" y="1060" type="line"/>
      <point x="223" y="970" type="line"/>
      <point x="630" y="970" type="line"/>
      <point x="610" y="1003" type="line"/>
      <point x="541" y="615" type="line" smooth="yes"/>
      <point x="507" y="427"/>
      <point x="494" y="328"/>
      <point x="494" y="268" type="curve" smooth="yes"/>
      <point x="494" y="79"/>
      <point x="599" y="-20"/>
    </contour>
  </outline>
</glyph>
<glyph name="IJ" format="2">
  <advance width="1200"/>
  <unicode hex="0132"/>
  <guideline x="1046" y="226" angle="80"/>
  <anchor x="506" y="0" name="bottom"/>
  <anchor x="757" y="1420" name="top"/>
  <outline>
    <contour>
      <point x="561" y="-20" type="curve" smooth="yes"/>
      <point x="822" y="-20"/>
      <point x="984" y="123"/>
      <point x="1033" y="396" type="curve" smooth="yes"/>
      <point x="1214" y="1420" type="line"/>
      <point x="1118" y="1420" type="line"/>
      <point x="937" y="396" type="line" smooth="yes"/>
      <point x="898" y="182"/>
      <point x="775" y="70"/>
      <point x="577" y="70" type="curve" smooth="yes"/>
      <point x="396" y="70"/>
      <point x="317" y="175"/>
      <point x="346" y="376" type="curve"/>
      <point x="250" y="376" type="line"/>
      <point x="213" y="116"/>
      <point x="320" y="-20"/>
    </contour>
    <contour>
      <point x="53" y="517" type="line"/>
      <point x="597" y="517" type="line"/>
      <point x="613" y="607" type="line"/>
      <point x="69" y="607" type="line"/>
    </contour>
    <contour>
      <point x="276" y="517" type="line"/>
      <point x="372" y="517" type="line"/>
      <point x="531" y="1420" type="line"/>
      <point x="435" y="1420" type="line"/>
    </contour>
    <contour>
      <point x="196" y="1330" type="line"/>
      <point x="720" y="1330" type="line"/>
      <point x="736" y="1420" type="line"/>
      <point x="212" y="1420" type="line"/>
    </contour>
    <contour>
      <point x="831" y="1330" type="line"/>
      <point x="1153" y="1330" type="line"/>
      <point x="1169" y="1420" type="line"/>
      <point x="847" y="1420" type="line"/>
    </contour>
  </outline>
</glyph>
<glyph name="ij" format="2">
  <advance width="1200"/>
  <unicode hex="0133"/>
  <anchor x="448" y="-329" name="bottom"/>
  <anchor x="795" y="1480" name="top"/>
  <outline>
    <contour>
      <point x="155" y="-480" type="line"/>
      <point x="365" y="-469" type="line" smooth="yes"/>
      <point x="677" y="-453"/>
      <point x="849" y="-256"/>
      <point x="918" y="134" type="curve" smooth="yes"/>
      <point x="1082" y="1060" type="line"/>
      <point x="986" y="1060" type="line"/>
      <point x="816" y="102" type="line" smooth="yes"/>
      <point x="762" y="-202"/>
      <point x="623" y="-356"/>
      <point x="371" y="-373" type="curve" smooth="yes"/>
      <point x="151" y="-388" type="line"/>
    </contour>
    <contour>
      <point x="157" y="0" type="line"/>
      <point x="253" y="0" type="line"/>
      <point x="441" y="1060" type="line"/>
      <point x="345" y="1060" type="line"/>
    </contour>
    <contour>
      <point x="438" y="1323" type="curve" smooth="yes"/>
      <point x="493" y="1323"/>
      <point x="538" y="1367"/>
      <point x="538" y="1422" type="curve" smooth="yes"/>
      <point x="538" y="1477"/>
      <point x="493" y="1522"/>
      <point x="438" y="1522" type="curve" smooth="yes"/>
      <point x="383" y="1522"/>
      <point x="338" y="1477"/>
      <point x="338" y="1422" type="curve" smooth="yes"/>
      <point x="338" y="1367"/>
      <point x="383" y="1323"/>
    </contour>
    <contour>
      <point x="1082" y="1323" type="curve" smooth="yes"/>
      <point x="1137" y="1323"/>
      <point x="1182" y="1367"/>
      <point x="1182" y="1422" type="curve" smooth="yes"/>
      <point x="1182" y="1477"/>
      <point x="1137" y="1522"/>
      <point x="1082" y="1522" type="curve" smooth="yes"/>
      <point x="1027" y="1522"/>
      <point x="982" y="1477"/>
      <point x="982" y="1422" type="curve" smooth="yes"/>
      <point x="982" y="1367"/>
      <point x="1027" y="1323"/>
    </contour>
  </outline>
</glyph>
<glyph name="kgreenlandic" format="2">
  <advance width="1200"/>
  <unicode hex="0138"/>
  <anchor x="534" y="0" name="bottom"/>
  <anchor x="721" y="1060" name="top"/>
  <outline>
    <contour>
      <point x="976" y="-20" type="curve" smooth="yes"/>
      <point x="1019" y="-20"/>
      <point x="1049" y="-17"/>
      <point x="1080" y="-12" type="curve"/>
      <point x="1072" y="75" type="line"/>
      <point x="1050" y="73"/>
      <point x="1034" y="72"/>
      <point x="1000" y="72" type="curve" smooth="yes"/>
      <point x="783" y="72"/>
      <point x="680" y="160"/>
      <point x="621" y="409" type="curve"/>
      <point x="596" y="366" type="line"/>
      <point x="891" y="493"/>
      <point x="1077" y="665"/>
      <point x="1077" y="867" type="curve" smooth="yes"/>
      <point x="1077" y="1007"/>
      <point x="997" y="1080"/>
      <point x="844" y="1080" type="curve" smooth="yes"/>
      <point x="593" y="1080"/>
      <point x="423" y="924"/>
      <point x="332" y="739" type="curve"/>
      <point x="303" y="739" type="line"/>
      <point x="260" y="420" type="line"/>
      <point x="330" y="740"/>
      <point x="589" y="988"/>
      <point x="834" y="988" type="curve" smooth="yes"/>
      <point x="930" y="988"/>
      <point x="981" y="943"/>
      <point x="981" y="855" type="curve" smooth="yes"/>
      <point x="981" y="701"/>
      <point x="823" y="554"/>
      <point x="522" y="425" type="curve"/>
      <point x="564" y="138"/>
      <point x="720" y="-20"/>
    </contour>
    <contour>
      <point x="278" y="1060" type="line"/>
      <point x="91" y="0" type="line"/>
      <point x="187" y="0" type="line"/>
      <point x="374" y="1060" type="line"/>
    </contour>
  </outline>
</glyph>
<glyph name="lcaron" format="2">
  <advance width="1200"/>
  <unicode hex="013E"/>
  <outline>
    <contour>
      <point x="1220" y="1188" type="line"/>
      <point x="1302" y="1188" type="line"/>
      <point x="1454" y="1568" type="line"/>
      <point x="1349" y="1568" type="line"/>
    </contour>
    <component base="l"/>
  </outline>
</glyph>
<glyph name="Lslash" format="2">
  <advance width="1200"/>
  <unicode hex="0141"/>
  <anchor x="554" y="0" name="bottom"/>
  <anchor x="659" y="710" name="center"/>
  <anchor x="561" y="1420" name="top"/>
  <anchor x="1364" y="1420" name="topright"/>
  <outline>
    <contour>
      <point x="48" y="469" type="line"/>
      <point x="941" y="960" type="line"/>
      <point x="959" y="1062" type="line"/>
      <point x="66" y="571" type="line"/>
    </contour>
    <contour>
      <point x="263" y="0" type="line"/>
      <point x="359" y="0" type="line"/>
      <point x="609" y="1420" type="line"/>
      <point x="513" y="1420" type="line"/>
    </contour>
    <contour>
      <point x="263" y="0" type="line"/>
      <point x="982" y="0" type="line"/>
      <point x="998" y="90" type="line"/>
      <point x="279" y="90" type="line"/>
    </contour>
  </outline>
</glyph>
<glyph name="lslash" format="2">
  <advance width="1200"/>
  <unicode hex="0142"/>
  <outline>
    <contour>
      <point x="9" y="600" type="line"/>
      <point x="1326" y="1219" type="line"/>
      <point x="1299" y="1298" type="line"/>
      <point x="-17" y="679" type="line"/>
    </contour>
    <component base="l"/>
  </outline>
</glyph>
<glyph name="napostrophe" format="2">
  <advance width="1200"/>
  <unicode hex="0149"/>
  <outline>
    <contour>
      <point x="251" y="1168" type="line"/>
      <point x="323" y="1231" type="line" smooth="yes"/>
      <point x="415" y="1312"/>
      <point x="474" y="1404"/>
      <point x="474" y="1509" type="curve" smooth="yes"/>
      <point x="474" y="1609"/>
      <point x="405" y="1660"/>
      <point x="270" y="1660" type="curve" smooth="yes"/>
      <point x="215" y="1660" type="line"/>
      <point x="200" y="1570" type="line"/>
      <point x="225" y="1570" type="line" smooth="yes"/>
      <point x="324" y="1570"/>
      <point x="375" y="1540"/>
      <point x="375" y="1482" type="curve" smooth="yes"/>
      <point x="375" y="1417"/>
      <point x="321" y="1353"/>
      <point x="256" y="1297" type="curve" smooth="yes"/>
      <point x="191" y="1241" type="line"/>
    </contour>
    <component base="n"/>
  </outline>
</glyph>
<glyph name="Eng" format="2">
  <advance width="1200"/>
  <unicode hex="014A"/>
  <guideline x="663" y="123" angle="90"/>
  <anchor x="438" y="-388" name="bottom"/>
  <outline>
    <contour>
      <point x="866" y="151" type="line"/>
      <point x="833" y="-38" type="line" smooth="yes"/>
      <point x="801" y="-224"/>
      <point x="676" y="-327"/>
      <point x="436" y="-367" type="curve" smooth="yes"/>
      <point x="400" y="-373" type="line"/>
      <point x="405" y="-465" type="line"/>
      <point x="420" y="-463" type="line" smooth="yes"/>
      <point x="725" y="-422"/>
      <point x="887" y="-279"/>
      <point x="934" y="-6" type="curve" smooth="yes"/>
      <point x="961" y="151" type="line"/>
    </contour>
    <component base="N"/>
  </outline>
</glyph>
<glyph name="eng" format="2">
  <advance width="1200"/>
  <unicode hex="014B"/>
  <anchor x="438" y="-388" name="bottom"/>
  <anchor x="693" y="1060" name="top"/>
  <outline>
    <contour>
      <point x="359" y="-470" type="line"/>
      <point x="384" y="-468" type="line" smooth="yes"/>
      <point x="709" y="-442"/>
      <point x="859" y="-316"/>
      <point x="910" y="-26" type="curve" smooth="yes"/>
      <point x="1037" y="697" type="line" smooth="yes"/>
      <point x="1081" y="948"/>
      <point x="984" y="1080"/>
      <point x="747" y="1080" type="curve" smooth="yes"/>
      <point x="538" y="1080"/>
      <point x="400" y="960"/>
      <point x="341" y="749" type="curve"/>
      <point x="302" y="749" type="line"/>
      <point x="251" y="320" type="line"/>
      <point x="332" y="819"/>
      <point x="513" y="988"/>
      <point x="727" y="988" type="curve" smooth="yes"/>
      <point x="910" y="988"/>
      <point x="975" y="893"/>
      <point x="942" y="705" type="curve" smooth="yes"/>
      <point x="811" y="-38" type="line" smooth="yes"/>
      <point x="773" y="-257"/>
      <point x="652" y="-353"/>
      <point x="390" y="-375" type="curve" smooth="yes"/>
      <point x="355" y="-378" type="line"/>
    </contour>
    <contour>
      <point x="99" y="0" type="line"/>
      <point x="195" y="0" type="line"/>
      <point x="325" y="737" type="line"/>
      <point x="364" y="1060" type="line"/>
      <point x="286" y="1060" type="line"/>
    </contour>
  </outline>
</glyph>
<glyph name="OE" format="2">
  <advance width="1200"/>
  <unicode hex="0152"/>
  <anchor x="506" y="0" name="bottom"/>
  <anchor x="757" y="1420" name="top"/>
  <outline>
    <contour>
      <point x="422" y="-20" type="curve" smooth="yes"/>
      <point x="497" y="-20"/>
      <point x="559" y="0"/>
      <point x="606" y="0" type="curve" smooth="yes"/>
      <point x="639" y="0" type="line"/>
      <point x="889" y="1420" type="line"/>
      <point x="856" y="1420" type="line" smooth="yes"/>
      <point x="794" y="1420"/>
      <point x="752" y="1440"/>
      <point x="680" y="1440" type="curve" smooth="yes"/>
      <point x="305" y="1440"/>
      <point x="105" y="882"/>
      <point x="105" y="438" type="curve" smooth="yes"/>
      <point x="105" y="143"/>
      <point x="215" y="-20"/>
    </contour>
    <contour>
      <point x="554" y="0" type="line"/>
      <point x="980" y="0" type="line"/>
      <point x="996" y="90" type="line"/>
      <point x="571" y="90" type="line"/>
    </contour>
    <contour>
      <point x="448" y="70" type="curve" smooth="yes"/>
      <point x="287" y="70"/>
      <point x="201" y="203"/>
      <point x="201" y="445" type="curve" smooth="yes"/>
      <point x="201" y="816"/>
      <point x="362" y="1350"/>
      <point x="664" y="1350" type="curve" smooth="yes"/>
      <point x="708" y="1350"/>
      <point x="747" y="1342"/>
      <point x="777" y="1328" type="curve"/>
      <point x="556" y="76" type="line"/>
      <point x="526" y="72"/>
      <point x="486" y="70"/>
    </contour>
    <contour>
      <point x="699" y="666" type="line"/>
      <point x="1037" y="666" type="line"/>
      <point x="1053" y="756" type="line"/>
      <point x="715" y="756" type="line"/>
    </contour>
    <contour>
      <point x="789" y="1330" type="line"/>
      <point x="1215" y="1330" type="line"/>
      <point x="1230" y="1420" type="line"/>
      <point x="804" y="1420" type="line"/>
    </contour>
  </outline>
</glyph>
<glyph name="oe" format="2">
  <advance width="1200"/>
  <unicode hex="0153"/>
  <anchor x="506" y="0" name="bottom"/>
  <anchor x="693" y="1060" name="top"/>
  <outline>
    <contour>
      <point x="878" y="70" type="curve" smooth="yes"/>
      <point x="733" y="70"/>
      <point x="648" y="193"/>
      <point x="647" y="401" type="curve" smooth="yes"/>
      <point x="648" y="754"/>
      <point x="765" y="990"/>
      <point x="938" y="990" type="curve" smooth="yes"/>
      <point x="1030" y="990"/>
      <point x="1082" y="924"/>
      <point x="1082" y="818" type="curve" smooth="yes"/>
      <point x="1082" y="620"/>
      <point x="917" y="502"/>
      <point x="636" y="496" type="curve"/>
      <point x="637" y="406" type="line"/>
      <point x="977" y="414"/>
      <point x="1178" y="569"/>
      <point x="1178" y="820" type="curve" smooth="yes"/>
      <point x="1178" y="983"/>
      <point x="1095" y="1080"/>
      <point x="954" y="1080" type="curve" smooth="yes"/>
      <point x="706" y="1080"/>
      <point x="577" y="843"/>
      <point x="577" y="389" type="curve" smooth="yes"/>
      <point x="577" y="132"/>
      <point x="686" y="-20"/>
      <point x="870" y="-20" type="curve" smooth="yes"/>
      <point x="924" y="-20"/>
      <point x="987" y="-7"/>
      <point x="1039" y="14" type="curve"/>
      <point x="1018" y="100" type="line"/>
      <point x="972" y="81"/>
      <point x="921" y="70"/>
    </contour>
    <contour>
      <point x="288" y="-20" type="curve" smooth="yes"/>
      <point x="530" y="-20"/>
      <point x="657" y="246"/>
      <point x="657" y="756" type="curve" smooth="yes"/>
      <point x="657" y="969"/>
      <point x="580" y="1080"/>
      <point x="432" y="1080" type="curve" smooth="yes"/>
      <point x="172" y="1080"/>
      <point x="37" y="841"/>
      <point x="37" y="384" type="curve" smooth="yes"/>
      <point x="37" y="119"/>
      <point x="123" y="-20"/>
    </contour>
    <contour>
      <point x="304" y="72" type="curve" smooth="yes"/>
      <point x="192" y="72"/>
      <point x="133" y="183"/>
      <point x="133" y="397" type="curve" smooth="yes"/>
      <point x="133" y="785"/>
      <point x="230" y="988"/>
      <point x="415" y="988" type="curve" smooth="yes"/>
      <point x="522" y="988"/>
      <point x="578" y="907"/>
      <point x="578" y="753" type="curve" smooth="yes"/>
      <point x="578" y="305"/>
      <point x="484" y="72"/>
    </contour>
  </outline>
</glyph>
<glyph name="Tbar" format="2">
  <advance width="1200"/>
  <unicode hex="0166"/>
  <outline>
    <contour>
      <point x="211" y="637" type="line"/>
      <point x="1027" y="637" type="line"/>
      <point x="1043" y="727" type="line"/>
      <point x="227" y="727" type="line"/>
    </contour>
    <component base="T"/>
  </outline>
</glyph>
<glyph name="tbar" format="2">
  <advance width="1200"/>
  <unicode hex="0167"/>
  <outline>
    <contour>
      <point x="94" y="538" type="line"/>
      <point x="1005" y="538" type="line"/>
      <point x="1021" y="628" type="line"/>
      <point x="110" y="628" type="line"/>
    </contour>
    <component base="t"/>
  </outline>
</glyph>
<glyph name="Uogonek" format="2">
  <advance width="1200"/>
  <unicode hex="0172"/>
  <anchor x="438" y="-388" name="bottom"/>
  <outline>
    <contour>
      <point x="513" y="-423" type="curve" smooth="yes"/>
      <point x="556" y="-423"/>
      <point x="598" y="-417"/>
      <point x="627" y="-405" type="curve"/>
      <point x="614" y="-322" type="line"/>
      <point x="594" y="-329"/>
      <point x="563" y="-336"/>
      <point x="529" y="-336" type="curve" smooth="yes"/>
      <point x="450" y="-336"/>
      <point x="407" y="-301"/>
      <point x="407" y="-234" type="curve" smooth="yes"/>
      <point x="407" y="-95"/>
      <point x="547" y="-34"/>
      <point x="671" y="-1" type="curve"/>
      <point x="586" y="34" type="line"/>
      <point x="476" y="52" type="line"/>
      <point x="476" y="-24" type="line"/>
      <point x="365" y="-77"/>
      <point x="313" y="-162"/>
      <point x="313" y="-254" type="curve" smooth="yes"/>
      <point x="313" y="-364"/>
      <point x="382" y="-423"/>
    </contour>
    <component base="U"/>
  </outline>
</glyph>
<glyph name="uogonek" format="2">
  <advance width="1200"/>
  <unicode hex="0173"/>
  <outline>
    <contour>
      <point x="881" y="-423" type="curve" smooth="yes"/>
      <point x="924" y="-423"/>
      <point x="965" y="-417"/>
      <point x="994" y="-405" type="curve"/>
      <point x="981" y="-322" type="line"/>
      <point x="961" y="-329"/>
      <point x="931" y="-336"/>
      <point x="897" y="-336" type="curve" smooth="yes"/>
      <point x="820" y="-336"/>
      <point x="778" y="-301"/>
      <point x="778" y="-234" type="curve" smooth="yes"/>
      <point x="778" y="-100"/>
      <point x="929" y="-10"/>
      <point x="1063" y="-10" type="curve"/>
      <point x="981" y="34" type="line"/>
      <point x="911" y="78" type="line"/>
      <point x="911" y="9" type="line"/>
      <point x="780" y="-21"/>
      <point x="684" y="-149"/>
      <point x="684" y="-254" type="curve" smooth="yes"/>
      <point x="684" y="-364"/>
      <point x="752" y="-423"/>
    </contour>
    <component base="u"/>
  </outline>
</glyph>
<glyph name="longs" format="2">
  <advance width="1200"/>
  <unicode hex="017F"/>
  <anchor x="358" y="-388" name="bottom"/>
  <anchor x="885" y="1500" name="top"/>
  <outline>
    <contour>
      <point x="-52" y="-476" type="line"/>
      <point x="32" y="-468" type="line" smooth="yes"/>
      <point x="325" y="-440"/>
      <point x="495" y="-307"/>
      <point x="533" y="64" type="curve" smooth="yes"/>
      <point x="627" y="990" type="line" smooth="yes"/>
      <point x="657" y="1285"/>
      <point x="828" y="1428"/>
      <point x="1087" y="1428" type="curve" smooth="yes"/>
      <point x="1131" y="1428"/>
      <point x="1174" y="1424"/>
      <point x="1234" y="1414" type="curve"/>
      <point x="1271" y="1500" type="line"/>
      <point x="1218" y="1514"/>
      <point x="1169" y="1520"/>
      <point x="1109" y="1520" type="curve" smooth="yes"/>
      <point x="784" y="1520"/>
      <point x="566" y="1344"/>
      <point x="531" y="980" type="curve" smooth="yes"/>
      <point x="445" y="82" type="line" smooth="yes"/>
      <point x="414" y="-240"/>
      <point x="271" y="-353"/>
      <point x="28" y="-376" type="curve" smooth="yes"/>
      <point x="-56" y="-384" type="line"/>
    </contour>
    <contour>
      <point x="120" y="688" type="line"/>
      <point x="552" y="688" type="line"/>
      <point x="568" y="778" type="line"/>
      <point x="136" y="778" type="line"/>
    </contour>
  </outline>
</glyph>
<glyph name="Oopen" format="2">
  <advance width="1200"/>
  <unicode hex="0186"/>
  <anchor x="506" y="0" name="bottom"/>
  <anchor x="757" y="1420" name="top"/>
  <outline>
    <contour>
      <point x="645" y="1440" type="curve" smooth="yes"/>
      <point x="520" y="1440"/>
      <point x="395" y="1420"/>
      <point x="269" y="1378" type="curve"/>
      <point x="281" y="1290" type="line"/>
      <point x="396" y="1330"/>
      <point x="507" y="1350"/>
      <point x="618" y="1350" type="curve" smooth="yes"/>
      <point x="878" y="1350"/>
      <point x="1052" y="1166"/>
      <point x="1052" y="890" type="curve" smooth="yes"/>
      <point x="1052" y="398"/>
      <point x="796" y="70"/>
      <point x="411" y="70" type="curve" smooth="yes"/>
      <point x="276" y="70"/>
      <point x="170" y="114"/>
      <point x="71" y="210" type="curve"/>
      <point x="-2" y="139" type="line"/>
      <point x="109" y="29"/>
      <point x="234" y="-20"/>
      <point x="402" y="-20" type="curve" smooth="yes"/>
      <point x="848" y="-20"/>
      <point x="1146" y="347"/>
      <point x="1146" y="897" type="curve" smooth="yes"/>
      <point x="1146" y="1223"/>
      <point x="946" y="1440"/>
    </contour>
  </outline>
</glyph>
<glyph name="Ereversed" format="2">
  <advance width="1200"/>
  <unicode hex="018E"/>
  <anchor x="506" y="0" name="bottom"/>
  <anchor x="757" y="1420" name="top"/>
  <anchor x="1364" y="1420" name="topright"/>
  <outline>
    <contour>
      <point x="826" y="0" type="line"/>
      <point x="922" y="0" type="line"/>
      <point x="1172" y="1420" type="line"/>
      <point x="1076" y="1420" type="line"/>
    </contour>
    <contour>
      <point x="31" y="0" type="line"/>
      <point x="922" y="0" type="line"/>
      <point x="938" y="90" type="line"/>
      <point x="47" y="90" type="line"/>
    </contour>
    <contour>
      <point x="327" y="664" type="line"/>
      <point x="1030" y="664" type="line"/>
      <point x="1047" y="754" type="line"/>
      <point x="343" y="754" type="line"/>
    </contour>
    <contour>
      <point x="266" y="1330" type="line"/>
      <point x="1156" y="1330" type="line"/>
      <point x="1172" y="1420" type="line"/>
      <point x="281" y="1420" type="line"/>
    </contour>
  </outline>
</glyph>
<glyph name="Schwa" format="2">
  <advance width="1200"/>
  <unicode hex="018F"/>
  <anchor x="506" y="0" name="bottom"/>
  <anchor x="757" y="1420" name="top"/>
  <outline>
    <contour>
      <point x="566" y="1350" type="curve" smooth="yes"/>
      <point x="879" y="1350"/>
      <point x="1066" y="1160"/>
      <point x="1068" y="839" type="curve" smooth="yes"/>
      <point x="1067" y="356"/>
      <point x="838" y="70"/>
      <point x="451" y="70" type="curve" smooth="yes"/>
      <point x="297" y="70"/>
      <point x="195" y="167"/>
      <point x="195" y="313" type="curve" smooth="yes"/>
      <point x="195" y="584"/>
      <point x="538" y="749"/>
      <point x="1119" y="759" type="curve"/>
      <point x="1078" y="849" type="line"/>
      <point x="463" y="838"/>
      <point x="99" y="634"/>
      <point x="99" y="300" type="curve" smooth="yes"/>
      <point x="99" y="108"/>
      <point x="233" y="-20"/>
      <point x="435" y="-20" type="curve" smooth="yes"/>
      <point x="893" y="-20"/>
      <point x="1164" y="304"/>
      <point x="1164" y="851" type="curve" smooth="yes"/>
      <point x="1164" y="1221"/>
      <point x="945" y="1440"/>
      <point x="575" y="1440" type="curve" smooth="yes"/>
      <point x="469" y="1440"/>
      <point x="345" y="1416"/>
      <point x="242" y="1376" type="curve"/>
      <point x="272" y="1288" type="line"/>
      <point x="366" y="1327"/>
      <point x="476" y="1350"/>
    </contour>
  </outline>
</glyph>
<glyph name="Eopen" format="2">
  <advance width="1200"/>
  <unicode hex="0190"/>
  <anchor x="506" y="0" name="bottom"/>
  <anchor x="757" y="1420" name="top"/>
  <outline>
    <contour>
      <point x="841" y="1440" type="curve" smooth="yes"/>
      <point x="539" y="1440"/>
      <point x="301" y="1304"/>
      <point x="301" y="1041" type="curve" smooth="yes"/>
      <point x="301" y="894"/>
      <point x="384" y="783"/>
      <point x="586" y="758" type="curve"/>
      <point x="580" y="819" type="line"/>
      <point x="560" y="702" type="line"/>
      <point x="585" y="751" type="line"/>
      <point x="303" y="745"/>
      <point x="115" y="576"/>
      <point x="115" y="327" type="curve" smooth="yes"/>
      <point x="115" y="108"/>
      <point x="281" y="-20"/>
      <point x="577" y="-20" type="curve" smooth="yes"/>
      <point x="764" y="-20"/>
      <point x="861" y="-4"/>
      <point x="991" y="48" type="curve"/>
      <point x="983" y="137" type="line"/>
      <point x="830" y="84"/>
      <point x="750" y="70"/>
      <point x="588" y="70" type="curve" smooth="yes"/>
      <point x="349" y="70"/>
      <point x="214" y="171"/>
      <point x="214" y="344" type="curve" smooth="yes"/>
      <point x="214" y="559"/>
      <point x="407" y="702"/>
      <point x="697" y="702" type="curve" smooth="yes"/>
      <point x="887" y="702" type="line"/>
      <point x="904" y="790" type="line"/>
      <point x="546" y="803"/>
      <point x="396" y="880"/>
      <point x="396" y="1045" type="curve" smooth="yes"/>
      <point x="396" y="1245"/>
      <point x="585" y="1350"/>
      <point x="826" y="1350" type="curve" smooth="yes"/>
      <point x="974" y="1350"/>
      <point x="1096" y="1310"/>
      <point x="1166" y="1214" type="curve"/>
      <point x="1240" y="1286" type="line"/>
      <point x="1176" y="1374"/>
      <point x="1033" y="1440"/>
    </contour>
  </outline>
</glyph>
<glyph name="Fhook" format="2">
  <advance width="1200"/>
  <unicode hex="0191"/>
  <anchor x="438" y="-388" name="bottom"/>
  <outline>
    <contour>
      <point x="138" y="151" type="line"/>
      <point x="105" y="-33" type="line" smooth="yes"/>
      <point x="68" y="-238"/>
      <point x="1" y="-342"/>
      <point x="-182" y="-376" type="curve" smooth="yes"/>
      <point x="-225" y="-384" type="line"/>
      <point x="-219" y="-476" type="line"/>
      <point x="-188" y="-472" type="line" smooth="yes"/>
      <point x="61" y="-440"/>
      <point x="154" y="-308"/>
      <point x="206" y="-6" type="curve" smooth="yes"/>
      <point x="233" y="151" type="line"/>
    </contour>
    <component base="F"/>
  </outline>
</glyph>
<glyph name="florin" format="2">
  <advance width="1200"/>
  <unicode hex="0192"/>
  <outline>
    <contour>
      <point x="80" y="-480" type="curve" smooth="yes"/>
      <point x="290" y="-480"/>
      <point x="425" y="-346"/>
      <point x="470" y="-90" type="curve" smooth="yes"/>
      <point x="682" y="1113" type="line" smooth="yes"/>
      <point x="720" y="1330"/>
      <point x="824" y="1430"/>
      <point x="1014" y="1430" type="curve" smooth="yes"/>
      <point x="1124" y="1430"/>
      <point x="1205" y="1390"/>
      <point x="1271" y="1303" type="curve"/>
      <point x="1348" y="1363" type="line"/>
      <point x="1274" y="1466"/>
      <point x="1164" y="1520"/>
      <point x="1025" y="1520" type="curve" smooth="yes"/>
      <point x="774" y="1520"/>
      <point x="637" y="1399"/>
      <point x="590" y="1134" type="curve" smooth="yes"/>
      <point x="377" y="-73" type="line" smooth="yes"/>
      <point x="340" y="-282"/>
      <point x="240" y="-390"/>
      <point x="91" y="-390" type="curve" smooth="yes"/>
      <point x="-9" y="-390"/>
      <point x="-91" y="-344"/>
      <point x="-150" y="-256" type="curve"/>
      <point x="-225" y="-321" type="line"/>
      <point x="-152" y="-425"/>
      <point x="-47" y="-480"/>
    </contour>
    <contour>
      <point x="110" y="606" type="line"/>
      <point x="1090" y="606" type="line"/>
      <point x="1106" y="696" type="line"/>
      <point x="126" y="696" type="line"/>
    </contour>
  </outline>
</glyph>
<glyph name="Gammaafrican" format="2">
  <advance width="1200"/>
  <unicode hex="0194"/>
  <anchor x="438" y="-388" name="bottom"/>
  <anchor x="757" y="1420" name="top"/>
  <outline>
    <contour>
      <point x="382" y="-462" type="line"/>
      <point x="563" y="-462"/>
      <point x="684" y="-368"/>
      <point x="684" y="-227" type="curve" smooth="yes"/>
      <point x="684" y="-147"/>
      <point x="641" y="-65"/>
      <point x="546" y="31" type="curve"/>
      <point x="452" y="26" type="line"/>
      <point x="551" y="-102"/>
      <point x="586" y="-167"/>
      <point x="586" y="-222" type="curve" smooth="yes"/>
      <point x="586" y="-312"/>
      <point x="509" y="-372"/>
      <point x="394" y="-372" type="curve"/>
    </contour>
    <contour>
      <point x="382" y="-462" type="curve"/>
      <point x="394" y="-372" type="line"/>
      <point x="316" y="-372"/>
      <point x="264" y="-331"/>
      <point x="264" y="-270" type="curve" smooth="yes"/>
      <point x="264" y="-197"/>
      <point x="310" y="-137"/>
      <point x="490" y="16" type="curve"/>
      <point x="399" y="31" type="line"/>
      <point x="263" y="-54"/>
      <point x="166" y="-151"/>
      <point x="166" y="-282" type="curve" smooth="yes"/>
      <point x="166" y="-390"/>
      <point x="252" y="-462"/>
    </contour>
    <contour>
      <point x="397" y="0" type="line"/>
      <point x="478" y="23" type="line"/>
      <point x="549" y="0" type="line"/>
      <point x="887" y="388"/>
      <point x="1127" y="866"/>
      <point x="1288" y="1420" type="curve"/>
      <point x="1192" y="1420" type="line"/>
      <point x="1020" y="876"/>
      <point x="795" y="433"/>
      <point x="502" y="77" type="curve"/>
      <point x="484" y="77" type="line"/>
      <point x="328" y="1432" type="line"/>
      <point x="226" y="1420" type="line"/>
    </contour>
  </outline>
</glyph>
<glyph name="lbar" format="2">
  <advance width="1200"/>
  <unicode hex="019A"/>
  <outline>
    <contour>
      <point x="134" y="677" type="line"/>
      <point x="951" y="677" type="line"/>
      <point x="967" y="765" type="line"/>
      <point x="150" y="765" type="line"/>
    </contour>
    <component base="l"/>
  </outline>
</glyph>
<glyph name="lambdastroke" format="2">
  <advance width="1200"/>
  <unicode hex="019B"/>
  <outline>
    <contour>
      <point x="134" y="958" type="line"/>
      <point x="992" y="1208" type="line"/>
      <point x="972" y="1289" type="line"/>
      <point x="112" y="1039" type="line"/>
    </contour>
    <component base="lambda"/>
  </outline>
</glyph>
<glyph name="Nhookleft" format="2">
  <advance width="1200"/>
  <unicode hex="019D"/>
  <anchor x="438" y="-388" name="bottom"/>
  <outline>
    <contour>
      <point x="106" y="151" type="line"/>
      <point x="73" y="-33" type="line" smooth="yes"/>
      <point x="36" y="-238"/>
      <point x="-31" y="-342"/>
      <point x="-214" y="-376" type="curve" smooth="yes"/>
      <point x="-257" y="-384" type="line"/>
      <point x="-251" y="-476" type="line"/>
      <point x="-220" y="-472" type="line" smooth="yes"/>
      <point x="29" y="-440"/>
      <point x="122" y="-308"/>
      <point x="174" y="-6" type="curve" smooth="yes"/>
      <point x="201" y="151" type="line"/>
    </contour>
    <component base="N"/>
  </outline>
</glyph>
<glyph name="Uhorn" format="2">
  <advance width="1200"/>
  <unicode hex="01AF"/>
  <outline>
    <contour>
      <point x="1110" y="1335" type="line"/>
      <point x="1172" y="1345" type="line" smooth="yes"/>
      <point x="1351" y="1375"/>
      <point x="1442" y="1460"/>
      <point x="1476" y="1653" type="curve"/>
      <point x="1380" y="1653" type="line"/>
      <point x="1356" y="1512"/>
      <point x="1293" y="1451"/>
      <point x="1167" y="1430" type="curve" smooth="yes"/>
      <point x="1105" y="1420" type="line"/>
    </contour>
    <component base="U"/>
  </outline>
</glyph>
<glyph name="Upsilonafrican" format="2">
  <advance width="1200"/>
  <unicode hex="01B1"/>
  <anchor x="506" y="0" name="bottom"/>
  <anchor x="757" y="1420" name="top"/>
  <outline>
    <contour>
      <point x="508" y="1389" type="line"/>
      <point x="508" y="1318" type="line"/>
      <point x="231" y="1168"/>
      <point x="86" y="888"/>
      <point x="86" y="468" type="curve" smooth="yes"/>
      <point x="86" y="162"/>
      <point x="241" y="-20"/>
      <point x="504" y="-20" type="curve" smooth="yes"/>
      <point x="914" y="-20"/>
      <point x="1157" y="317"/>
      <point x="1157" y="887" type="curve" smooth="yes"/>
      <point x="1157" y="1098"/>
      <point x="1091" y="1259"/>
      <point x="977" y="1318" type="curve"/>
      <point x="977" y="1381" type="line"/>
      <point x="835" y="1330" type="line"/>
      <point x="978" y="1281"/>
      <point x="1061" y="1119"/>
      <point x="1061" y="894" type="curve" smooth="yes"/>
      <point x="1061" y="376"/>
      <point x="859" y="70"/>
      <point x="518" y="70" type="curve" smooth="yes"/>
      <point x="307" y="70"/>
      <point x="182" y="218"/>
      <point x="182" y="470" type="curve" smooth="yes"/>
      <point x="182" y="891"/>
      <point x="341" y="1164"/>
      <point x="646" y="1330" type="curve"/>
    </contour>
    <contour>
      <point x="280" y="1420" type="line"/>
      <point x="264" y="1330" type="line"/>
      <point x="646" y="1330" type="line"/>
      <point x="662" y="1420" type="line"/>
    </contour>
    <contour>
      <point x="851" y="1420" type="line"/>
      <point x="835" y="1330" type="line"/>
      <point x="1211" y="1330" type="line"/>
      <point x="1227" y="1420" type="line"/>
    </contour>
  </outline>
</glyph>
<glyph name="Vhook" format="2">
  <advance width="1200"/>
  <unicode hex="01B2"/>
  <anchor x="506" y="0" name="bottom"/>
  <anchor x="1005" y="10" name="ogonek"/>
  <anchor x="757" y="1420" name="top"/>
  <anchor x="1354" y="1420" name="topright"/>
  <outline>
    <contour>
      <point x="833" y="1420" type="line"/>
      <point x="817" y="1330" type="line"/>
      <point x="949" y="1330" type="line" smooth="yes"/>
      <point x="1036" y="1330"/>
      <point x="1072" y="1275"/>
      <point x="1053" y="1170" type="curve" smooth="yes"/>
      <point x="927" y="456" type="line" smooth="yes"/>
      <point x="882" y="200"/>
      <point x="744" y="70"/>
      <point x="519" y="70" type="curve" smooth="yes"/>
      <point x="284" y="70"/>
      <point x="202" y="200"/>
      <point x="247" y="456" type="curve" smooth="yes"/>
      <point x="417" y="1420" type="line"/>
      <point x="321" y="1420" type="line"/>
      <point x="151" y="456" type="line" smooth="yes"/>
      <point x="95" y="138"/>
      <point x="211" y="-20"/>
      <point x="499" y="-20" type="curve" smooth="yes"/>
      <point x="787" y="-20"/>
      <point x="967" y="138"/>
      <point x="1023" y="456" type="curve" smooth="yes"/>
      <point x="1149" y="1170" type="line" smooth="yes"/>
      <point x="1178" y="1334"/>
      <point x="1115" y="1420"/>
      <point x="967" y="1420" type="curve" smooth="yes"/>
    </contour>
  </outline>
</glyph>
<glyph name="Ezh" format="2">
  <advance width="1200"/>
  <unicode hex="01B7"/>
  <anchor x="506" y="0" name="bottom"/>
  <anchor x="757" y="1420" name="top"/>
  <outline>
    <contour>
      <point x="469" y="-20" type="curve" smooth="yes"/>
      <point x="795" y="-20"/>
      <point x="1039" y="147"/>
      <point x="1039" y="437" type="curve" smooth="yes"/>
      <point x="1039" y="669"/>
      <point x="854" y="787"/>
      <point x="480" y="793" type="curve"/>
      <point x="483" y="752" type="line"/>
      <point x="1131" y="1317" type="line"/>
      <point x="1115" y="1420" type="line"/>
      <point x="344" y="1420" type="line"/>
      <point x="328" y="1330" type="line"/>
      <point x="1061" y="1330" type="line"/>
      <point x="1083" y="1391" type="line"/>
      <point x="364" y="765" type="line"/>
      <point x="373" y="703" type="line"/>
      <point x="465" y="703" type="line" smooth="yes"/>
      <point x="783" y="703"/>
      <point x="942" y="614"/>
      <point x="942" y="434" type="curve" smooth="yes"/>
      <point x="942" y="204"/>
      <point x="749" y="70"/>
      <point x="490" y="70" type="curve" smooth="yes"/>
      <point x="334" y="70"/>
      <point x="204" y="121"/>
      <point x="110" y="218" type="curve"/>
      <point x="44" y="148" type="line"/>
      <point x="156" y="38"/>
      <point x="302" y="-20"/>
    </contour>
  </outline>
</glyph>
<glyph name="gstroke" format="2">
  <advance width="1200"/>
  <unicode hex="01E5"/>
  <outline>
    <contour>
      <point x="-89" y="-223" type="line"/>
      <point x="1023" y="-223" type="line"/>
      <point x="1039" y="-135" type="line"/>
      <point x="-73" y="-135" type="line"/>
    </contour>
    <component base="g"/>
  </outline>
</glyph>
<glyph name="Oogonek" format="2">
  <advance width="1200"/>
  <unicode hex="01EA"/>
  <anchor x="438" y="-388" name="bottom"/>
  <outline>
    <contour>
      <point x="508" y="-423" type="curve" smooth="yes"/>
      <point x="551" y="-423"/>
      <point x="593" y="-417"/>
      <point x="622" y="-405" type="curve"/>
      <point x="609" y="-322" type="line"/>
      <point x="589" y="-329"/>
      <point x="558" y="-336"/>
      <point x="524" y="-336" type="curve" smooth="yes"/>
      <point x="445" y="-336"/>
      <point x="402" y="-301"/>
      <point x="402" y="-234" type="curve" smooth="yes"/>
      <point x="402" y="-94"/>
      <point x="542" y="-33"/>
      <point x="666" y="0" type="curve"/>
      <point x="581" y="34" type="line"/>
      <point x="471" y="52" type="line"/>
      <point x="471" y="-24" type="line"/>
      <point x="360" y="-77"/>
      <point x="308" y="-162"/>
      <point x="308" y="-254" type="curve" smooth="yes"/>
      <point x="308" y="-364"/>
      <point x="377" y="-423"/>
    </contour>
    <component base="O"/>
  </outline>
</glyph>
<glyph name="oogonek" format="2">
  <advance width="1200"/>
  <unicode hex="01EB"/>
  <anchor x="438" y="-388" name="bottom"/>
  <outline>
    <contour>
      <point x="557" y="-423" type="curve" smooth="yes"/>
      <point x="600" y="-423"/>
      <point x="641" y="-417"/>
      <point x="670" y="-405" type="curve"/>
      <point x="657" y="-322" type="line"/>
      <point x="637" y="-329"/>
      <point x="607" y="-336"/>
      <point x="573" y="-336" type="curve" smooth="yes"/>
      <point x="496" y="-336"/>
      <point x="454" y="-301"/>
      <point x="454" y="-234" type="curve" smooth="yes"/>
      <point x="454" y="-83"/>
      <point x="582" y="-33"/>
      <point x="714" y="18" type="curve"/>
      <point x="647" y="34" type="line"/>
      <point x="517" y="52" type="line"/>
      <point x="517" y="-28" type="line"/>
      <point x="414" y="-82"/>
      <point x="360" y="-160"/>
      <point x="360" y="-254" type="curve" smooth="yes"/>
      <point x="360" y="-364"/>
      <point x="428" y="-423"/>
    </contour>
    <component base="o"/>
  </outline>
</glyph>
<glyph name="jdotless" format="2">
  <advance width="1200"/>
  <unicode hex="0237"/>
  <anchor x="411" y="-388" name="bottom"/>
  <anchor x="864" y="1061" name="top"/>
  <outline>
    <contour>
      <point x="30" y="-480" type="line"/>
      <point x="240" y="-469" type="line" smooth="yes"/>
      <point x="549" y="-453"/>
      <point x="723" y="-267"/>
      <point x="788" y="104" type="curve" smooth="yes"/>
      <point x="896" y="725" type="line" smooth="yes"/>
      <point x="935" y="951"/>
      <point x="841" y="1081"/>
      <point x="638" y="1081" type="curve" smooth="yes"/>
      <point x="485" y="1081"/>
      <point x="333" y="1060"/>
      <point x="222" y="1023" type="curve"/>
      <point x="243" y="936" type="line"/>
      <point x="358" y="970"/>
      <point x="498" y="989"/>
      <point x="626" y="989" type="curve" smooth="yes"/>
      <point x="769" y="989"/>
      <point x="833" y="894"/>
      <point x="803" y="727" type="curve" smooth="yes"/>
      <point x="691" y="102" type="line" smooth="yes"/>
      <point x="637" y="-202"/>
      <point x="498" y="-356"/>
      <point x="246" y="-373" type="curve" smooth="yes"/>
      <point x="26" y="-388" type="line"/>
    </contour>
  </outline>
</glyph>
<glyph name="Astroke" format="2">
  <advance width="1200"/>
  <unicode hex="023A"/>
  <anchor x="438" y="-388" name="bottom"/>
  <anchor x="770" y="1500" name="top"/>
  <outline>
    <contour>
      <point x="316" y="-340" type="line"/>
      <point x="597" y="425" type="line"/>
      <point x="613" y="469" type="line"/>
      <point x="831" y="1062" type="line"/>
      <point x="855" y="1129" type="line"/>
      <point x="1065" y="1699" type="line"/>
      <point x="968" y="1723" type="line"/>
      <point x="803" y="1266" type="line"/>
      <point x="789" y="1226" type="line"/>
      <point x="513" y="465" type="line"/>
      <point x="498" y="423" type="line"/>
      <point x="229" y="-320" type="line"/>
    </contour>
    <component base="A"/>
  </outline>
</glyph>
<glyph name="Cstroke" format="2">
  <advance width="1200"/>
  <unicode hex="023B"/>
  <anchor x="438" y="-388" name="bottom"/>
  <anchor x="871" y="1500" name="top"/>
  <outline>
    <contour>
      <point x="366" y="-340" type="line"/>
      <point x="1115" y="1699" type="line"/>
      <point x="1018" y="1723" type="line"/>
      <point x="279" y="-320" type="line"/>
    </contour>
    <component base="C"/>
  </outline>
</glyph>
<glyph name="Lbar" format="2">
  <advance width="1200"/>
  <unicode hex="023D"/>
  <outline>
    <contour>
      <point x="6" y="677" type="line"/>
      <point x="822" y="677" type="line"/>
      <point x="838" y="767" type="line"/>
      <point x="22" y="767" type="line"/>
    </contour>
    <component base="L"/>
  </outline>
</glyph>
<glyph name="Tdiagonalstroke" format="2">
  <advance width="1200"/>
  <unicode hex="023E"/>
  <anchor x="438" y="-388" name="bottom"/>
  <anchor x="770" y="1500" name="top"/>
  <outline>
    <contour>
      <point x="186" y="-340" type="line"/>
      <point x="1295" y="1679" type="line"/>
      <point x="1211" y="1719" type="line"/>
      <point x="114" y="-304" type="line"/>
    </contour>
    <component base="T"/>
  </outline>
</glyph>
<glyph name="oopen" format="2">
  <advance width="1200"/>
  <unicode hex="0254"/>
  <anchor x="500" y="0" name="bottom"/>
  <anchor x="727" y="1060" name="top"/>
  <outline>
    <contour>
      <point x="617" y="988" type="curve" smooth="yes"/>
      <point x="826" y="988"/>
      <point x="951" y="866"/>
      <point x="953" y="659" type="curve" smooth="yes"/>
      <point x="952" y="305"/>
      <point x="758" y="72"/>
      <point x="464" y="72" type="curve" smooth="yes"/>
      <point x="333" y="72"/>
      <point x="239" y="100"/>
      <point x="135" y="171" type="curve"/>
      <point x="83" y="100" type="line"/>
      <point x="191" y="14"/>
      <point x="297" y="-20"/>
      <point x="456" y="-20" type="curve" smooth="yes"/>
      <point x="814" y="-20"/>
      <point x="1049" y="254"/>
      <point x="1049" y="671" type="curve" smooth="yes"/>
      <point x="1049" y="928"/>
      <point x="896" y="1080"/>
      <point x="636" y="1080" type="curve" smooth="yes"/>
      <point x="497" y="1080"/>
      <point x="394" y="1061"/>
      <point x="285" y="1019" type="curve"/>
      <point x="303" y="931" type="line"/>
      <point x="407" y="970"/>
      <point x="499" y="988"/>
    </contour>
  </outline>
</glyph>
